<svg width="107" height="107" viewBox="0 0 107 107" fill="none" xmlns="http://www.w3.org/2000/svg">
<path d="M53.4924 105.886C82.4263 105.886 105.882 82.4305 105.882 53.4965C105.882 24.5625 82.4263 1.10693 53.4924 1.10693C24.5584 1.10693 1.10278 24.5625 1.10278 53.4965C1.10278 82.4305 24.5584 105.886 53.4924 105.886Z" fill="white" stroke="white" stroke-width="1.2373" stroke-miterlimit="11.3386"/>
<path d="M24.5915 24.3564C22.3825 26.6758 20.5601 28.6271 20.5417 28.6639C20.5233 28.7191 22.5114 30.6704 24.9596 32.9898C27.4079 35.3276 29.5433 37.3709 29.6905 37.4998L29.9666 37.7575L29.4696 38.5859C25.1069 45.8019 24.2049 54.4905 26.9477 62.4796C27.4631 63.9891 28.3467 65.9219 29.1015 67.1921C29.4696 67.818 29.6353 68.223 29.5985 68.2966C29.5617 68.3702 27.3343 70.7265 24.6467 73.5429C21.9591 76.341 19.7685 78.6788 19.7317 78.7156C19.7133 78.7708 27.2422 86.042 27.9602 86.6311L28.2363 86.8704L32.4886 82.434C34.8264 79.9858 37.017 77.6847 37.3483 77.335L37.9742 76.7091L38.5632 77.0773C41.5638 78.9917 45.0797 80.3171 48.9638 81.0166C50.9151 81.3664 54.6335 81.4584 56.7137 81.2007C60.7266 80.7405 64.7028 79.3967 67.961 77.427L68.8078 76.9116L69.7098 77.7952C71.6795 79.7096 79.0427 86.7047 79.1164 86.7415C79.19 86.7784 87.2712 78.329 87.2528 78.2186C87.2344 78.1634 81.6935 72.8434 78.3064 69.6588L77.1835 68.5911L77.6989 67.7444C82.0248 60.5468 82.9268 51.8213 80.1288 43.777C79.7238 42.5988 78.4905 39.9481 77.7726 38.7331L77.4228 38.1257L82.1537 33.1739C84.7493 30.4679 86.8662 28.2037 86.8478 28.1485C86.7741 27.9644 78.4905 20.1409 78.38 20.1409C78.3064 20.1409 76.2263 22.2579 73.7412 24.8718C71.2561 27.4674 69.1944 29.6027 69.1392 29.6211C69.1023 29.6395 68.863 29.5291 68.6421 29.3634C68.0163 28.94 66.4332 28.0748 65.5496 27.6698C62.862 26.4365 60.3585 25.6818 57.45 25.2584C55.9405 25.0375 51.4121 25.0007 50.0131 25.2032C46.6628 25.6818 43.92 26.5101 41.122 27.9092C40.312 28.2957 39.3732 28.8112 39.005 29.032L38.3423 29.437L37.5876 28.7007C37.1826 28.2957 35.3418 26.5654 33.5194 24.8166C31.697 23.0862 29.8378 21.319 29.396 20.8772L28.586 20.0857L24.5915 24.3564ZM55.4987 36.3585C58.4256 36.7082 61.0396 37.7023 63.451 39.3958C64.6844 40.261 66.5252 42.1018 67.3904 43.3352C72.3054 50.2934 71.3665 59.7552 65.1814 65.5538C59.8983 70.4872 52.2589 71.5917 45.8345 68.315C41.1956 65.9404 37.919 61.596 36.8697 56.3865C36.5383 54.7298 36.5383 51.6372 36.8697 49.9989C37.1826 48.379 37.606 47.2193 38.3976 45.5994C41.5638 39.2302 48.43 35.5117 55.4987 36.3585Z" fill="black"/>
</svg>
