<svg width="424" height="212" viewBox="0 0 424 212" fill="none" xmlns="http://www.w3.org/2000/svg">
<g clip-path="url(#clip0_1240_6044)">
<path d="M413.172 202.39L408.985 204.167L400.109 188.922L406.29 186.298L413.172 202.39Z" fill="#FFB6B6"/>
<path d="M378.57 206.338L374.018 206.337L371.853 188.845H378.57L378.57 206.338Z" fill="#FFB6B6"/>
<path d="M378.73 211.068L364.733 211.068V210.892C364.733 209.452 365.307 208.071 366.329 207.054C367.35 206.036 368.736 205.464 370.181 205.464H370.181L372.738 203.531L377.508 205.464L378.73 205.464L378.73 211.068Z" fill="#2F2E41"/>
<path d="M415.718 205.418L402.842 210.885L402.772 210.723C402.206 209.399 402.191 207.905 402.73 206.569C403.269 205.234 404.319 204.166 405.648 203.602L405.649 203.602L407.24 200.825L412.389 200.74L413.513 200.262L415.718 205.418Z" fill="#2F2E41"/>
<path d="M374.105 102.812L367.187 144.78L369.07 151.034L366.599 155.463L370.227 194.361L368.755 197.591L372.869 200.12H381.241L381.685 164.905L383.754 159.734V156.885L387.963 135.412L388.739 159.974L389.963 165.153L388.935 168.84L390.279 171.423L401.797 196.066H411.185L410.459 190.493C412.141 189.645 407.934 187.165 407.53 185.33L408.912 182.231L407.53 176.378L406.262 164.94L407.599 140.797L406.97 108.284C403.818 104.074 400.321 100.827 395.988 99.9171L374.105 102.812Z" fill="#2F2E41"/>
<path d="M390.951 47.5434C396.19 47.5434 400.438 43.3114 400.438 38.0909C400.438 32.8704 396.19 28.6383 390.951 28.6383C385.711 28.6383 381.463 32.8704 381.463 38.0909C381.463 43.3114 385.711 47.5434 390.951 47.5434Z" fill="#FFB6B6"/>
<path d="M351.835 112.728C351.717 112.197 351.717 111.647 351.835 111.116C351.953 110.585 352.187 110.086 352.52 109.655C352.852 109.224 353.276 108.871 353.76 108.62C354.245 108.37 354.778 108.228 355.324 108.206L359.145 95.5471L363.564 100.82L359.257 112.033C359.235 112.948 358.876 113.823 358.249 114.493C357.622 115.162 356.771 115.579 355.856 115.665C354.941 115.751 354.027 115.499 353.285 114.958C352.544 114.416 352.028 113.623 351.835 112.728Z" fill="#FFB6B6"/>
<path d="M376.627 60.6973L374.914 57.5795L372.707 58.3135C372.707 58.3135 370.27 59.88 366.859 65.7936C365.281 68.5287 361.87 86.0676 361.87 86.0676L353.897 107.102L362.025 108.471L368.807 91.1364L376.67 74.5475L376.627 60.6973Z" fill="#7722FC"/>
<path d="M390.599 102.68C397.279 102.68 404.019 103.99 406.779 108.675C406.707 107.656 406.526 105.89 406.338 104.269L405.648 99.9153L406.347 95.9232L407.272 95.0016L405.616 93.3512L406.746 85.0178L410.476 65.3865C410.768 63.8421 410.54 62.2447 409.827 60.8428C409.114 59.4409 407.956 58.313 406.533 57.6346L402.949 55.9176L397.14 50.5489L386.632 50.4706L383.203 54.9114L374.178 57.9656L375.693 89.1898L374.7 91.4983C374.923 91.7019 375.392 92.1371 375.647 92.4174C376.006 92.8139 375.548 94.8553 375.243 96.0368L374.824 99.1843L376.144 100.124L374.428 102.144L374.084 104.709C375.789 104.307 383.157 102.68 390.599 102.68Z" fill="#7722FC"/>
<path d="M393.378 47.0797C393.418 46.9911 393.458 46.9022 393.498 46.813C393.483 46.8135 393.468 46.8157 393.452 46.8161L393.378 47.0797Z" fill="#2F2E41"/>
<path d="M400.702 29.0682C400.251 28.6447 399.666 28.3925 399.048 28.3556C398.434 28.3753 397.812 28.9273 397.939 29.5257C396.812 27.5378 395.019 26.0088 392.873 25.2073C390.728 24.4057 388.367 24.3827 386.207 25.1423C384.682 25.6783 383.186 26.7506 382.836 28.3233C382.802 28.7362 382.679 29.1368 382.474 29.4975C382.297 29.6903 382.067 29.8273 381.812 29.8915C381.558 29.9557 381.29 29.9444 381.042 29.8589L381.027 29.8545C380.942 29.8256 380.851 29.8228 380.764 29.8464C380.677 29.8699 380.6 29.9188 380.542 29.9867C380.483 30.0546 380.447 30.1384 380.437 30.2273C380.427 30.3161 380.444 30.4059 380.485 30.485L380.917 31.2867C380.373 31.4074 379.808 31.3955 379.27 31.2518C379.18 31.2284 379.086 31.2332 378.999 31.2654C378.913 31.2977 378.838 31.3558 378.786 31.4319C378.734 31.5079 378.707 31.5982 378.708 31.6903C378.71 31.7824 378.74 31.8718 378.794 31.9462C379.511 32.9235 380.447 33.7206 381.528 34.2741C382.608 34.8275 383.804 35.122 385.019 35.134C386.743 35.1236 388.484 34.5316 390.162 34.9266C390.811 35.0794 391.417 35.375 391.937 35.7918C392.456 36.2086 392.875 36.7359 393.163 37.3351C393.451 37.9343 393.601 38.5902 393.602 39.2547C393.602 39.9191 393.454 40.5753 393.166 41.1749C393.682 40.6133 394.678 40.7463 395.205 41.297C395.448 41.5918 395.627 41.9331 395.733 42.2998C395.838 42.6664 395.866 43.0507 395.816 43.4288C395.675 44.5867 395.33 45.7107 394.797 46.7489C396.835 46.6864 398.805 46.0021 400.441 44.7884C402.076 43.5747 403.299 41.89 403.943 39.962C404.587 38.034 404.621 35.9555 404.042 34.0074C403.462 32.0592 402.296 30.3352 400.702 29.0682H400.702Z" fill="#2F2E41"/>
<path d="M101.102 47.2577C108.547 43.761 114.396 37.5969 117.482 29.9946C117.787 29.2411 118.945 29.7526 118.64 30.5052C115.413 38.4104 109.314 44.8127 101.559 48.4345C100.819 48.7792 100.367 47.6005 101.102 47.2577L101.102 47.2577Z" fill="white"/>
<path d="M299.973 18.6882C307.418 15.1914 313.267 9.02733 316.353 1.425C316.658 0.67154 317.815 1.18306 317.511 1.93561C314.284 9.84079 308.185 16.2431 300.429 19.8649C299.69 20.2096 299.238 19.031 299.973 18.6881L299.973 18.6882Z" fill="white"/>
<path d="M75.8191 205.054L80.1881 208.425L97.175 211.362L116.056 164.6C116.056 164.6 127.618 128.561 159.992 135.934L264.053 134.091C264.053 134.091 296.003 130.828 301.283 145.841C302.283 148.685 329.264 211.505 329.264 211.505L348.181 208.845L345.914 155.287L300.985 51.3767L222.891 46.5183L142.418 52.0679L75.8191 205.054Z" fill="#3F3D56"/>
<path d="M162.305 139.159C178.908 139.159 192.367 125.749 192.367 109.207C192.367 92.6652 178.908 79.2552 162.305 79.2552C145.702 79.2552 132.243 92.6652 132.243 109.207C132.243 125.749 145.702 139.159 162.305 139.159Z" fill="#2F2E41"/>
<path d="M263.128 139.159C279.731 139.159 293.19 125.749 293.19 109.207C293.19 92.6652 279.731 79.2552 263.128 79.2552C246.525 79.2552 233.066 92.6652 233.066 109.207C233.066 125.749 246.525 139.159 263.128 139.159Z" fill="#2F2E41"/>
<path d="M127.156 11.0567L139.534 8.63838C139.534 8.63838 232.727 -4.6106 291.633 11.0567L287.178 23.4983L131.318 22.5767L127.156 11.0567Z" fill="#E6E6E6"/>
<path d="M252.809 75.3383H173.719C164.116 75.3383 155.817 68.7131 153.985 59.5851L145.33 16.4523C145.138 15.511 145.146 14.5403 145.352 13.6021C145.558 12.6639 145.959 11.779 146.528 11.0036C147.123 10.1902 147.879 9.50738 148.75 8.99751C149.621 8.48764 150.588 8.16162 151.591 8.0397C193.304 2.88089 234.609 2.87211 274.359 8.01292C275.348 8.13358 276.302 8.45569 277.16 8.95921C278.019 9.46273 278.764 10.1369 279.35 10.9397C279.915 11.7039 280.316 12.5757 280.529 13.501C280.741 14.4264 280.761 15.3854 280.585 16.3184L272.595 59.3189C270.871 68.6011 262.549 75.3383 252.809 75.3383Z" fill="#7722FC"/>
<path d="M91.9739 18.0788L92.3183 11.9064C92.3719 10.9448 92.6587 10.0105 93.1539 9.18338C93.6492 8.3563 94.3382 7.6611 95.1621 7.1573C100.156 4.10495 113.626 -2.61537 130.817 0.90746C132.024 1.1564 133.125 1.76966 133.97 2.66387C134.815 3.55809 135.363 4.68988 135.54 5.9054L136 9.11706L91.9739 18.0788Z" fill="#3F3D56"/>
<path d="M334.384 18.0789L290.358 9.11708L291.098 3.95737C291.183 3.34809 291.449 2.77814 291.862 2.32082C292.275 1.86349 292.816 1.53969 293.415 1.39104C313.24 -3.56595 328.415 5.23698 332.593 8.05309C332.99 8.32134 333.319 8.67684 333.556 9.0921C333.793 9.50735 333.93 9.97126 333.959 10.448L334.384 18.0789Z" fill="#3F3D56"/>
<path d="M77.9952 209.079C76.9343 209.09 75.8923 208.798 74.9929 208.238C63.2045 201.379 55.8553 188.811 53.1659 170.892C50.9445 156.09 51.8722 137.512 55.923 115.672C63.105 76.9527 78.1576 38.2504 84.296 23.408C85.1092 21.4489 86.3728 19.7075 87.9852 18.3241C89.5975 16.9407 91.5134 15.954 93.5785 15.4434C106.233 12.3422 128.324 7.13977 134.093 7.13977C141.999 7.13977 146.277 14.5551 146.32 14.63L146.343 14.6912L153.287 44.6897V45.1226C157.117 58.0354 154.271 67.3632 151.207 72.9149C147.881 78.9408 143.578 81.9493 143.535 81.979C136.777 87.1045 125.768 103.616 114.812 125.065C103.426 147.355 94.9852 169.349 92.2337 183.9C88.866 201.709 83.9292 207.162 80.3808 208.599C79.6246 208.912 78.8142 209.075 77.9952 209.079Z" fill="#E6E6E6"/>
<path d="M250.202 71.6519H175.473C171.062 71.6458 166.791 70.1143 163.387 67.3188C159.984 64.5233 157.661 60.6374 156.814 56.3246L148.636 14.3751C148.454 13.4465 148.465 12.4907 148.669 11.5667C148.873 10.6427 149.264 9.77004 149.82 9.00273C150.375 8.23542 151.082 7.58971 151.898 7.10546C152.714 6.62122 153.62 6.30873 154.562 6.18729C193.978 1.17001 233.007 1.16145 270.566 6.16119C271.495 6.28712 272.388 6.59907 273.192 7.07824C273.997 7.5574 274.695 8.19386 275.246 8.94923C275.796 9.70461 276.188 10.5633 276.396 11.4734C276.605 12.3836 276.626 13.3264 276.459 14.245L268.91 56.0659C268.124 60.4384 265.819 64.396 262.398 67.2456C258.978 70.0951 254.661 71.655 250.202 71.6519Z" fill="#E6E6E6"/>
<path d="M348.364 209.08C347.545 209.076 346.734 208.913 345.977 208.599C342.429 207.162 337.492 201.709 334.124 183.9C331.373 169.349 322.932 147.355 311.547 125.065C300.59 103.616 289.581 87.1045 282.815 81.9729C282.78 81.9493 278.477 78.9408 275.151 72.9149C272.087 67.3632 269.241 58.0353 273.072 45.1226L273.077 44.6379L280.022 14.6589L280.038 14.6301C280.081 14.5551 284.359 7.13977 292.265 7.13977C298.034 7.13977 320.125 12.3422 332.78 15.4434C334.845 15.9541 336.761 16.9409 338.373 18.3243C339.985 19.7077 341.249 21.449 342.062 23.408C348.201 38.2504 363.253 76.9527 370.435 115.672C374.486 137.512 375.414 156.09 373.192 170.892C370.503 188.811 363.154 201.379 351.349 208.248C350.454 208.803 349.419 209.092 348.364 209.08Z" fill="#E6E6E6"/>
<path d="M162.305 122.11C172.267 122.11 180.342 114.064 180.342 104.138C180.342 94.2131 172.267 86.1671 162.305 86.1671C152.343 86.1671 144.268 94.2131 144.268 104.138C144.268 114.064 152.343 122.11 162.305 122.11Z" fill="#3F3D56"/>
<path d="M162.305 116.119C168.946 116.119 174.33 110.755 174.33 104.138C174.33 97.5216 168.946 92.1576 162.305 92.1576C155.664 92.1576 150.28 97.5216 150.28 104.138C150.28 110.755 155.664 116.119 162.305 116.119Z" fill="#2F2E41"/>
<path d="M263.128 122.11C273.09 122.11 281.165 114.064 281.165 104.138C281.165 94.2131 273.09 86.1671 263.128 86.1671C253.166 86.1671 245.091 94.2131 245.091 104.138C245.091 114.064 253.166 122.11 263.128 122.11Z" fill="#3F3D56"/>
<path d="M263.128 116.119C269.769 116.119 275.153 110.755 275.153 104.138C275.153 97.5216 269.769 92.1576 263.128 92.1576C256.487 92.1576 251.103 97.5216 251.103 104.138C251.103 110.755 256.487 116.119 263.128 116.119Z" fill="#2F2E41"/>
<path d="M201.617 82.4808C202.383 82.4808 203.004 81.8618 203.004 81.0983C203.004 80.3349 202.383 79.7159 201.617 79.7159C200.85 79.7159 200.229 80.3349 200.229 81.0983C200.229 81.8618 200.85 82.4808 201.617 82.4808Z" fill="#2F2E41"/>
<path d="M207.629 82.4808C208.395 82.4808 209.017 81.8618 209.017 81.0983C209.017 80.3349 208.395 79.7159 207.629 79.7159C206.863 79.7159 206.242 80.3349 206.242 81.0983C206.242 81.8618 206.863 82.4808 207.629 82.4808Z" fill="#2F2E41"/>
<path d="M204.854 87.5495C205.621 87.5495 206.242 86.9306 206.242 86.1671C206.242 85.4036 205.621 84.7847 204.854 84.7847C204.088 84.7847 203.467 85.4036 203.467 86.1671C203.467 86.9306 204.088 87.5495 204.854 87.5495Z" fill="#2F2E41"/>
<path d="M210.404 87.5495C211.17 87.5495 211.792 86.9306 211.792 86.1671C211.792 85.4036 211.17 84.7847 210.404 84.7847C209.638 84.7847 209.017 85.4036 209.017 86.1671C209.017 86.9306 209.638 87.5495 210.404 87.5495Z" fill="#2F2E41"/>
<path d="M215.954 87.5495C216.72 87.5495 217.341 86.9306 217.341 86.1671C217.341 85.4036 216.72 84.7847 215.954 84.7847C215.188 84.7847 214.566 85.4036 214.566 86.1671C214.566 86.9306 215.188 87.5495 215.954 87.5495Z" fill="#2F2E41"/>
<path d="M221.504 87.5495C222.27 87.5495 222.891 86.9306 222.891 86.1671C222.891 85.4036 222.27 84.7847 221.504 84.7847C220.738 84.7847 220.116 85.4036 220.116 86.1671C220.116 86.9306 220.738 87.5495 221.504 87.5495Z" fill="#2F2E41"/>
<path d="M213.641 82.4808C214.408 82.4808 215.029 81.8618 215.029 81.0983C215.029 80.3349 214.408 79.7159 213.641 79.7159C212.875 79.7159 212.254 80.3349 212.254 81.0983C212.254 81.8618 212.875 82.4808 213.641 82.4808Z" fill="#2F2E41"/>
<path d="M219.654 82.4808C220.42 82.4808 221.041 81.8618 221.041 81.0983C221.041 80.3349 220.42 79.7159 219.654 79.7159C218.888 79.7159 218.266 80.3349 218.266 81.0983C218.266 81.8618 218.888 82.4808 219.654 82.4808Z" fill="#2F2E41"/>
<path d="M225.666 82.4808C226.432 82.4808 227.054 81.8618 227.054 81.0983C227.054 80.3349 226.432 79.7159 225.666 79.7159C224.9 79.7159 224.279 80.3349 224.279 81.0983C224.279 81.8618 224.9 82.4808 225.666 82.4808Z" fill="#2F2E41"/>
<path d="M219.191 123.722H207.167C206.615 123.722 206.085 123.504 205.695 123.115C205.305 122.726 205.085 122.199 205.085 121.649C205.085 121.099 205.305 120.572 205.695 120.183C206.085 119.794 206.615 119.575 207.167 119.575H219.191C219.743 119.575 220.273 119.794 220.663 120.183C221.053 120.572 221.273 121.099 221.273 121.649C221.273 122.199 221.053 122.726 220.663 123.115C220.273 123.504 219.743 123.722 219.191 123.722Z" fill="#2F2E41"/>
<path d="M139.571 33.5833C138.795 33.5812 138.042 33.3186 137.434 32.8379C136.826 32.3572 136.399 31.6865 136.221 30.934L134.376 23.1334C134.168 22.2467 134.321 21.3138 134.802 20.5396C135.284 19.7654 136.054 19.2132 136.943 19.0044C137.833 18.7956 138.77 18.9472 139.547 19.426C140.325 19.9048 140.88 20.6715 141.09 21.5578L142.934 29.3583C143.053 29.8632 143.056 30.3884 142.942 30.8945C142.828 31.4005 142.601 31.8744 142.278 32.2807C141.954 32.6871 141.543 33.0153 141.074 33.2408C140.605 33.4664 140.091 33.5835 139.571 33.5833Z" fill="#3F3D56"/>
<path d="M287.25 33.1226C286.729 33.1228 286.215 33.0057 285.747 32.7801C285.278 32.5546 284.867 32.2264 284.543 31.8201C284.22 31.4137 283.993 30.9398 283.879 30.4338C283.765 29.9277 283.768 29.4025 283.886 28.8976L285.73 21.0971C285.941 20.2108 286.496 19.4441 287.273 18.9653C288.051 18.4865 288.987 18.3349 289.877 18.5437C290.767 18.7525 291.537 19.3047 292.018 20.0789C292.5 20.8531 292.653 21.7861 292.444 22.6727L290.6 30.4733C290.422 31.2258 289.994 31.8965 289.386 32.3772C288.778 32.8579 288.026 33.1205 287.25 33.1226Z" fill="#3F3D56"/>
<path d="M114.127 56.6084C112.992 56.6086 111.884 56.2605 110.955 55.6114L107.084 52.9116C106.356 52.4032 105.761 51.7275 105.35 50.9417C104.94 50.1558 104.725 49.283 104.725 48.397V40.1287C104.727 38.4683 105.39 36.8766 106.568 35.7025C107.746 34.5285 109.344 33.8681 111.01 33.8662H116.939C118.606 33.8681 120.203 34.5285 121.381 35.7025C122.56 36.8766 123.223 38.4683 123.224 40.1287V48.4782C123.223 49.3413 123.018 50.192 122.628 50.9623C122.237 51.7326 121.671 52.4011 120.974 52.9143L117.407 55.5331C116.457 56.2318 115.308 56.6086 114.127 56.6084Z" fill="#3F3D56"/>
<path d="M116.939 86.8583H111.01C109.344 86.8565 107.746 86.1961 106.568 85.022C105.39 83.848 104.727 82.2562 104.725 80.5959V72.3276C104.725 71.4416 104.94 70.5687 105.35 69.7829C105.761 68.997 106.356 68.3213 107.084 67.8129L110.955 65.1132C111.903 64.4511 113.036 64.1026 114.194 64.1166C115.352 64.1307 116.476 64.5066 117.407 65.1915L120.974 67.8102C121.671 68.3235 122.237 68.992 122.628 69.7623C123.018 70.5326 123.223 71.3833 123.224 72.2464V80.5959C123.223 82.2562 122.56 83.848 121.381 85.022C120.203 86.1961 118.605 86.8565 116.939 86.8583Z" fill="#3F3D56"/>
<path d="M135.439 69.5784H127.14C126.251 69.5781 125.375 69.3643 124.586 68.9551C123.797 68.5459 123.119 67.9535 122.609 67.2278L119.899 63.3711C119.235 62.4264 118.885 61.2976 118.899 60.144C118.913 58.9905 119.291 57.8705 119.978 56.9422L122.606 53.3883C123.121 52.6944 123.792 52.1302 124.566 51.7409C125.339 51.3516 126.192 51.148 127.059 51.1464H135.439C137.105 51.1483 138.703 51.8086 139.881 52.9827C141.06 54.1567 141.722 55.7485 141.724 57.4088V63.316C141.722 64.9763 141.06 66.5681 139.881 67.7421C138.703 68.9161 137.105 69.5765 135.439 69.5784Z" fill="#3F3D56"/>
<path d="M100.347 69.5784H92.0481C90.3817 69.5765 88.7841 68.9161 87.6057 67.7421C86.4274 66.5681 85.7646 64.9763 85.7627 63.316V57.4088C85.7646 55.7485 86.4274 54.1567 87.6057 52.9827C88.7841 51.8086 90.3817 51.1483 92.0481 51.1464H100.428C101.294 51.148 102.148 51.3516 102.921 51.7409C103.695 52.1302 104.366 52.6944 104.881 53.3883L107.509 56.9422C108.196 57.8705 108.574 58.9905 108.588 60.144C108.602 61.2976 108.252 62.4264 107.588 63.3711L104.878 67.2278C104.368 67.9535 103.69 68.5459 102.901 68.9551C102.112 69.3643 101.236 69.5781 100.347 69.5784Z" fill="#3F3D56"/>
<path d="M312.615 47.4599C318.489 47.4599 323.252 42.7148 323.252 36.8615C323.252 31.0081 318.489 26.2631 312.615 26.2631C306.74 26.2631 301.977 31.0081 301.977 36.8615C301.977 42.7148 306.74 47.4599 312.615 47.4599Z" fill="#3F3D56"/>
<path d="M336.201 71.8823C342.076 71.8823 346.839 67.1372 346.839 61.2838C346.839 55.4305 342.076 50.6854 336.201 50.6854C330.327 50.6854 325.564 55.4305 325.564 61.2838C325.564 67.1372 330.327 71.8823 336.201 71.8823Z" fill="#3F3D56"/>
<path d="M312.615 94.9225C318.489 94.9225 323.252 90.1774 323.252 84.324C323.252 78.4707 318.489 73.7256 312.615 73.7256C306.74 73.7256 301.977 78.4707 301.977 84.324C301.977 90.1774 306.74 94.9225 312.615 94.9225Z" fill="#3F3D56"/>
<path d="M289.027 71.4216C294.902 71.4216 299.665 66.6765 299.665 60.8232C299.665 54.9698 294.902 50.2247 289.027 50.2247C283.153 50.2247 278.39 54.9698 278.39 60.8232C278.39 66.6765 283.153 71.4216 289.027 71.4216Z" fill="#3F3D56"/>
<path d="M336.202 68.196C334.829 68.196 333.488 67.7906 332.347 67.0311C331.206 66.2716 330.317 65.1921 329.792 63.9291C329.267 62.6661 329.13 61.2763 329.397 59.9355C329.665 58.5947 330.326 57.3631 331.296 56.3964C332.266 55.4298 333.502 54.7715 334.848 54.5048C336.194 54.2381 337.589 54.3749 338.856 54.8981C340.124 55.4212 341.207 56.3072 341.97 57.4438C342.732 58.5805 343.139 59.9169 343.139 61.284C343.137 63.1165 342.405 64.8734 341.105 66.1692C339.804 67.465 338.041 68.1939 336.202 68.196ZM336.202 55.2935C335.012 55.2935 333.85 55.6449 332.861 56.3031C331.872 56.9614 331.102 57.8969 330.647 58.9915C330.192 60.0861 330.073 61.2906 330.305 62.4526C330.537 63.6147 331.109 64.682 331.95 65.5198C332.791 66.3576 333.862 66.9281 335.029 67.1593C336.195 67.3904 337.404 67.2718 338.502 66.8184C339.601 66.365 340.54 65.5972 341.201 64.612C341.861 63.6269 342.214 62.4687 342.214 61.284C342.212 59.6957 341.578 58.1731 340.451 57.05C339.324 55.927 337.796 55.2953 336.202 55.2935Z" fill="#E6E6E6"/>
<path d="M320.048 42.0038L306.106 41.8074L313.248 29.8759L320.048 42.0038ZM307.721 40.9083L318.459 41.0597L313.222 31.7191L307.721 40.9083Z" fill="#E6E6E6"/>
<path d="M294.577 66.3527H283.478V55.2935H294.577V66.3527ZM284.403 65.4311H293.652V56.2151H284.403V65.4311Z" fill="#E6E6E6"/>
<path d="M318.354 89.0822L313.269 84.0253L317.754 79.5657L317.1 78.9132L312.614 83.3738L308.129 78.9132L307.475 79.5657L311.96 84.0253L306.875 89.0822L307.528 89.7346L312.614 84.6764L317.701 89.7346L318.354 89.0822Z" fill="#E6E6E6"/>
<path opacity="0.2" d="M401.182 88.7015L383.23 102.163L403.494 93.3095L401.182 88.7015Z" fill="black"/>
<path d="M69.1133 105.29L46.4512 106.212L43.6763 91.0056L63.1009 85.0151L69.1133 105.29Z" fill="#A0616A"/>
<path d="M60.7812 68.0227L55.7266 62.8948L61.9242 53.453L72.5319 35.8601C72.1853 35.1022 72.0778 34.2573 72.2236 33.4372C72.3694 32.6172 72.7617 31.8605 73.3485 31.2674C73.9354 30.6742 74.6891 30.2726 75.51 30.1155C76.3309 29.9585 77.1804 30.0535 77.9459 30.3879C78.7115 30.7223 79.3572 31.2804 79.7974 31.9884C80.2377 32.6963 80.4519 33.5208 80.4117 34.3527C80.3715 35.1846 80.0787 35.9847 79.5722 36.6472C79.0656 37.3097 78.3691 37.8034 77.5749 38.063L68.8191 56.8449L60.7812 68.0227Z" fill="#A0616A"/>
<path d="M55.182 79.7292C54.5885 80.6449 53.7429 81.371 52.7462 81.8206C51.7496 82.2702 50.6441 82.4244 49.5618 82.2646C48.5317 82.1435 47.5595 81.7253 46.7646 81.0614C45.9697 80.3975 45.3867 79.5168 45.0872 78.5274C44.8665 77.8251 44.8022 77.0834 44.8989 76.3539C44.9955 75.6244 45.2507 74.9246 45.6466 74.3035C49.028 68.624 55.2645 61.1235 55.327 61.0486L55.4263 60.9293L65.9449 63.1999L55.182 79.7292Z" fill="#FFC768"/>
<path d="M63.7118 205.418L69.9966 205.418L72.9862 181.265L63.7104 181.265L63.7118 205.418Z" fill="#A0616A"/>
<path d="M62.1084 203.374L74.4855 203.373H74.486C76.5779 203.374 78.5841 204.202 80.0633 205.675C81.5425 207.149 82.3735 209.148 82.3737 211.232V211.488L62.1088 211.488L62.1084 203.374Z" fill="#2F2E41"/>
<path d="M14.7756 202.708L20.9897 203.643L27.57 180.208L19.4237 178.826L14.7756 202.708Z" fill="#A0616A"/>
<path d="M13.4971 200.448L25.7352 202.29L25.7357 202.291C27.8041 202.602 29.6635 203.72 30.905 205.397C32.1464 207.075 32.6683 209.175 32.3557 211.236L32.3174 211.488L12.28 208.471L13.4971 200.448Z" fill="#2F2E41"/>
<path d="M45.526 101.604L67.2631 97.9176L73.9889 111.731L74.2452 201.88L62.3152 201.806L57.3282 128.841L25.5447 196.262L12.7288 194.73L40.6675 122.457C40.6675 122.457 39.1296 109.688 43.9996 103.303L45.526 101.604Z" fill="#2F2E41"/>
<path d="M37.4565 74.3896C37.1243 73.3953 37.089 72.3262 37.3549 71.3123C37.6208 70.2984 38.1765 69.3832 38.9545 68.6779L42.0437 65.8802L50.7529 64.4183L56.1984 63.4321L64.9508 88.7016L43.6933 98.4324C41.8277 98.0311 41.0825 97.0144 42.1681 94.9927L37.4565 74.3896Z" fill="#FFC768"/>
<path d="M56.9656 82.9162L63.0466 79.0497L71.036 87.0442L86.1173 101.024C86.9332 100.843 87.7851 100.913 88.5602 101.224C89.3353 101.536 89.9972 102.075 90.4582 102.77C90.9193 103.465 91.1578 104.282 91.1422 105.115C91.1266 105.948 90.8576 106.756 90.3709 107.433C89.8841 108.11 89.2025 108.624 88.4163 108.907C87.63 109.19 86.7761 109.228 85.9675 109.017C85.159 108.805 84.4338 108.355 83.888 107.724C83.3423 107.093 83.0016 106.312 82.911 105.484L66.2791 93.0637L56.9656 82.9162Z" fill="#A0616A"/>
<path d="M46.6284 75.0359C45.852 74.268 45.314 73.2936 45.0786 72.2292C44.8433 71.1647 44.9207 70.0552 45.3014 69.0334C45.6337 68.0545 46.2455 67.1935 47.0618 66.556C47.8781 65.9185 48.8634 65.5323 49.8968 65.4446C50.632 65.3748 51.3737 65.4655 52.07 65.7106C52.7664 65.9557 53.4007 66.3492 53.9287 66.8636C58.8062 71.3345 64.8814 78.9656 64.9421 79.0419L65.0386 79.1634L60.6332 88.947L46.6284 75.0359Z" fill="#FFC768"/>
<path d="M46.9307 61.3439C52.2106 61.3439 56.4908 57.0794 56.4908 51.8188C56.4908 46.5581 52.2106 42.2936 46.9307 42.2936C41.6508 42.2936 37.3706 46.5581 37.3706 51.8188C37.3706 57.0794 41.6508 61.3439 46.9307 61.3439Z" fill="#A0616A"/>
<path d="M39.1905 65.3885C37.708 65.3882 36.2269 65.2983 34.7553 65.1191L34.5535 65.0946L33.0136 56.7651C32.3605 53.2341 33.0887 49.5879 35.0487 46.5749C37.0087 43.562 40.0519 41.4108 43.5536 40.5629C43.7872 40.5039 44.0327 40.5103 44.263 40.5813C44.4932 40.6524 44.6994 40.7853 44.8587 40.9655L45.226 40.8379C46.6321 40.3494 48.121 40.1416 49.6077 40.2263C51.0944 40.3111 52.5498 40.6868 53.8908 41.332C55.2318 41.9772 56.4321 42.8793 57.4232 43.9867C58.4143 45.0941 59.1767 46.3851 59.667 47.7861L59.758 48.0464L57.3072 48.8978C56.5435 49.1632 55.8488 49.5948 55.2736 50.1612C54.6984 50.7277 54.2572 51.4148 53.982 52.1725C53.7068 52.9302 53.6046 53.7395 53.6829 54.5416C53.7611 55.3436 54.0177 56.1182 54.4342 56.8089L56.94 60.9654L56.6732 61.0986C51.2648 63.8769 45.2754 65.3466 39.1905 65.3885Z" fill="#2F2E41"/>
<path d="M367.633 105.248C367.743 104.716 367.97 104.214 368.296 103.778C368.622 103.342 369.041 102.983 369.522 102.725C370.002 102.468 370.534 102.319 371.079 102.288C371.624 102.258 372.169 102.347 372.676 102.549L381.37 92.5645L383.23 99.179L374.688 107.646C374.291 108.472 373.604 109.124 372.757 109.478C371.909 109.833 370.961 109.865 370.091 109.57C369.222 109.274 368.491 108.671 368.038 107.874C367.585 107.078 367.44 106.144 367.633 105.248H367.633Z" fill="#FFB6B6"/>
<path d="M406.431 61.3526L409.994 61.1606L410.53 63.4166C410.53 63.4166 410.477 66.3052 407.229 72.3096C403.982 78.314 378.817 105.047 378.817 105.047L373.367 98.8848L386.837 85.0606L394.995 70.5714L406.431 61.3526Z" fill="#7722FC"/>
</g>
<defs>
<clipPath id="clip0_1240_6044">
<rect width="424" height="212" fill="white"/>
</clipPath>
</defs>
</svg>
