<svg width="330" height="266" viewBox="0 0 330 266" fill="none" xmlns="http://www.w3.org/2000/svg">
<path d="M197.094 199.412V263.534H36.7028C18.4284 263.534 3.56018 249.151 3.56018 231.473C3.56018 213.795 18.4284 199.412 36.7028 199.412H197.094Z" fill="white" fill-opacity="0.1"/>
<path d="M201.034 263.04C201.033 263.694 200.774 264.322 200.312 264.784C199.851 265.247 199.224 265.506 198.571 265.507H33.8461C24.8996 265.507 16.3195 261.947 9.99333 255.611C3.66717 249.274 0.113159 240.68 0.113159 231.719C0.113159 222.759 3.66717 214.165 9.99333 207.828C16.3195 201.492 24.8996 197.932 33.8461 197.932H198.571C199.225 197.932 199.851 198.192 200.313 198.655C200.774 199.117 201.034 199.744 201.034 200.398C201.034 201.052 200.774 201.68 200.313 202.142C199.851 202.605 199.225 202.865 198.571 202.865H33.8461C26.2057 202.865 18.8781 205.905 13.4755 211.316C8.07285 216.727 5.03768 224.067 5.03768 231.719C5.03768 239.372 8.07285 246.712 13.4755 252.123C18.8781 257.534 26.2057 260.574 33.8461 260.574H198.571C199.224 260.575 199.851 260.834 200.312 261.297C200.774 261.759 201.033 262.386 201.034 263.04Z" fill="#7722FC"/>
<path d="M197.094 214.209H24.7356C24.605 214.209 24.4798 214.157 24.3874 214.065C24.2951 213.972 24.2432 213.847 24.2432 213.716C24.2432 213.585 24.2951 213.46 24.3874 213.367C24.4798 213.275 24.605 213.223 24.7356 213.223H197.094C197.225 213.223 197.35 213.275 197.442 213.367C197.535 213.46 197.586 213.585 197.586 213.716C197.586 213.847 197.535 213.972 197.442 214.065C197.35 214.157 197.225 214.209 197.094 214.209Z" fill="#0E0D1C"/>
<path d="M197.094 226.047H24.7356C24.605 226.047 24.4798 225.995 24.3874 225.903C24.2951 225.81 24.2432 225.685 24.2432 225.554C24.2432 225.423 24.2951 225.298 24.3874 225.205C24.4798 225.113 24.605 225.061 24.7356 225.061H197.094C197.225 225.061 197.35 225.113 197.442 225.205C197.535 225.298 197.586 225.423 197.586 225.554C197.586 225.685 197.535 225.81 197.442 225.903C197.35 225.995 197.225 226.047 197.094 226.047Z" fill="#0E0D1C"/>
<path d="M197.094 237.885H24.7356C24.605 237.885 24.4798 237.833 24.3874 237.741C24.2951 237.648 24.2432 237.523 24.2432 237.392C24.2432 237.261 24.2951 237.136 24.3874 237.043C24.4798 236.951 24.605 236.899 24.7356 236.899H197.094C197.225 236.899 197.35 236.951 197.442 237.043C197.535 237.136 197.586 237.261 197.586 237.392C197.586 237.523 197.535 237.648 197.442 237.741C197.35 237.833 197.225 237.885 197.094 237.885Z" fill="#0E0D1C"/>
<path d="M197.094 249.723H24.7356C24.605 249.723 24.4798 249.671 24.3874 249.578C24.2951 249.486 24.2432 249.36 24.2432 249.23C24.2432 249.099 24.2951 248.973 24.3874 248.881C24.4798 248.788 24.605 248.736 24.7356 248.736H197.094C197.225 248.736 197.35 248.788 197.442 248.881C197.535 248.973 197.586 249.099 197.586 249.23C197.586 249.36 197.535 249.486 197.442 249.578C197.35 249.671 197.225 249.723 197.094 249.723Z" fill="#0E0D1C"/>
<path d="M321.053 211.482L280.886 261.413L155.993 160.618C141.763 149.134 139.195 128.59 150.269 114.825C161.342 101.059 181.93 99.2032 196.16 110.687L321.053 211.482Z" fill="white" fill-opacity="0.1"/>
<path d="M284.263 263.504C283.853 264.013 283.258 264.339 282.609 264.408C281.96 264.478 281.309 264.287 280.801 263.877L152.532 160.359C145.566 154.737 141.114 146.573 140.157 137.663C139.201 128.754 141.817 119.828 147.43 112.851C153.043 105.873 161.194 101.414 170.089 100.456C178.984 99.4975 187.895 102.118 194.862 107.74L323.13 211.258C323.382 211.461 323.592 211.712 323.747 211.997C323.902 212.281 324 212.593 324.034 212.915C324.069 213.237 324.04 213.563 323.949 213.874C323.858 214.185 323.707 214.475 323.504 214.727C323.301 214.979 323.05 215.189 322.766 215.344C322.482 215.499 322.171 215.597 321.849 215.632C321.527 215.666 321.202 215.637 320.892 215.546C320.581 215.454 320.292 215.303 320.04 215.099L191.772 111.581C188.826 109.201 185.441 107.427 181.811 106.358C178.18 105.289 174.375 104.948 170.613 105.352C166.85 105.757 163.204 106.9 159.883 108.716C156.561 110.533 153.63 112.987 151.256 115.938C148.881 118.889 147.111 122.28 146.045 125.917C144.98 129.554 144.64 133.366 145.046 137.134C145.451 140.902 146.594 144.554 148.408 147.88C150.223 151.206 152.674 154.141 155.622 156.518L283.89 260.036C284.399 260.447 284.723 261.043 284.793 261.693C284.863 262.343 284.672 262.995 284.263 263.504Z" fill="#FFC768"/>
<path d="M311.784 223.004L177.572 114.689C177.521 114.649 177.479 114.598 177.448 114.542C177.417 114.485 177.398 114.422 177.391 114.358C177.384 114.294 177.39 114.228 177.408 114.166C177.426 114.104 177.457 114.046 177.497 113.996C177.538 113.945 177.588 113.903 177.645 113.872C177.701 113.841 177.764 113.822 177.828 113.815C177.892 113.808 177.957 113.814 178.019 113.832C178.081 113.85 178.139 113.88 178.19 113.921L312.402 222.236C312.452 222.277 312.494 222.327 312.525 222.384C312.556 222.441 312.576 222.503 312.583 222.568C312.59 222.632 312.584 222.697 312.566 222.76C312.548 222.822 312.517 222.88 312.477 222.93C312.436 222.981 312.386 223.023 312.329 223.054C312.272 223.085 312.21 223.104 312.146 223.111C312.081 223.118 312.016 223.112 311.954 223.094C311.892 223.076 311.834 223.045 311.784 223.004V223.004Z" fill="#0E0D1C"/>
<path d="M304.368 232.222L170.156 123.907C170.055 123.825 169.99 123.706 169.976 123.576C169.962 123.446 170 123.316 170.082 123.214C170.164 123.112 170.283 123.047 170.413 123.033C170.542 123.019 170.672 123.057 170.774 123.139L304.986 231.454C305.037 231.495 305.079 231.545 305.11 231.602C305.141 231.659 305.16 231.721 305.167 231.786C305.174 231.85 305.168 231.915 305.15 231.978C305.132 232.04 305.102 232.098 305.061 232.148C305.02 232.199 304.97 232.241 304.914 232.272C304.857 232.303 304.794 232.322 304.73 232.329C304.666 232.336 304.601 232.33 304.538 232.312C304.476 232.294 304.419 232.263 304.368 232.222Z" fill="#0E0D1C"/>
<path d="M296.953 241.44L162.741 133.125C162.639 133.043 162.574 132.924 162.56 132.794C162.546 132.664 162.584 132.533 162.666 132.432C162.748 132.33 162.867 132.265 162.997 132.251C163.127 132.237 163.257 132.275 163.359 132.357L297.571 240.672C297.621 240.713 297.663 240.763 297.694 240.82C297.725 240.877 297.745 240.939 297.751 241.004C297.758 241.068 297.753 241.133 297.734 241.195C297.716 241.257 297.686 241.315 297.645 241.366C297.605 241.416 297.555 241.458 297.498 241.489C297.441 241.52 297.379 241.54 297.315 241.547C297.25 241.554 297.185 241.548 297.123 241.53C297.061 241.511 297.003 241.481 296.953 241.44V241.44Z" fill="#0E0D1C"/>
<path d="M289.538 250.658L155.326 142.343C155.275 142.302 155.233 142.252 155.202 142.195C155.171 142.139 155.152 142.076 155.145 142.012C155.138 141.947 155.144 141.882 155.162 141.82C155.18 141.758 155.211 141.7 155.251 141.65C155.292 141.599 155.342 141.557 155.399 141.526C155.455 141.495 155.518 141.476 155.582 141.469C155.646 141.462 155.711 141.467 155.773 141.486C155.835 141.504 155.893 141.534 155.944 141.575L290.156 249.89C290.206 249.931 290.248 249.981 290.279 250.038C290.31 250.095 290.33 250.157 290.337 250.222C290.344 250.286 290.338 250.351 290.32 250.413C290.301 250.476 290.271 250.534 290.231 250.584C290.19 250.635 290.14 250.677 290.083 250.708C290.026 250.739 289.964 250.758 289.899 250.765C289.835 250.772 289.77 250.766 289.708 250.748C289.646 250.729 289.588 250.699 289.538 250.658Z" fill="#0E0D1C"/>
<path d="M130.104 192.672L124.474 192.672L121.797 170.922L130.106 170.923L130.104 192.672Z" fill="#FFB8B8"/>
<path d="M120.453 191.061H131.31V197.908H113.617C113.617 197.009 113.794 196.118 114.137 195.287C114.481 194.457 114.984 193.702 115.619 193.066C116.254 192.43 117.007 191.926 117.837 191.582C118.666 191.238 119.555 191.061 120.453 191.061Z" fill="#2F2E41"/>
<path d="M72.5882 192.672L66.9585 192.672L64.281 170.922L72.5901 170.923L72.5882 192.672Z" fill="#FFB8B8"/>
<path d="M62.937 191.061H73.7945V197.908H56.1008C56.1008 197.009 56.2777 196.118 56.6212 195.287C56.9648 194.457 57.4683 193.702 58.1031 193.066C58.7379 192.43 59.4915 191.926 60.3209 191.582C61.1503 191.238 62.0393 191.061 62.937 191.061Z" fill="#2F2E41"/>
<path d="M91.3926 31.3374V28.8711C91.3926 24.6523 93.0658 20.6063 96.0442 17.6231C99.0226 14.6399 103.062 12.964 107.274 12.964H107.274C111.486 12.964 115.526 14.6399 118.504 17.6231C121.483 20.6063 123.156 24.6523 123.156 28.8711V31.3374C123.156 34.3789 121.949 37.2958 119.802 39.4465C117.655 41.5971 114.743 42.8053 111.706 42.8053H102.842C101.339 42.8053 99.8497 42.5087 98.4606 41.9324C97.0715 41.3561 95.8093 40.5114 94.7461 39.4465C93.6829 38.3816 92.8395 37.1173 92.2641 35.726C91.6887 34.3346 91.3926 32.8434 91.3926 31.3374Z" fill="#2F2E41"/>
<path d="M107.274 43.6539C113.954 43.6539 119.369 38.2301 119.369 31.5393C119.369 24.8486 113.954 19.4247 107.274 19.4247C100.594 19.4247 95.179 24.8486 95.179 31.5393C95.179 38.2301 100.594 43.6539 107.274 43.6539Z" fill="#FFB8B8"/>
<path d="M41.4842 73.1756C41.9751 72.7114 42.5616 72.3606 43.2024 72.148C43.8432 71.9353 44.5228 71.866 45.1933 71.9449C45.8637 72.0238 46.5088 72.249 47.083 72.6045C47.6572 72.9601 48.1465 73.4375 48.5166 74.003L58.885 72.0386L61.6136 78.0584L46.9325 80.6266C45.9428 81.1863 44.7825 81.3629 43.6715 81.123C42.5604 80.8832 41.5758 80.2434 40.9042 79.325C40.2326 78.4065 39.9208 77.2733 40.0277 76.1399C40.1346 75.0065 40.6528 73.9518 41.4842 73.1756V73.1756Z" fill="#FFB8B8"/>
<path d="M97.8443 51.2833L97.9799 51.4891L80.9776 62.7076L52.2881 71.8836C51.9078 72.006 51.5816 72.2566 51.365 72.5928C51.1485 72.929 51.0549 73.33 51.1003 73.7275L51.7262 79.1268C51.7539 79.3658 51.8312 79.5963 51.9531 79.8036C52.075 80.0109 52.2389 80.1904 52.4341 80.3306C52.6293 80.4707 52.8516 80.5685 53.0867 80.6176C53.3218 80.6667 53.5646 80.6661 53.7995 80.6157L80.8005 74.8187C82.1073 74.5398 83.3428 73.9949 84.4306 73.2179L103.532 59.6059C104.224 59.1097 104.777 58.4425 105.136 57.6692C105.495 56.8958 105.647 56.0426 105.58 55.1926C105.51 54.3413 105.219 53.523 104.738 52.8181C104.256 52.1132 103.6 51.5461 102.833 51.1724C102.066 50.7987 101.216 50.6314 100.365 50.6869C99.5136 50.7424 98.6918 51.0189 97.9798 51.4891L97.8443 51.2833Z" fill="#CCCCCC"/>
<path d="M124.575 186.5C124.143 186.5 123.72 186.374 123.358 186.138C122.997 185.901 122.711 185.564 122.538 185.168L96.7281 121.292C96.6678 121.154 96.5667 121.037 96.4382 120.958C96.3097 120.878 96.1601 120.84 96.0094 120.849C95.8588 120.857 95.7144 120.912 95.5956 121.005C95.4768 121.098 95.3893 121.226 95.345 121.37L74.2886 183.555C74.1997 183.845 74.0526 184.113 73.8564 184.343C73.6603 184.574 73.4191 184.761 73.1478 184.895C72.8765 185.028 72.5809 185.105 72.2789 185.12C71.977 185.135 71.6752 185.088 71.3922 184.981L64.3312 182.329C63.9479 182.187 63.6117 181.94 63.3598 181.618C63.108 181.295 62.9504 180.909 62.9045 180.502C59.728 152.785 87.4287 82.8248 87.709 82.1215L87.7865 81.9267L113.038 87.5215L113.091 87.5788C123.165 98.587 131.446 168.018 133.004 181.825C133.062 182.324 132.949 182.827 132.683 183.253C132.417 183.678 132.014 184.001 131.541 184.166L125.308 186.374C125.073 186.457 124.825 186.5 124.575 186.5Z" fill="#2F2E41"/>
<path d="M102.818 89.7734C96.7003 89.7734 89.8794 88.5516 87.7799 83.5088L87.7315 83.393L87.7968 83.2855C89.454 80.5621 91.6443 75.9163 90.4671 75.0442C88.148 73.3267 87.0227 70.5014 87.1226 66.6465C87.3395 58.2782 93.0322 50.8484 101.288 48.1585H101.288C103.593 47.4198 105.938 46.815 108.312 46.3471C110.043 45.9973 111.83 46.0358 113.544 46.4598C115.258 46.8837 116.857 47.6827 118.227 48.7993C119.613 49.9233 120.734 51.3408 121.508 52.9502C122.283 54.5595 122.692 56.3207 122.706 58.1072C122.793 67.0501 121.418 79.5058 114.378 88.0571C114.048 88.4539 113.588 88.7213 113.081 88.8124C109.694 89.4261 106.26 89.7476 102.818 89.7734Z" fill="#CCCCCC"/>
<path d="M100.542 89.4385C100.875 88.2422 101.666 87.2259 102.743 86.6104C103.82 85.9949 105.096 85.83 106.293 86.1515C106.538 86.2199 106.776 86.3084 107.006 86.4159L114.879 79.2398L120.354 82.9343L109.096 92.9131C108.587 93.8312 107.787 94.5526 106.822 94.9626C105.857 95.3725 104.783 95.4474 103.771 95.1755C103.181 95.0138 102.629 94.7367 102.147 94.3601C101.665 93.9835 101.262 93.5149 100.962 92.9814C100.662 92.448 100.47 91.8602 100.398 91.2521C100.326 90.6439 100.375 90.0275 100.542 89.4385Z" fill="#FFB8B8"/>
<path d="M113.632 89.5296C113.121 89.5299 112.626 89.353 112.231 89.0289L109.126 86.4878C108.867 86.2759 108.66 86.0082 108.519 85.7046C108.378 85.4011 108.308 85.0695 108.313 84.7348C108.318 84.4001 108.399 84.0708 108.549 83.7718C108.699 83.4727 108.915 83.2116 109.18 83.0078L122.201 73.0049C122.356 72.8858 122.457 72.7105 122.483 72.5171C122.509 72.3236 122.458 72.1277 122.341 71.9717L114.304 61.3294C113.37 60.0971 112.902 58.5736 112.982 57.0286C113.062 55.4837 113.685 54.0169 114.741 52.8879C115.853 51.6848 117.376 50.9444 119.008 50.8137C120.64 50.683 122.261 51.1715 123.55 52.1822L123.601 52.2359L131.993 64.2723C132.9 64.9849 133.631 65.8981 134.128 66.9404C134.625 67.9828 134.875 69.1261 134.857 70.281C134.84 71.4359 134.557 72.5712 134.029 73.5983C133.501 74.6253 132.744 75.5163 131.816 76.2016L114.951 89.0944C114.569 89.3771 114.107 89.5296 113.632 89.5296Z" fill="#CCCCCC"/>
<path d="M96.5603 28.1313V22.1205L107.274 17.4347L117.49 22.1205V28.1313C117.49 28.3929 117.386 28.6438 117.201 28.8288C117.016 29.0138 116.766 29.1178 116.505 29.1178H97.5452C97.284 29.1178 97.0335 29.0138 96.8488 28.8288C96.6641 28.6438 96.5603 28.3929 96.5603 28.1313Z" fill="#2F2E41"/>
<path d="M106.782 13.7613C105.207 8.71125 108.515 2.9236 113.406 0.924642C118.297 -1.07432 124.148 0.323017 128.275 3.6256C132.402 6.92818 134.962 11.8748 136.319 16.9882C137.676 22.1015 137.933 27.4335 138.184 32.7184C144.193 33.824 148.28 40.9627 146.199 46.7159C144.117 52.4691 136.412 55.3274 131.091 52.3203C125.77 49.3132 124.229 41.2299 128.07 36.4705C129.887 34.2185 130.902 31.4236 130.954 28.5285C131.006 25.6335 130.093 22.8037 128.358 20.4874C126.623 18.1711 124.166 16.5008 121.377 15.7408C118.587 14.9809 115.624 15.1749 112.957 16.292C109.996 17.5325 106.28 14.3095 106.782 13.7613Z" fill="#2F2E41"/>
<path d="M39.263 49.8586C32.0686 49.8113 24.9641 48.2528 18.4086 45.2838C18.0184 45.1096 17.6871 44.8255 17.4553 44.4661C17.2234 44.1066 17.1009 43.6874 17.1027 43.2595V25.2966C17.1033 24.7081 17.337 24.1439 17.7525 23.7278C18.1679 23.3117 18.7312 23.0776 19.3187 23.077H59.2073C59.7949 23.0776 60.3582 23.3117 60.7736 23.7278C61.189 24.1439 61.4227 24.7081 61.4234 25.2966V43.2596C61.4252 43.6875 61.3027 44.1067 61.0708 44.4661C60.8389 44.8255 60.5077 45.1096 60.1175 45.2838C53.5619 48.2528 46.4574 49.8113 39.263 49.8586Z" fill="#7722FC"/>
<path d="M39.2575 35.3064C38.9618 35.3067 38.6691 35.2477 38.3964 35.133L6.76525 21.7663C6.35734 21.5939 6.01032 21.3031 5.76895 20.9314C5.52758 20.5597 5.4029 20.124 5.41102 19.6807C5.41913 19.2373 5.55966 18.8066 5.81447 18.4439C6.06928 18.0813 6.42669 17.8035 6.84063 17.6462L38.4722 5.62693C38.9817 5.43245 39.545 5.43365 40.0536 5.6303L71.2614 17.6495C71.673 17.8081 72.028 18.086 72.281 18.4478C72.534 18.8095 72.6735 19.2386 72.6816 19.6803C72.6898 20.1219 72.5662 20.5559 72.3267 20.9267C72.0872 21.2976 71.7427 21.5885 71.3372 21.7622L40.1292 35.1287C39.8536 35.2462 39.5571 35.3067 39.2575 35.3064Z" fill="#7722FC"/>
<path d="M20.796 46.506C22.4279 46.506 23.7507 45.181 23.7507 43.5466C23.7507 41.9121 22.4279 40.5871 20.796 40.5871C19.1642 40.5871 17.8413 41.9121 17.8413 43.5466C17.8413 45.181 19.1642 46.506 20.796 46.506Z" fill="#3F3D56"/>
<path opacity="0.2" d="M71.4451 19.8648L40.2369 33.2313C39.9935 33.3355 39.7318 33.3896 39.4672 33.3902C39.2026 33.3908 38.9405 33.3381 38.6967 33.2351L7.06556 19.8687C6.66831 19.7048 6.33691 19.4131 6.12369 19.0395C5.98422 19.2818 5.89779 19.551 5.87015 19.8292C5.8425 20.1075 5.87427 20.3885 5.96335 20.6535C6.05243 20.9185 6.19678 21.1615 6.38681 21.3664C6.57685 21.5712 6.80821 21.7333 7.06556 21.8417L38.6967 35.208C38.9405 35.3111 39.2026 35.3638 39.4672 35.3632C39.7318 35.3625 39.9935 35.3085 40.2369 35.2043L71.4451 21.8378C71.7011 21.7284 71.9311 21.5659 72.1198 21.3609C72.3085 21.1559 72.4517 20.9132 72.5398 20.6488C72.628 20.3843 72.6592 20.1042 72.6313 19.8267C72.6034 19.5493 72.5171 19.281 72.378 19.0395C72.1664 19.4101 71.8384 19.7002 71.4451 19.8648Z" fill="black"/>
<path d="M21.0443 43.535C21.1749 43.535 21.3002 43.4831 21.3926 43.3905C21.4849 43.298 21.5368 43.1726 21.5368 43.0418V26.5371L37.7785 20.6107C37.9091 20.6126 38.0351 20.5625 38.1288 20.4714C38.2225 20.3803 38.2763 20.2556 38.2782 20.1248C38.2802 19.994 38.2302 19.8677 38.1392 19.7739C38.0482 19.68 37.9237 19.6262 37.7931 19.6242L21.5515 25.5506C21.4208 25.5476 21.2908 25.5712 21.1695 25.62C21.0481 25.6687 20.938 25.7417 20.8456 25.8343C20.7523 25.9259 20.6782 26.0352 20.6277 26.1559C20.5773 26.2766 20.5515 26.4062 20.5519 26.5371V43.0418C20.5519 43.1726 20.6038 43.298 20.6961 43.3905C20.7885 43.483 20.9137 43.535 21.0443 43.535Z" fill="#3F3D56"/>
</svg>
