<svg width="335" height="268" viewBox="0 0 335 268" fill="none" xmlns="http://www.w3.org/2000/svg">
<path d="M210.996 267.149L124.716 266.045L124.968 263.832L129.141 227.329H204.914L210.487 263.832L210.913 266.597L210.996 267.149Z" fill="#2F2E41"/>
<path opacity="0.1" d="M210.913 266.597H167.853L124.716 266.045L124.968 263.832H210.487L210.913 266.597Z" fill="black"/>
<path d="M224.825 264.384H110.335V267.149H224.825V264.384Z" fill="#3F3D56"/>
<path d="M334.061 8.08486C334.065 7.13935 333.883 6.20223 333.526 5.32699C333.168 4.45176 332.641 3.65555 331.976 2.98384C331.31 2.31212 330.519 1.77805 329.647 1.41211C328.775 1.04618 327.84 0.855545 326.895 0.851105H7.16628C6.22075 0.855545 5.28534 1.04618 4.41349 1.41211C3.54163 1.77805 2.75039 2.31212 2.08495 2.98384C1.41951 3.65555 0.892888 4.45176 0.535166 5.32699C0.177444 6.20223 -0.00438137 7.13935 8.01576e-05 8.08486V201.885H334.061V8.08486Z" fill="#3F3D56"/>
<path d="M0 199.954V222.652C0 224.553 0.755016 226.376 2.09894 227.719C3.44286 229.063 5.26561 229.818 7.1662 229.818H326.894C328.795 229.818 330.618 229.063 331.962 227.719C333.306 226.376 334.061 224.553 334.061 222.652V199.954H0Z" fill="#3F3D56"/>
<path d="M321.888 13.0187H13.8242V187.234H321.888V13.0187Z" fill="#161429"/>
<path opacity="0.1" d="M176.153 229.818L210.575 264.384L205.292 229.818H176.153Z" fill="black"/>
<path opacity="0.3" d="M37.7484 80.2286H27.5076V83.3371H37.7484V80.2286Z" fill="#7722FC"/>
<path opacity="0.3" d="M311.008 80.3206H300.767V83.429H311.008V80.3206Z" fill="#FFC768"/>
<path opacity="0.3" d="M37.8402 102.08H27.5994V105.188H37.8402V102.08Z" fill="#7722FC"/>
<path opacity="0.3" d="M37.9325 123.931H27.6917V127.04H37.9325V123.931Z" fill="#7722FC"/>
<path opacity="0.3" d="M38.0246 145.778H27.7837V148.886H38.0246V145.778Z" fill="#7722FC"/>
<g opacity="0.2">
<path opacity="0.2" d="M40.6535 81.7249H37.7483V81.8459H40.6535V81.7249Z" fill="#F2F2F2"/>
<path opacity="0.2" d="M291.969 81.8459H286.26V81.7249H291.969V81.8459ZM280.547 81.8459H274.838V81.7249H280.547V81.8459ZM269.124 81.8459H263.411V81.7249H269.124V81.8459ZM257.702 81.8459H251.989V81.7249H257.702V81.8459ZM246.28 81.8459H240.566V81.7249H246.28V81.8459ZM234.853 81.8459H229.144V81.7249H234.853V81.8459ZM223.43 81.8459H217.717V81.7249H223.43V81.8459ZM212.008 81.8459H206.294V81.7249H212.008V81.8459ZM200.586 81.8459H194.872V81.7249H200.586V81.8459ZM189.159 81.8459H183.45V81.7249H189.159V81.8459ZM177.736 81.8459H172.023V81.7249H177.736V81.8459ZM166.314 81.8459H160.6V81.7249H166.314V81.8459ZM154.892 81.8459H149.178V81.7249H154.892V81.8459ZM143.464 81.8459H137.756V81.7249H143.464V81.8459ZM132.042 81.8459H126.333V81.7249H132.042V81.8459ZM120.62 81.8459H114.926V81.7249H120.639L120.62 81.8459ZM109.197 81.8459H103.484V81.7249H109.197V81.8459ZM97.7703 81.8459H92.0616V81.7249H97.7703V81.8459ZM86.348 81.8459H80.6392V81.7249H86.3577L86.348 81.8459ZM74.9257 81.8459H69.2121V81.7249H74.9257V81.8459ZM63.5033 81.8459H57.7898V81.7249H63.5033V81.8459ZM52.0762 81.8459H46.3674V81.7249H52.0762V81.8459Z" fill="#F2F2F2"/>
<path opacity="0.2" d="M300.588 81.7248H297.683V81.8458H300.588V81.7248Z" fill="#F2F2F2"/>
<path opacity="0.2" d="M40.6535 81.7249H37.7483V81.8459H40.6535V81.7249Z" fill="#F2F2F2"/>
<path opacity="0.2" d="M291.969 81.8459H286.26V81.7249H291.969V81.8459ZM280.547 81.8459H274.838V81.7249H280.547V81.8459ZM269.124 81.8459H263.411V81.7249H269.124V81.8459ZM257.702 81.8459H251.989V81.7249H257.702V81.8459ZM246.28 81.8459H240.566V81.7249H246.28V81.8459ZM234.853 81.8459H229.144V81.7249H234.853V81.8459ZM223.43 81.8459H217.717V81.7249H223.43V81.8459ZM212.008 81.8459H206.294V81.7249H212.008V81.8459ZM200.586 81.8459H194.872V81.7249H200.586V81.8459ZM189.159 81.8459H183.45V81.7249H189.159V81.8459ZM177.736 81.8459H172.023V81.7249H177.736V81.8459ZM166.314 81.8459H160.6V81.7249H166.314V81.8459ZM154.892 81.8459H149.178V81.7249H154.892V81.8459ZM143.464 81.8459H137.756V81.7249H143.464V81.8459ZM132.042 81.8459H126.333V81.7249H132.042V81.8459ZM120.62 81.8459H114.926V81.7249H120.639L120.62 81.8459ZM109.197 81.8459H103.484V81.7249H109.197V81.8459ZM97.7703 81.8459H92.0616V81.7249H97.7703V81.8459ZM86.348 81.8459H80.6392V81.7249H86.3577L86.348 81.8459ZM74.9257 81.8459H69.2121V81.7249H74.9257V81.8459ZM63.5033 81.8459H57.7898V81.7249H63.5033V81.8459ZM52.0762 81.8459H46.3674V81.7249H52.0762V81.8459Z" fill="#F2F2F2"/>
<path opacity="0.2" d="M300.588 81.7248H297.683V81.8458H300.588V81.7248Z" fill="#F2F2F2"/>
</g>
<path opacity="0.3" d="M37.7484 58.4401H27.5076V61.5486H37.7484V58.4401Z" fill="#7722FC"/>
<path opacity="0.3" d="M311.008 58.5323H300.767V61.6408H311.008V58.5323Z" fill="#FFC768"/>
<g opacity="0.2">
<path opacity="0.2" d="M40.6535 59.9363H37.7483V60.0574H40.6535V59.9363Z" fill="#F2F2F2"/>
<path opacity="0.2" d="M291.969 60.0574H286.26V59.9363H291.969V60.0574ZM280.547 60.0574H274.838V59.9363H280.547V60.0574ZM269.124 60.0574H263.411V59.9363H269.124V60.0574ZM257.702 60.0574H251.989V59.9363H257.702V60.0574ZM246.28 60.0574H240.566V59.9363H246.28V60.0574ZM234.853 60.0574H229.144V59.9363H234.853V60.0574ZM223.43 60.0574H217.717V59.9363H223.43V60.0574ZM212.008 60.0574H206.294V59.9363H212.008V60.0574ZM200.586 60.0574H194.872V59.9363H200.586V60.0574ZM189.159 60.0574H183.45V59.9363H189.159V60.0574ZM177.736 60.0574H172.023V59.9363H177.736V60.0574ZM166.314 60.0574H160.6V59.9363H166.314V60.0574ZM154.892 60.0574H149.178V59.9363H154.892V60.0574ZM143.464 60.0574H137.756V59.9363H143.464V60.0574ZM132.042 60.0574H126.333V59.9363H132.042V60.0574ZM120.62 60.0574H114.926V59.9363H120.639L120.62 60.0574ZM109.197 60.0574H103.484V59.9363H109.197V60.0574ZM97.7703 60.0574H92.0616V59.9363H97.7703V60.0574ZM86.348 60.0574H80.6392V59.9363H86.3577L86.348 60.0574ZM74.9257 60.0574H69.2121V59.9363H74.9257V60.0574ZM63.5033 60.0574H57.7898V59.9363H63.5033V60.0574ZM52.0762 60.0574H46.3674V59.9363H52.0762V60.0574Z" fill="#F2F2F2"/>
<path opacity="0.2" d="M300.588 59.9363H297.683V60.0574H300.588V59.9363Z" fill="#F2F2F2"/>
</g>
<path opacity="0.3" d="M311.008 102.08H300.767V105.188H311.008V102.08Z" fill="#FFC768"/>
<g opacity="0.2">
<path opacity="0.2" d="M40.6538 103.484H37.7485V103.605H40.6538V103.484Z" fill="#F2F2F2"/>
<path opacity="0.2" d="M291.969 103.6H286.261V103.479H291.969V103.6ZM280.547 103.6H274.838V103.479H280.547V103.6ZM269.125 103.6H263.411V103.479H269.125V103.6ZM257.702 103.6H251.989V103.479H257.702V103.6ZM246.28 103.6H240.566V103.479H246.28V103.6ZM234.853 103.6H229.144V103.479H234.853V103.6ZM223.431 103.6H217.717V103.479H223.431V103.6ZM212.008 103.6H206.295V103.479H212.008V103.6ZM200.586 103.6H194.872V103.479H200.586V103.6ZM189.159 103.6H183.45V103.479H189.159V103.6ZM177.736 103.6H172.023V103.479H177.736V103.6ZM166.314 103.6H160.601V103.479H166.314V103.6ZM154.892 103.6H149.178V103.479H154.892V103.6ZM143.465 103.6H137.756V103.479H143.465V103.6ZM132.042 103.6H126.334V103.479H132.042V103.6ZM120.62 103.6H114.926V103.479H120.639L120.62 103.6ZM109.198 103.6H103.484V103.479H109.198V103.6ZM97.7705 103.6H92.0618V103.479H97.7705V103.6ZM86.3482 103.6H80.6395V103.479H86.3579L86.3482 103.6ZM74.9259 103.6H69.2123V103.479H74.9259V103.6ZM63.5036 103.6H57.79V103.479H63.5036V103.6ZM52.0764 103.6H46.3677V103.479H52.0764V103.6Z" fill="#F2F2F2"/>
<path opacity="0.2" d="M300.588 103.484H297.683V103.605H300.588V103.484Z" fill="#F2F2F2"/>
<path opacity="0.2" d="M40.6538 103.484H37.7485V103.605H40.6538V103.484Z" fill="#F2F2F2"/>
<path opacity="0.2" d="M291.969 103.6H286.261V103.479H291.969V103.6ZM280.547 103.6H274.838V103.479H280.547V103.6ZM269.125 103.6H263.411V103.479H269.125V103.6ZM257.702 103.6H251.989V103.479H257.702V103.6ZM246.28 103.6H240.566V103.479H246.28V103.6ZM234.853 103.6H229.144V103.479H234.853V103.6ZM223.431 103.6H217.717V103.479H223.431V103.6ZM212.008 103.6H206.295V103.479H212.008V103.6ZM200.586 103.6H194.872V103.479H200.586V103.6ZM189.159 103.6H183.45V103.479H189.159V103.6ZM177.736 103.6H172.023V103.479H177.736V103.6ZM166.314 103.6H160.601V103.479H166.314V103.6ZM154.892 103.6H149.178V103.479H154.892V103.6ZM143.465 103.6H137.756V103.479H143.465V103.6ZM132.042 103.6H126.334V103.479H132.042V103.6ZM120.62 103.6H114.926V103.479H120.639L120.62 103.6ZM109.198 103.6H103.484V103.479H109.198V103.6ZM97.7705 103.6H92.0618V103.479H97.7705V103.6ZM86.3482 103.6H80.6395V103.479H86.3579L86.3482 103.6ZM74.9259 103.6H69.2123V103.479H74.9259V103.6ZM63.5036 103.6H57.79V103.479H63.5036V103.6ZM52.0764 103.6H46.3677V103.479H52.0764V103.6Z" fill="#F2F2F2"/>
<path opacity="0.2" d="M300.588 103.484H297.683V103.605H300.588V103.484Z" fill="#F2F2F2"/>
</g>
<path opacity="0.3" d="M311.008 123.839H300.767V126.948H311.008V123.839Z" fill="#FFC768"/>
<g opacity="0.2">
<path opacity="0.2" d="M40.6535 125.239H37.7483V125.36H40.6535V125.239Z" fill="#F2F2F2"/>
<path opacity="0.2" d="M291.969 125.36H286.26V125.239H291.969V125.36ZM280.547 125.36H274.838V125.239H280.547V125.36ZM269.124 125.36H263.411V125.239H269.124V125.36ZM257.702 125.36H251.989V125.239H257.702V125.36ZM246.28 125.36H240.566V125.239H246.28V125.36ZM234.853 125.36H229.144V125.239H234.853V125.36ZM223.43 125.36H217.717V125.239H223.43V125.36ZM212.008 125.36H206.294V125.239H212.008V125.36ZM200.586 125.36H194.872V125.239H200.586V125.36ZM189.159 125.36H183.45V125.239H189.159V125.36ZM177.736 125.36H172.023V125.239H177.736V125.36ZM166.314 125.36H160.6V125.239H166.314V125.36ZM154.892 125.36H149.178V125.239H154.892V125.36ZM143.464 125.36H137.756V125.239H143.464V125.36ZM132.042 125.36H126.333V125.239H132.042V125.36ZM120.62 125.36H114.926V125.239H120.639L120.62 125.36ZM109.197 125.36H103.484V125.239H109.197V125.36ZM97.7703 125.36H92.0616V125.239H97.7703V125.36ZM86.348 125.36H80.6392V125.239H86.3577L86.348 125.36ZM74.9257 125.36H69.2121V125.239H74.9257V125.36ZM63.5033 125.36H57.7898V125.239H63.5033V125.36ZM52.0762 125.36H46.3674V125.239H52.0762V125.36Z" fill="#F2F2F2"/>
<path opacity="0.2" d="M300.588 125.239H297.683V125.36H300.588V125.239Z" fill="#F2F2F2"/>
<path opacity="0.2" d="M40.6535 125.239H37.7483V125.36H40.6535V125.239Z" fill="#F2F2F2"/>
<path opacity="0.2" d="M291.969 125.36H286.26V125.239H291.969V125.36ZM280.547 125.36H274.838V125.239H280.547V125.36ZM269.124 125.36H263.411V125.239H269.124V125.36ZM257.702 125.36H251.989V125.239H257.702V125.36ZM246.28 125.36H240.566V125.239H246.28V125.36ZM234.853 125.36H229.144V125.239H234.853V125.36ZM223.43 125.36H217.717V125.239H223.43V125.36ZM212.008 125.36H206.294V125.239H212.008V125.36ZM200.586 125.36H194.872V125.239H200.586V125.36ZM189.159 125.36H183.45V125.239H189.159V125.36ZM177.736 125.36H172.023V125.239H177.736V125.36ZM166.314 125.36H160.6V125.239H166.314V125.36ZM154.892 125.36H149.178V125.239H154.892V125.36ZM143.464 125.36H137.756V125.239H143.464V125.36ZM132.042 125.36H126.333V125.239H132.042V125.36ZM120.62 125.36H114.926V125.239H120.639L120.62 125.36ZM109.197 125.36H103.484V125.239H109.197V125.36ZM97.7703 125.36H92.0616V125.239H97.7703V125.36ZM86.348 125.36H80.6392V125.239H86.3577L86.348 125.36ZM74.9257 125.36H69.2121V125.239H74.9257V125.36ZM63.5033 125.36H57.7898V125.239H63.5033V125.36ZM52.0762 125.36H46.3674V125.239H52.0762V125.36Z" fill="#F2F2F2"/>
<path opacity="0.2" d="M300.588 125.239H297.683V125.36H300.588V125.239Z" fill="#F2F2F2"/>
</g>
<path opacity="0.3" d="M311.008 145.594H300.767V148.702H311.008V145.594Z" fill="#FFC768"/>
<g opacity="0.2">
<path opacity="0.2" d="M40.6535 146.998H37.7483V147.119H40.6535V146.998Z" fill="#F2F2F2"/>
<path opacity="0.2" d="M291.969 147.119H286.26V146.998H291.969V147.119ZM280.547 147.119H274.838V146.998H280.547V147.119ZM269.124 147.119H263.411V146.998H269.124V147.119ZM257.702 147.119H251.989V146.998H257.702V147.119ZM246.28 147.119H240.566V146.998H246.28V147.119ZM234.853 147.119H229.144V146.998H234.853V147.119ZM223.43 147.119H217.717V146.998H223.43V147.119ZM212.008 147.119H206.294V146.998H212.008V147.119ZM200.586 147.119H194.872V146.998H200.586V147.119ZM189.159 147.119H183.45V146.998H189.159V147.119ZM177.736 147.119H172.023V146.998H177.736V147.119ZM166.314 147.119H160.6V146.998H166.314V147.119ZM154.892 147.119H149.178V146.998H154.892V147.119ZM143.464 147.119H137.756V146.998H143.464V147.119ZM132.042 147.119H126.333V146.998H132.042V147.119ZM120.62 147.119H114.926V146.998H120.639L120.62 147.119ZM109.197 147.119H103.484V146.998H109.197V147.119ZM97.7703 147.119H92.0616V146.998H97.7703V147.119ZM86.348 147.119H80.6392V146.998H86.3577L86.348 147.119ZM74.9257 147.119H69.2121V146.998H74.9257V147.119ZM63.5033 147.119H57.7898V146.998H63.5033V147.119ZM52.0762 147.119H46.3674V146.998H52.0762V147.119Z" fill="#F2F2F2"/>
<path opacity="0.2" d="M300.588 146.998H297.683V147.119H300.588V146.998Z" fill="#F2F2F2"/>
<path opacity="0.2" d="M40.6535 146.998H37.7483V147.119H40.6535V146.998Z" fill="#F2F2F2"/>
<path opacity="0.2" d="M291.969 147.119H286.26V146.998H291.969V147.119ZM280.547 147.119H274.838V146.998H280.547V147.119ZM269.124 147.119H263.411V146.998H269.124V147.119ZM257.702 147.119H251.989V146.998H257.702V147.119ZM246.28 147.119H240.566V146.998H246.28V147.119ZM234.853 147.119H229.144V146.998H234.853V147.119ZM223.43 147.119H217.717V146.998H223.43V147.119ZM212.008 147.119H206.294V146.998H212.008V147.119ZM200.586 147.119H194.872V146.998H200.586V147.119ZM189.159 147.119H183.45V146.998H189.159V147.119ZM177.736 147.119H172.023V146.998H177.736V147.119ZM166.314 147.119H160.6V146.998H166.314V147.119ZM154.892 147.119H149.178V146.998H154.892V147.119ZM143.464 147.119H137.756V146.998H143.464V147.119ZM132.042 147.119H126.333V146.998H132.042V147.119ZM120.62 147.119H114.926V146.998H120.639L120.62 147.119ZM109.197 147.119H103.484V146.998H109.197V147.119ZM97.7703 147.119H92.0616V146.998H97.7703V147.119ZM86.348 147.119H80.6392V146.998H86.3577L86.348 147.119ZM74.9257 147.119H69.2121V146.998H74.9257V147.119ZM63.5033 147.119H57.7898V146.998H63.5033V147.119ZM52.0762 147.119H46.3674V146.998H52.0762V147.119Z" fill="#F2F2F2"/>
<path opacity="0.2" d="M300.588 146.998H297.683V147.119H300.588V146.998Z" fill="#F2F2F2"/>
</g>
<path d="M71.134 60.0864V147.332" stroke="#F2F2F2" stroke-width="0.1" stroke-miterlimit="10"/>
<path d="M106.481 60.0864V147.332" stroke="#F2F2F2" stroke-width="0.1" stroke-miterlimit="10"/>
<path d="M141.828 60.0864V147.332" stroke="#F2F2F2" stroke-width="0.1" stroke-miterlimit="10"/>
<path d="M177.174 60.0864V147.332" stroke="#F2F2F2" stroke-width="0.1" stroke-miterlimit="10"/>
<path d="M212.521 60.0864V147.332" stroke="#F2F2F2" stroke-width="0.1" stroke-miterlimit="10"/>
<path d="M247.868 60.0864V147.332" stroke="#F2F2F2" stroke-width="0.1" stroke-miterlimit="10"/>
<path d="M283.215 60.0864V147.332" stroke="#F2F2F2" stroke-width="0.1" stroke-miterlimit="10"/>
<path opacity="0.3" d="M290.86 54.1986L286.817 58.411C286.735 58.4991 286.667 58.5986 286.614 58.7064L284.105 63.8727C284.006 64.0802 283.845 64.2527 283.646 64.3677C283.446 64.4826 283.217 64.5345 282.987 64.5166L282.183 64.4537C281.95 64.4371 281.727 64.3492 281.545 64.202C281.363 64.0548 281.231 63.8553 281.166 63.6306L280.392 60.9482C280.324 60.7136 280.183 60.5067 279.99 60.3575C279.797 60.2083 279.561 60.1247 279.317 60.1188C279.073 60.1128 278.833 60.1849 278.633 60.3245C278.433 60.464 278.282 60.6639 278.203 60.8949L276.901 64.7103C276.823 64.938 276.677 65.1357 276.481 65.2755C276.286 65.4154 276.051 65.4904 275.811 65.4898H270.838C270.565 65.4887 270.302 65.3908 270.094 65.2135C269.887 65.0361 269.749 64.7909 269.705 64.5215L268.301 55.7335C268.264 55.4931 268.151 55.2709 267.979 55.0987C267.807 54.9266 267.585 54.8135 267.345 54.7758C267.105 54.7381 266.859 54.7777 266.642 54.8889C266.426 55.0001 266.251 55.1772 266.142 55.3945L258.941 69.6054C258.867 69.7525 258.762 69.8819 258.633 69.9848C258.505 70.0877 258.355 70.1616 258.195 70.2016C258.035 70.2416 257.869 70.2466 257.707 70.2164C257.545 70.1863 257.391 70.1215 257.256 70.0267L252.976 67.0053C252.743 66.8414 252.457 66.7695 252.173 66.8035C251.89 66.8374 251.629 66.9748 251.441 67.1893L249.819 69.0631C249.771 69.1185 249.729 69.1785 249.693 69.2423L245.364 76.7326C245.255 76.9246 245.091 77.0804 244.894 77.181C244.697 77.2816 244.475 77.3227 244.256 77.2992L241.617 77.0377C241.432 77.0197 241.246 77.0463 241.074 77.1152L238.712 78.0593C238.438 78.1625 238.135 78.1574 237.865 78.0449C237.595 77.9324 237.378 77.7211 237.259 77.4541L236.741 76.2678C236.647 76.0554 236.492 75.8761 236.295 75.7534C236.098 75.6308 235.869 75.5704 235.637 75.5803L232.935 75.7062C232.768 75.7133 232.604 75.7573 232.456 75.8352C232.308 75.913 232.179 76.0228 232.078 76.1565L231.313 77.1539C231.187 77.3184 231.019 77.4457 230.827 77.5224C230.634 77.5992 230.425 77.6224 230.22 77.5896C230.016 77.5568 229.824 77.4693 229.665 77.3364C229.506 77.2034 229.386 77.0299 229.318 76.8343L228.35 74.0987C228.29 73.9285 228.191 73.7747 228.061 73.6499C227.93 73.5252 227.772 73.4329 227.6 73.3805C227.427 73.3281 227.245 73.3172 227.067 73.3486C226.889 73.38 226.722 73.4529 226.577 73.5612L221.978 77.0086L216.893 81.1097C216.72 81.2492 216.509 81.3354 216.287 81.3577C216.066 81.38 215.842 81.3376 215.644 81.2356L211.698 79.1875C211.486 79.079 211.246 79.0384 211.01 79.0713L203.016 80.1897C202.784 80.221 202.568 80.3221 202.395 80.4795C202.222 80.6369 202.101 80.8432 202.048 81.071L200.629 87.2347C200.585 87.427 200.492 87.6046 200.359 87.7505C200.226 87.8963 200.058 88.0054 199.87 88.0672C199.683 88.129 199.483 88.1415 199.289 88.1034C199.095 88.0652 198.915 87.9778 198.765 87.8496C198.632 87.7363 198.475 87.6546 198.306 87.6108C198.137 87.567 197.96 87.5622 197.789 87.5967C197.618 87.6312 197.457 87.7042 197.318 87.81C197.179 87.9159 197.066 88.052 196.988 88.2079L195.898 90.3915C195.817 90.5529 195.698 90.693 195.553 90.8006C195.407 90.9082 195.239 90.9803 195.061 91.0113L192.586 91.4229C192.427 91.4506 192.275 91.5117 192.141 91.602L188.243 94.1973C188.056 94.3234 187.835 94.3908 187.609 94.3909H185.783C185.559 94.3913 185.339 94.326 185.152 94.2029C184.964 94.0799 184.817 93.9045 184.728 93.6986L184.244 92.5413C184.182 92.4011 184.093 92.2746 183.981 92.1693C183.87 92.064 183.739 91.9821 183.595 91.9284C183.452 91.8747 183.299 91.8503 183.146 91.8566C182.993 91.8629 182.842 91.8998 182.704 91.9652L178.472 93.9455C178.301 94.0256 178.114 94.0626 177.925 94.0533C177.737 94.044 177.554 93.9887 177.392 93.8922L175.455 92.7253C175.277 92.6183 175.073 92.5615 174.865 92.5607H170.589C170.363 92.5614 170.143 92.6288 169.955 92.7544L165.689 95.5869C165.525 95.696 165.335 95.7609 165.138 95.7753C164.941 95.7897 164.744 95.7532 164.566 95.6692L162.629 94.7541C162.403 94.6486 162.149 94.6195 161.906 94.671C161.662 94.7225 161.442 94.852 161.278 95.0397L160.358 96.0904C160.238 96.2296 160.085 96.3377 159.914 96.4055C159.743 96.4733 159.558 96.4988 159.375 96.4797C159.192 96.4607 159.017 96.3978 158.863 96.2963C158.71 96.1948 158.583 96.0577 158.494 95.8968L158.218 95.4126C158.143 95.2788 158.042 95.1614 157.921 95.0672C157.8 94.9731 157.662 94.9041 157.514 94.8644C157.366 94.8247 157.211 94.815 157.059 94.836C156.907 94.857 156.761 94.9081 156.63 94.9865L153.274 96.9765C153.1 97.0763 152.903 97.1288 152.703 97.1288C152.502 97.1288 152.305 97.0763 152.131 96.9765L150.747 96.2066C150.59 96.1186 150.415 96.0687 150.236 96.0612C150.057 96.0536 149.878 96.0885 149.715 96.1631L148.398 96.7634C148.25 96.8298 148.09 96.8644 147.927 96.8647C147.765 96.8651 147.604 96.8313 147.456 96.7655C147.308 96.6998 147.175 96.6035 147.066 96.483C146.957 96.3626 146.875 96.2205 146.824 96.0662L145.972 93.5291C145.9 93.2962 145.754 93.0929 145.557 92.949C145.36 92.8052 145.122 92.7285 144.878 92.7302H143.638C143.443 92.7309 143.251 92.6809 143.082 92.5849L138.322 89.9752C138.128 89.8704 137.908 89.8234 137.689 89.8397C137.469 89.856 137.259 89.9349 137.082 90.0672L133.591 92.6818C133.393 92.8305 133.152 92.9104 132.904 92.9093H128.512C128.286 92.9095 128.065 92.9769 127.878 93.103L127.055 93.6501C126.919 93.7409 126.766 93.8018 126.605 93.8287C126.444 93.8556 126.28 93.848 126.122 93.8063C125.965 93.7646 125.818 93.6898 125.691 93.5869C125.565 93.484 125.462 93.3554 125.389 93.2095L125.19 92.8173C125.096 92.6255 124.95 92.4638 124.769 92.3509C124.587 92.2379 124.378 92.1781 124.164 92.1782H121.961C121.786 92.1785 121.613 92.2189 121.456 92.2961C121.299 92.3733 121.162 92.4853 121.055 92.6237L119.69 94.3716C119.577 94.5165 119.43 94.6321 119.263 94.7087C119.096 94.7853 118.913 94.8205 118.729 94.8115C118.545 94.8025 118.367 94.7495 118.208 94.6569C118.049 94.5643 117.914 94.4349 117.816 94.2796L117.429 93.6743C117.269 93.4208 117.016 93.2402 116.724 93.1714C116.433 93.1026 116.126 93.151 115.869 93.3064L114.736 93.9842C114.544 94.0995 114.321 94.1559 114.097 94.1465C113.872 94.137 113.655 94.0621 113.473 93.931L108.907 90.624C108.825 90.5662 108.737 90.5176 108.645 90.4787L105.077 89.1085C104.799 89.0074 104.493 89.0174 104.222 89.1365C103.951 89.2555 103.737 89.4744 103.624 89.7476L101.14 95.7999C101.104 95.8851 101.08 95.9746 101.067 96.0662L100.264 101.518C100.228 101.749 100.123 101.963 99.9634 102.133L98.2639 103.958C98.0877 104.145 97.8547 104.267 97.6014 104.306C97.3482 104.346 97.089 104.3 96.8645 104.176L93.9157 102.54C93.769 102.458 93.6061 102.409 93.4384 102.397C93.2707 102.384 93.1023 102.409 92.9453 102.469C92.7882 102.529 92.6463 102.623 92.5295 102.744C92.4127 102.865 92.3239 103.01 92.2694 103.169L90.4004 108.636C90.3581 108.755 90.3368 108.882 90.3375 109.009V112.456C90.337 112.679 90.2711 112.898 90.1481 113.085C90.0251 113.271 89.8503 113.418 89.6451 113.507L86.6479 114.833C86.4813 114.905 86.3002 114.936 86.1192 114.925C85.9382 114.913 85.7627 114.858 85.6068 114.765L83.3505 113.439C83.1256 113.307 82.8626 113.256 82.6048 113.294L78.6488 113.86C78.4226 113.892 78.1919 113.856 77.9865 113.756C77.781 113.656 77.6104 113.497 77.4965 113.298L76.8283 112.156C76.684 111.909 76.4524 111.726 76.1794 111.643L74.383 111.081C74.1736 111.014 73.9494 111.009 73.7372 111.067C73.5251 111.124 73.3341 111.242 73.187 111.405L70.6934 114.175C70.4967 114.392 70.2252 114.527 69.9332 114.552L66.2533 114.862C66.0827 114.872 65.9168 114.922 65.7691 115.008L59.3534 118.697C59.1531 118.811 58.9234 118.862 58.6938 118.844C58.4642 118.826 58.2454 118.739 58.0654 118.595L56.2448 117.143C56.0409 116.981 55.7885 116.892 55.5282 116.891H48.6332C48.461 116.892 48.2909 116.853 48.1357 116.779C47.9806 116.704 47.8444 116.595 47.7374 116.46L45.9991 114.291C45.8949 114.161 45.7638 114.056 45.6148 113.982C45.4659 113.908 45.3026 113.867 45.1363 113.863C44.9701 113.858 44.8048 113.89 44.6519 113.955C44.4991 114.021 44.3623 114.119 44.2511 114.243L42.1594 116.567C41.9701 116.777 41.8649 117.049 41.864 117.332V146.209C41.864 146.513 41.9849 146.805 42.2001 147.02C42.4153 147.235 42.7072 147.356 43.0116 147.356H291.761C291.912 147.356 292.061 147.326 292.201 147.268C292.34 147.21 292.467 147.125 292.574 147.018C292.68 146.911 292.765 146.784 292.822 146.644C292.88 146.505 292.909 146.355 292.908 146.204L292.84 55.0169C292.844 54.7859 292.778 54.5593 292.651 54.3664C292.524 54.1735 292.342 54.0232 292.128 53.935C291.915 53.8468 291.68 53.8247 291.454 53.8717C291.227 53.9188 291.021 54.0326 290.86 54.1986Z" fill="#7722FC"/>
<path opacity="0.3" d="M290.637 91.5926L286.89 94.091C286.758 94.1796 286.642 94.2892 286.546 94.4154L284.217 97.49C284.076 97.6722 283.893 97.8181 283.684 97.9158C283.475 98.0134 283.246 98.06 283.016 98.0516L282.256 98.0129C281.995 97.9999 281.743 97.9153 281.526 97.7684C281.31 97.6215 281.139 97.418 281.031 97.1801L280.547 96.1488C280.438 95.9065 280.264 95.6996 280.044 95.5517C279.824 95.4037 279.567 95.3207 279.301 95.3121C279.036 95.3035 278.774 95.3697 278.545 95.5031C278.315 95.6365 278.128 95.8317 278.005 96.0665L277.036 97.9209C276.915 98.1484 276.735 98.3385 276.514 98.4707C276.293 98.603 276.04 98.6724 275.782 98.6714H270.979C270.662 98.6728 270.354 98.5675 270.105 98.3725C269.855 98.1775 269.679 97.9041 269.604 97.5965L268.451 92.9822C268.387 92.725 268.252 92.4909 268.062 92.3065C267.871 92.1221 267.633 91.9947 267.374 91.9387C267.115 91.8828 266.846 91.9005 266.596 91.99C266.346 92.0794 266.127 92.237 265.962 92.4448L259.038 101.199C258.843 101.448 258.57 101.624 258.262 101.698C257.955 101.773 257.631 101.742 257.344 101.61L252.894 99.601C252.661 99.492 252.403 99.4484 252.147 99.4748C251.891 99.5013 251.647 99.5968 251.441 99.7511L249.848 100.928C249.772 100.985 249.702 101.049 249.64 101.121L245.437 105.774C245.296 105.936 245.12 106.064 244.922 106.148C244.724 106.232 244.509 106.27 244.294 106.259L241.549 106.084C241.399 106.075 241.249 106.088 241.104 106.123L238.629 106.757C238.347 106.831 238.049 106.816 237.776 106.713C237.503 106.611 237.268 106.427 237.104 106.186L236.823 105.77C236.689 105.574 236.508 105.415 236.296 105.308C236.085 105.2 235.85 105.148 235.613 105.155L232.853 105.237C232.534 105.242 232.228 105.359 231.986 105.566L231.308 106.133C231.148 106.267 230.959 106.365 230.757 106.418C230.554 106.471 230.342 106.479 230.136 106.441C229.93 106.402 229.735 106.319 229.565 106.196C229.395 106.073 229.255 105.914 229.153 105.731L228.437 104.433C228.262 104.116 227.973 103.878 227.628 103.767C227.283 103.656 226.909 103.682 226.582 103.838L221.939 106.07L216.801 108.723C216.634 108.809 216.451 108.861 216.263 108.875C216.075 108.889 215.886 108.866 215.707 108.805L211.616 107.45C211.432 107.389 211.237 107.366 211.044 107.382L203.123 108.055C202.854 108.083 202.598 108.185 202.385 108.35C202.171 108.515 202.007 108.736 201.912 108.989L200.765 112.195C200.695 112.387 200.585 112.563 200.442 112.709C200.298 112.855 200.125 112.968 199.933 113.041C199.742 113.113 199.537 113.144 199.333 113.13C199.129 113.116 198.93 113.058 198.75 112.96L198.702 112.936C198.408 112.772 198.065 112.72 197.736 112.787C197.406 112.855 197.112 113.038 196.906 113.304L196.005 114.456C195.766 114.756 195.418 114.949 195.037 114.993L192.557 115.26C192.418 115.274 192.281 115.308 192.151 115.361L188.224 117.041C188.047 117.114 187.858 117.152 187.667 117.153H185.779C185.548 117.153 185.32 117.096 185.116 116.988C184.912 116.88 184.737 116.724 184.607 116.533L184.336 116.136C184.166 115.888 183.921 115.7 183.637 115.6C183.354 115.5 183.045 115.493 182.757 115.579L178.356 116.911C178.054 117.002 177.73 116.99 177.436 116.877L175.392 116.092C175.238 116.032 175.074 115.999 174.908 115.996H170.521C170.331 115.995 170.143 116.035 169.969 116.112L165.612 117.961C165.305 118.094 164.962 118.112 164.643 118.015L162.488 117.371C162.279 117.308 162.057 117.295 161.841 117.332C161.626 117.369 161.421 117.455 161.244 117.584L160.3 118.276C160.014 118.485 159.66 118.58 159.308 118.541C158.956 118.503 158.631 118.334 158.397 118.068L158.257 117.908C158.066 117.691 157.814 117.537 157.534 117.467C157.253 117.397 156.958 117.414 156.688 117.516L153.177 118.857C152.865 118.971 152.522 118.971 152.209 118.857L150.669 118.305C150.388 118.208 150.084 118.2 149.798 118.281L148.345 118.702C148.027 118.794 147.687 118.772 147.383 118.639C147.08 118.506 146.833 118.272 146.684 117.976L146.142 116.886C146.024 116.651 145.842 116.453 145.618 116.315C145.395 116.176 145.137 116.103 144.873 116.102H143.614C143.45 116.105 143.286 116.079 143.13 116.025L138.244 114.311C138.069 114.248 137.883 114.221 137.696 114.231C137.51 114.241 137.328 114.288 137.16 114.369L133.591 116.083C133.399 116.174 133.189 116.222 132.976 116.223H128.468C128.277 116.224 128.088 116.262 127.912 116.335L126.992 116.732C126.704 116.854 126.384 116.878 126.081 116.8C125.778 116.722 125.509 116.546 125.316 116.301C125.184 116.13 125.014 115.992 124.821 115.897C124.627 115.802 124.414 115.753 124.198 115.754H121.922C121.594 115.753 121.276 115.866 121.021 116.073L119.7 117.158C119.428 117.383 119.082 117.498 118.729 117.48C118.377 117.462 118.044 117.312 117.797 117.061L117.496 116.761C117.303 116.565 117.056 116.431 116.787 116.373C116.518 116.316 116.238 116.337 115.981 116.436L114.664 116.945C114.304 117.079 113.905 117.065 113.555 116.906L108.921 114.756C108.839 114.717 108.753 114.688 108.665 114.669L105.028 113.773C104.741 113.702 104.439 113.722 104.165 113.831C103.89 113.941 103.657 114.134 103.498 114.383L101.213 117.947C101.125 118.084 101.061 118.234 101.024 118.392L100.331 121.418C100.249 121.764 100.042 122.067 99.7504 122.271L98.2397 123.307C98.0559 123.434 97.8444 123.515 97.6229 123.543C97.4015 123.572 97.1763 123.547 96.9663 123.471L93.8577 122.367C93.5327 122.253 93.177 122.26 92.8572 122.389C92.5373 122.517 92.275 122.757 92.1194 123.065L90.4828 126.125C90.3752 126.331 90.3187 126.56 90.3182 126.793V128.173C90.3169 128.483 90.2146 128.784 90.0267 129.03C89.8388 129.277 89.5756 129.455 89.2772 129.538L86.5559 130.294C86.2672 130.375 85.9599 130.362 85.6795 130.255L83.3069 129.359C83.1066 129.282 82.8912 129.252 82.6775 129.272L78.586 129.645C78.3679 129.666 78.148 129.636 77.9437 129.557C77.7394 129.478 77.5564 129.352 77.4094 129.19L76.9252 128.652C76.7235 128.426 76.4529 128.273 76.1553 128.216L74.2911 127.839C74.1006 127.803 73.9047 127.805 73.7151 127.846C73.5255 127.887 73.346 127.965 73.1871 128.076L70.7322 129.824C70.5126 129.978 70.2545 130.069 69.9865 130.085L66.2243 130.284C66.082 130.293 65.9418 130.322 65.8079 130.371L59.276 132.792C59.0931 132.861 58.8975 132.891 58.7022 132.88C58.5069 132.868 58.3163 132.815 58.143 132.724L56.2546 131.756C56.0551 131.654 55.8345 131.601 55.6106 131.601H48.5897C48.2654 131.601 47.951 131.49 47.6987 131.286L45.9992 129.926C45.7583 129.733 45.4611 129.624 45.1527 129.615C44.8442 129.606 44.5414 129.698 44.2899 129.877L42.4693 131.175C42.2852 131.307 42.1351 131.48 42.0316 131.681C41.928 131.883 41.8739 132.106 41.8738 132.332V145.943C41.8738 146.319 42.0233 146.68 42.2893 146.946C42.5554 147.212 42.9162 147.361 43.2925 147.361H291.49C291.866 147.361 292.227 147.212 292.493 146.946C292.759 146.68 292.908 146.319 292.908 145.943L292.841 92.7934C292.844 92.5353 292.777 92.2811 292.647 92.0583C292.516 91.8355 292.328 91.6525 292.101 91.529C291.874 91.4054 291.618 91.3461 291.36 91.3573C291.102 91.3685 290.852 91.4498 290.637 91.5926Z" fill="#7722FC"/>
<path d="M291.64 94.6236C293.512 94.6236 295.029 93.1061 295.029 91.2343C295.029 89.3624 293.512 87.845 291.64 87.845C289.768 87.845 288.25 89.3624 288.25 91.2343C288.25 93.1061 289.768 94.6236 291.64 94.6236Z" fill="#7722FC"/>
<path opacity="0.3" d="M291.422 124.764L286.817 126.299C286.729 126.329 286.644 126.37 286.565 126.42L284.038 128.091C283.854 128.211 283.637 128.271 283.418 128.265L281.844 128.226C281.698 128.223 281.554 128.19 281.42 128.129C281.287 128.069 281.168 127.981 281.069 127.873L280.101 126.807C280.005 126.701 279.888 126.615 279.758 126.554C279.629 126.493 279.488 126.459 279.344 126.453C279.201 126.447 279.058 126.47 278.923 126.52C278.789 126.57 278.666 126.646 278.561 126.744L276.93 128.275C276.731 128.464 276.468 128.57 276.194 128.57H270.538C270.337 128.571 270.139 128.515 269.967 128.409C269.796 128.303 269.658 128.151 269.57 127.969L268.277 125.389C268.209 125.254 268.115 125.135 267.998 125.039C267.882 124.943 267.747 124.873 267.602 124.832C267.457 124.792 267.305 124.782 267.156 124.804C267.007 124.825 266.865 124.878 266.737 124.958L258.733 130.027C258.491 130.179 258.199 130.229 257.92 130.168L252.439 128.933C252.236 128.885 252.024 128.899 251.829 128.972L249.829 129.713C249.776 129.729 249.726 129.752 249.679 129.78L245.258 132.23C245.087 132.323 244.895 132.37 244.701 132.366L241.428 132.259C241.371 132.254 241.315 132.254 241.258 132.259L238.111 132.661C237.837 132.695 237.561 132.624 237.336 132.463L236.697 131.979C236.508 131.839 236.278 131.766 236.044 131.77L232.591 131.819C232.453 131.819 232.316 131.847 232.189 131.901L230.64 132.555C230.45 132.633 230.242 132.656 230.04 132.621C229.837 132.586 229.649 132.494 229.497 132.356L228.229 131.233C228.099 131.116 227.943 131.033 227.775 130.99C227.606 130.947 227.429 130.946 227.26 130.986L221.963 132.264L216.516 133.673C216.369 133.705 216.217 133.705 216.07 133.673L211.47 132.908C211.396 132.903 211.322 132.903 211.248 132.908L202.74 133.291C202.577 133.298 202.418 133.342 202.274 133.42C202.131 133.498 202.007 133.608 201.912 133.741L200.629 135.508C200.501 135.688 200.321 135.824 200.113 135.897C199.905 135.971 199.679 135.979 199.467 135.92L198.097 135.542C197.951 135.504 197.798 135.496 197.649 135.519C197.5 135.543 197.357 135.597 197.23 135.678L195.86 136.554C195.702 136.652 195.522 136.708 195.337 136.719L192.431 136.879C192.377 136.874 192.322 136.874 192.267 136.879L188.074 137.774C187.999 137.789 187.923 137.798 187.846 137.798H185.386C185.158 137.798 184.936 137.726 184.752 137.59L184.113 137.106C184 137.022 183.872 136.961 183.736 136.927C183.599 136.893 183.458 136.886 183.319 136.908L178.085 137.692C177.964 137.711 177.842 137.711 177.721 137.692L175.262 137.208C175.194 137.201 175.126 137.201 175.058 137.208H170.337C170.263 137.201 170.189 137.201 170.115 137.208L165.326 138.225C165.198 138.249 165.066 138.249 164.938 138.225L162.087 137.794C161.907 137.769 161.724 137.789 161.554 137.852L159.724 138.52C159.576 138.575 159.419 138.596 159.262 138.583C159.106 138.57 158.954 138.522 158.818 138.442L157.951 137.958C157.731 137.828 157.471 137.784 157.22 137.832L152.862 138.66C152.733 138.684 152.6 138.684 152.47 138.66L150.374 138.287C150.26 138.271 150.144 138.271 150.03 138.287L147.715 138.622C147.55 138.647 147.381 138.633 147.222 138.581C147.063 138.529 146.919 138.44 146.8 138.321L146.035 137.59C145.831 137.39 145.556 137.277 145.27 137.276H143.435C143.374 137.281 143.312 137.281 143.251 137.276L137.896 136.336C137.751 136.305 137.6 136.305 137.455 136.336L133.407 137.305C133.325 137.324 133.24 137.334 133.155 137.334H128.28C128.205 137.326 128.131 137.326 128.057 137.334L126.406 137.687C126.128 137.764 125.83 137.729 125.578 137.59L125.123 137.295C124.949 137.184 124.747 137.126 124.542 137.125H121.593C121.453 137.126 121.315 137.154 121.186 137.208L119.123 138.05C118.981 138.11 118.828 138.137 118.674 138.131C118.52 138.126 118.369 138.086 118.232 138.016L117.138 137.464C116.926 137.358 116.684 137.324 116.45 137.368L114.291 137.784C114.144 137.815 113.992 137.815 113.845 137.784L108.839 136.622H108.727L104.471 136.094C104.188 136.062 103.903 136.142 103.677 136.317L101.256 138.195C101.121 138.3 101.013 138.437 100.942 138.593L100.399 139.798C100.338 139.931 100.251 140.05 100.143 140.148C100.034 140.246 99.9076 140.321 99.7697 140.369L97.9104 141.004C97.7384 141.066 97.5528 141.081 97.3729 141.047L93.2379 140.311C93.0729 140.283 92.9035 140.293 92.7431 140.341C92.5826 140.389 92.4354 140.473 92.313 140.587L90.6716 142.122C90.5639 142.223 90.4782 142.346 90.4199 142.482C90.3615 142.617 90.3318 142.764 90.3326 142.911C90.3327 143.171 90.2385 143.423 90.0676 143.618C89.8967 143.814 89.6606 143.942 89.403 143.977L86.2992 144.408C86.1838 144.427 86.066 144.427 85.9506 144.408L83.1422 143.875C83.0586 143.865 82.9741 143.865 82.8905 143.875L78.1985 144.088C78.0014 144.096 77.8059 144.051 77.632 143.957L76.8089 143.507C76.6825 143.435 76.5422 143.39 76.3973 143.376L73.9327 143.129C73.769 143.112 73.6036 143.132 73.4485 143.187L70.5433 144.219C70.4359 144.257 70.3232 144.278 70.2092 144.282L66.079 144.393C66.0226 144.388 65.9659 144.388 65.9095 144.393L58.9128 145.686C58.7611 145.717 58.6045 145.717 58.4528 145.686L56.0705 145.076C55.9816 145.055 55.8907 145.043 55.7994 145.042H48.2894C48.1516 145.043 48.0149 145.017 47.8875 144.964L45.5343 144.025C45.288 143.931 45.0155 143.931 44.7692 144.025L42.5806 144.805C42.3709 144.878 42.1892 145.015 42.0608 145.196C41.9324 145.378 41.8636 145.594 41.864 145.817V146.301C41.8634 146.442 41.8907 146.583 41.9445 146.714C41.9982 146.845 42.0773 146.964 42.1772 147.064C42.277 147.164 42.3957 147.244 42.5265 147.298C42.6572 147.353 42.7974 147.38 42.939 147.38H291.819C291.96 147.38 292.1 147.353 292.231 147.298C292.362 147.244 292.481 147.164 292.581 147.064C292.68 146.964 292.76 146.845 292.813 146.714C292.867 146.583 292.894 146.442 292.894 146.301L292.831 125.834C292.837 125.661 292.802 125.488 292.728 125.331C292.654 125.174 292.543 125.037 292.405 124.932C292.267 124.827 292.105 124.757 291.934 124.728C291.763 124.699 291.587 124.711 291.422 124.764Z" fill="#7722FC"/>
<path d="M105.222 117.38C107.094 117.38 108.612 115.863 108.612 113.991C108.612 112.119 107.094 110.602 105.222 110.602C103.35 110.602 101.833 112.119 101.833 113.991C101.833 115.863 103.35 117.38 105.222 117.38Z" fill="#7722FC"/>
<path d="M267.914 96.076C269.786 96.076 271.303 94.5586 271.303 92.6867C271.303 90.8149 269.786 89.2974 267.914 89.2974C266.042 89.2974 264.524 90.8149 264.524 92.6867C264.524 94.5586 266.042 96.076 267.914 96.076Z" fill="#7722FC"/>
<path d="M183.663 118.833C185.535 118.833 187.052 117.315 187.052 115.444C187.052 113.572 185.535 112.054 183.663 112.054C181.791 112.054 180.273 113.572 180.273 115.444C180.273 117.315 181.791 118.833 183.663 118.833Z" fill="#7722FC"/>
<path d="M227.725 106.728C229.597 106.728 231.115 105.211 231.115 103.339C231.115 101.467 229.597 99.9495 227.725 99.9495C225.853 99.9495 224.336 101.467 224.336 103.339C224.336 105.211 225.853 106.728 227.725 106.728Z" fill="#7722FC"/>
<path d="M293.325 92.7642C293.324 92.5082 293.254 92.2572 293.121 92.0378C292.989 91.8185 292.8 91.639 292.574 91.5184C292.349 91.3977 292.094 91.3405 291.839 91.3527C291.583 91.3649 291.335 91.4461 291.122 91.5876L287.374 94.086C287.242 94.1747 287.126 94.2843 287.03 94.4105L284.701 97.485C284.56 97.6672 284.377 97.8132 284.169 97.9108C283.96 98.0085 283.731 98.0551 283.5 98.0467L282.74 98.008C282.479 97.9949 282.227 97.9103 282.011 97.7634C281.795 97.6166 281.623 97.413 281.515 97.1752L281.031 96.1438C280.923 95.9016 280.749 95.6947 280.528 95.5467C280.308 95.3988 280.051 95.3158 279.786 95.3072C279.52 95.2986 279.258 95.3648 279.029 95.4982C278.8 95.6316 278.612 95.8268 278.489 96.0615L277.52 97.916C277.4 98.1434 277.219 98.3336 276.998 98.4658C276.777 98.5981 276.524 98.6674 276.266 98.6665H271.463C271.146 98.6679 270.839 98.5626 270.589 98.3676C270.34 98.1725 270.163 97.8992 270.088 97.5916L268.936 92.9773C268.871 92.7201 268.737 92.486 268.546 92.3016C268.356 92.1172 268.118 91.9898 267.858 91.9338C267.599 91.8779 267.33 91.8956 267.08 91.985C266.831 92.0745 266.611 92.232 266.447 92.4398L259.523 101.194C259.327 101.443 259.054 101.619 258.747 101.693C258.439 101.768 258.116 101.737 257.828 101.605L253.378 99.5961C253.145 99.4871 252.887 99.4435 252.631 99.4699C252.375 99.4963 252.131 99.5918 251.926 99.7462L250.333 100.923C250.256 100.98 250.187 101.045 250.124 101.116L245.921 105.769C245.78 105.931 245.604 106.059 245.406 106.143C245.208 106.227 244.993 106.265 244.779 106.254L242.033 106.079C241.884 106.07 241.734 106.083 241.588 106.118L239.114 106.752C238.831 106.826 238.533 106.811 238.26 106.708C237.987 106.606 237.753 106.422 237.588 106.181L237.307 105.765C237.173 105.569 236.992 105.41 236.781 105.303C236.569 105.196 236.334 105.143 236.097 105.15L233.337 105.232C233.019 105.237 232.712 105.354 232.47 105.561L231.792 106.128C231.632 106.263 231.444 106.36 231.241 106.413C231.038 106.467 230.826 106.474 230.62 106.436C230.414 106.397 230.219 106.314 230.049 106.191C229.879 106.068 229.739 105.909 229.638 105.726L228.921 104.428C228.746 104.111 228.457 103.873 228.112 103.762C227.767 103.651 227.393 103.677 227.067 103.833L222.423 106.065L217.286 108.718C217.118 108.804 216.935 108.856 216.747 108.87C216.559 108.884 216.37 108.861 216.191 108.8L212.1 107.445C211.916 107.384 211.722 107.361 211.529 107.377L203.607 108.055C203.338 108.083 203.083 108.185 202.869 108.35C202.655 108.515 202.491 108.736 202.397 108.989L201.249 112.195C201.18 112.387 201.069 112.563 200.926 112.709C200.783 112.855 200.609 112.968 200.418 113.04C200.226 113.113 200.022 113.144 199.817 113.13C199.613 113.116 199.414 113.058 199.235 112.96L199.186 112.935C198.892 112.772 198.549 112.72 198.22 112.787C197.891 112.855 197.596 113.038 197.39 113.303L196.489 114.456C196.25 114.756 195.902 114.949 195.521 114.993L193.042 115.26C192.902 115.274 192.765 115.308 192.635 115.361L188.708 117.041C188.531 117.114 188.342 117.152 188.151 117.153H186.263C186.032 117.153 185.804 117.096 185.6 116.988C185.396 116.88 185.221 116.724 185.091 116.533L184.82 116.136C184.65 115.888 184.405 115.7 184.122 115.6C183.838 115.5 183.53 115.493 183.242 115.579L178.84 116.911C178.538 117.002 178.215 116.99 177.92 116.877L175.877 116.092C175.722 116.032 175.558 115.999 175.393 115.995H171.006C170.816 115.995 170.628 116.035 170.454 116.112L166.096 117.961C165.79 118.094 165.446 118.112 165.128 118.015L162.973 117.371C162.763 117.308 162.542 117.295 162.326 117.332C162.11 117.369 161.905 117.455 161.728 117.584L160.784 118.276C160.498 118.485 160.145 118.58 159.792 118.541C159.44 118.503 159.115 118.334 158.881 118.068L158.741 117.908C158.55 117.691 158.298 117.537 158.018 117.467C157.737 117.396 157.442 117.414 157.172 117.516L153.662 118.857C153.349 118.971 153.006 118.971 152.693 118.857L151.153 118.305C150.872 118.208 150.568 118.199 150.282 118.281L148.829 118.702C148.511 118.794 148.171 118.771 147.868 118.639C147.564 118.506 147.317 118.272 147.168 117.976L146.626 116.886C146.508 116.651 146.327 116.453 146.103 116.315C145.879 116.176 145.621 116.103 145.358 116.102H144.099C143.934 116.105 143.77 116.079 143.614 116.025L138.729 114.311C138.553 114.248 138.367 114.22 138.181 114.23C137.994 114.24 137.812 114.287 137.644 114.369L134.076 116.083C133.883 116.174 133.674 116.222 133.461 116.223H128.953C128.762 116.224 128.573 116.262 128.396 116.334L127.476 116.731C127.188 116.854 126.868 116.878 126.565 116.8C126.263 116.722 125.994 116.546 125.801 116.301C125.668 116.13 125.499 115.992 125.305 115.897C125.111 115.802 124.898 115.753 124.682 115.753H122.406C122.078 115.753 121.76 115.866 121.506 116.073L120.184 117.158C119.912 117.383 119.566 117.497 119.214 117.48C118.861 117.462 118.528 117.312 118.281 117.061L117.981 116.761C117.787 116.565 117.54 116.431 117.271 116.373C117.002 116.315 116.722 116.337 116.465 116.436L115.148 116.945C114.788 117.079 114.389 117.065 114.039 116.906L109.406 114.756C109.324 114.717 109.238 114.688 109.149 114.669L105.513 113.773C105.226 113.701 104.924 113.722 104.649 113.831C104.375 113.941 104.141 114.134 103.983 114.383L101.697 117.947C101.61 118.084 101.546 118.234 101.508 118.392L100.816 121.418C100.733 121.764 100.526 122.067 100.235 122.271L98.7241 123.307C98.5402 123.433 98.3288 123.514 98.1073 123.543C97.8858 123.572 97.6607 123.547 97.4506 123.471L94.3421 122.367C94.0171 122.253 93.6614 122.26 93.3415 122.388C93.0216 122.517 92.7594 122.757 92.6038 123.065L90.9672 126.125C90.8596 126.331 90.8031 126.56 90.8025 126.793V128.173C90.8013 128.483 90.699 128.784 90.5111 129.03C90.3232 129.277 90.06 129.455 89.7615 129.538L87.0403 130.294C86.7516 130.375 86.4443 130.362 86.1639 130.255L83.7913 129.359C83.591 129.282 83.3756 129.252 83.1618 129.272L79.0703 129.645C78.8523 129.666 78.6323 129.636 78.428 129.557C78.2237 129.478 78.0407 129.352 77.8937 129.19L77.4095 128.652C77.2079 128.426 76.9373 128.273 76.6396 128.216L74.7755 127.839C74.5849 127.803 74.3891 127.805 74.1995 127.846C74.0099 127.886 73.8303 127.965 73.6715 128.076L71.2166 129.824C70.997 129.978 70.7389 130.069 70.4709 130.085L66.7087 130.284C66.5664 130.293 66.4261 130.322 66.2922 130.371L59.7604 132.792C59.5774 132.861 59.3819 132.891 59.1866 132.879C58.9913 132.868 58.8007 132.815 58.6273 132.724L56.7389 131.756C56.5395 131.654 56.3188 131.601 56.095 131.601H49.074C48.7498 131.601 48.4354 131.49 48.1831 131.286L46.4835 129.926C46.2427 129.733 45.9455 129.624 45.6371 129.615C45.3286 129.606 45.0257 129.698 44.7743 129.877L42.9537 131.175C42.7696 131.306 42.6195 131.48 42.5159 131.681C42.4124 131.883 42.3583 132.106 42.3582 132.332" stroke="#6C63FF" stroke-miterlimit="10"/>
<path opacity="0.2" d="M311.008 167.227H27.7498V167.276H311.008V167.227Z" fill="#F2F2F2"/>
<path opacity="0.3" d="M71.3277 169.672C72.6648 169.672 73.7487 168.589 73.7487 167.251C73.7487 165.914 72.6648 164.831 71.3277 164.831C69.9907 164.831 68.9067 165.914 68.9067 167.251C68.9067 168.589 69.9907 169.672 71.3277 169.672Z" fill="#FFC768"/>
<path opacity="0.3" d="M106.674 169.672C108.011 169.672 109.095 168.589 109.095 167.251C109.095 165.914 108.011 164.831 106.674 164.831C105.337 164.831 104.253 165.914 104.253 167.251C104.253 168.589 105.337 169.672 106.674 169.672Z" fill="#FFC768"/>
<path opacity="0.3" d="M142.021 169.672C143.358 169.672 144.442 168.589 144.442 167.251C144.442 165.914 143.358 164.831 142.021 164.831C140.684 164.831 139.6 165.914 139.6 167.251C139.6 168.589 140.684 169.672 142.021 169.672Z" fill="#FFC768"/>
<path opacity="0.3" d="M177.368 169.672C178.705 169.672 179.789 168.589 179.789 167.251C179.789 165.914 178.705 164.831 177.368 164.831C176.031 164.831 174.947 165.914 174.947 167.251C174.947 168.589 176.031 169.672 177.368 169.672Z" fill="#FFC768"/>
<path opacity="0.3" d="M212.715 169.672C214.052 169.672 215.136 168.589 215.136 167.251C215.136 165.914 214.052 164.831 212.715 164.831C211.378 164.831 210.294 165.914 210.294 167.251C210.294 168.589 211.378 169.672 212.715 169.672Z" fill="#FFC768"/>
<path opacity="0.3" d="M248.062 169.672C249.399 169.672 250.483 168.589 250.483 167.251C250.483 165.914 249.399 164.831 248.062 164.831C246.725 164.831 245.641 165.914 245.641 167.251C245.641 168.589 246.725 169.672 248.062 169.672Z" fill="#FFC768"/>
<path opacity="0.3" d="M283.408 169.672C284.745 169.672 285.829 168.589 285.829 167.251C285.829 165.914 284.745 164.831 283.408 164.831C282.071 164.831 280.987 165.914 280.987 167.251C280.987 168.589 282.071 169.672 283.408 169.672Z" fill="#FFC768"/>
</svg>
