<svg width="263" height="43" viewBox="0 0 263 43" fill="none" xmlns="http://www.w3.org/2000/svg">
<path d="M83.5462 16.3264C83.5462 22.4693 79.2698 26.8239 72.2239 26.8239H64.1804V37.4988H59.0111V5.96545H72.2239C79.2698 5.96545 83.5462 10.1153 83.5462 16.3264ZM78.2513 16.3742C78.2513 13.1731 76.2701 10.832 72.0355 10.832H64.1804V21.9574H72.0076C76.2701 21.9574 78.2513 19.5685 78.2513 16.381V16.3742Z" fill="white"/>
<path d="M110.92 21.8412V37.4714H105.688V22.906C105.688 19.0769 103.937 17.0498 100.107 17.0498C95.6915 17.0498 93.2987 19.8892 93.2987 24.6601V37.4987H88.0945V2.81201H93.2987V16.7768C94.1465 15.327 95.3842 14.1323 96.8773 13.3225C98.3704 12.5127 100.062 12.1187 101.768 12.1833C107.432 12.1833 110.92 15.8349 110.92 21.8412Z" fill="white"/>
<path d="M140.918 12.7225V37.4987H135.714V33.3557C134.785 34.8216 133.48 36.0247 131.93 36.846C130.38 37.6672 128.637 38.0781 126.875 38.0379C120.108 38.0379 115.183 32.68 115.183 25.1106C115.183 17.5412 120.199 12.1833 126.826 12.1833C128.604 12.1542 130.359 12.5797 131.918 13.4176C133.477 14.2555 134.785 15.4769 135.714 16.9611V12.7225H140.918ZM135.762 25.1106C135.762 20.3806 132.4 17.0498 127.977 17.0498C123.554 17.0498 120.429 20.3806 120.429 25.1106C120.429 29.8406 123.603 33.1782 127.977 33.1782C132.351 33.1782 135.748 29.8884 135.748 25.1106H135.762Z" fill="white"/>
<path d="M169.073 21.8413V37.4714H163.869V22.9061C163.869 19.1111 162.167 17.0635 158.358 17.0635C153.893 17.0635 151.501 19.9029 151.501 24.6738V37.4987H146.296V12.7226H151.501V16.8178C152.341 15.3587 153.576 14.1539 155.07 13.3353C156.564 12.5167 158.259 12.1158 159.97 12.1765C165.669 12.1834 169.073 15.8349 169.073 21.8413Z" fill="white"/>
<path d="M193.797 36.2361C191.571 37.3964 189.092 38.0145 186.57 38.038C181.365 38.038 177.319 34.8437 177.319 27.9978V17.5004H172.617V12.7226H177.319V7.09164L182.516 5.96545V12.7226H192.925V17.5004H182.516V27.7385C182.516 31.3423 184.219 33.3216 187.49 33.3216C189.342 33.1932 191.161 32.7737 192.876 32.0794L193.797 36.2361Z" fill="white"/>
<path d="M221.359 25.1106C221.4 26.8211 221.09 28.5222 220.449 30.1139C219.808 31.7057 218.848 33.156 217.626 34.3796C216.404 35.6033 214.944 36.5756 213.332 37.2394C211.721 37.9033 209.99 38.2452 208.241 38.2452C206.492 38.2452 204.761 37.9033 203.149 37.2394C201.538 36.5756 200.078 35.6033 198.856 34.3796C197.634 33.156 196.674 31.7057 196.033 30.1139C195.391 28.5222 195.082 26.8211 195.122 25.1106C195.082 23.4002 195.391 21.6991 196.033 20.1074C196.674 18.5156 197.634 17.0653 198.856 15.8417C200.078 14.618 201.538 13.6457 203.149 12.9819C204.761 12.318 206.492 11.9761 208.241 11.9761C209.99 11.9761 211.721 12.318 213.332 12.9819C214.944 13.6457 216.404 14.618 217.626 15.8417C218.848 17.0653 219.808 18.5156 220.449 20.1074C221.09 21.6991 221.4 23.4002 221.359 25.1106ZM200.368 25.1106C200.368 29.8884 203.821 33.1783 208.244 33.1783C212.667 33.1783 216.113 29.8884 216.113 25.1106C216.113 20.3329 212.618 17.0635 208.244 17.0635C203.87 17.0635 200.368 20.3397 200.368 25.1106Z" fill="white"/>
<path d="M262.505 21.5955V37.4987H257.3V22.6807C257.3 18.9882 255.78 17.0498 252.285 17.0498C248.183 17.0498 246.069 20.1554 246.069 24.6601L246.111 37.4987H240.865V22.6807C240.865 18.9882 239.344 17.0498 235.849 17.0498C231.747 17.0498 229.675 20.1554 229.675 24.6601V37.4987H224.478V12.7225H229.675V16.688C231.426 13.8487 233.916 12.1833 237.551 12.1833C241.416 12.1833 244.137 14.033 245.378 17.3638C246.138 15.7823 247.35 14.4508 248.868 13.5311C250.387 12.6114 252.146 12.1432 253.931 12.1833C259.282 12.1833 262.505 15.6984 262.505 21.5955Z" fill="white"/>
<path d="M50.7513 23.0289C50.5102 23.1675 50.2357 23.2405 49.956 23.2405C49.6745 23.2443 49.397 23.1749 49.1519 23.0393C48.9068 22.9038 48.7028 22.7071 48.5608 22.4692L41.0196 9.73305C40.8106 9.38164 40.5115 9.08973 40.1517 8.88621C39.792 8.6827 39.3842 8.57464 38.9686 8.57273L17.5729 8.61368H17.4403L12.2222 17.4867C12.0807 17.725 11.8769 17.9222 11.6316 18.0578C11.3864 18.1933 11.1086 18.2624 10.8269 18.258C10.5505 18.2573 10.279 18.1868 10.0386 18.0532C9.85706 17.9521 9.69783 17.8167 9.57022 17.6548C9.4426 17.4929 9.34913 17.3079 9.29526 17.1104C9.24138 16.9129 9.22817 16.7068 9.25639 16.5043C9.2846 16.3017 9.35369 16.1067 9.45962 15.9305L16.9799 3.14654C17.4675 2.32028 18.1678 1.63344 19.0111 1.15442C19.8544 0.675408 20.8113 0.420944 21.7864 0.416382H36.8339C37.0419 0.416382 37.2478 0.456457 37.44 0.53432C37.6321 0.612183 37.8067 0.726309 37.9537 0.870181C38.1008 1.01405 38.2174 1.18485 38.297 1.37283C38.3766 1.56081 38.4175 1.76228 38.4175 1.96575C38.4175 2.16921 38.3766 2.37069 38.297 2.55866C38.2174 2.74664 38.1008 2.91744 37.9537 3.06131C37.8067 3.20519 37.6321 3.31931 37.44 3.39717C37.2478 3.47504 37.0419 3.51511 36.8339 3.51511H21.7864C21.3694 3.51445 20.9596 3.62136 20.5983 3.82508C20.237 4.02879 19.937 4.3221 19.7285 4.67543L19.2541 5.48765L38.9547 5.46035C39.9275 5.46729 40.8815 5.72288 41.7221 6.20177C42.5628 6.68067 43.2609 7.36624 43.7473 8.19051L51.3234 20.9062C51.4287 21.0823 51.4974 21.2769 51.5256 21.479C51.5538 21.681 51.541 21.8866 51.4879 22.0838C51.4347 22.281 51.3423 22.466 51.2159 22.6282C51.0895 22.7904 50.9316 22.9266 50.7513 23.0289Z" fill="url(#paint0_linear_1218_4415)"/>
<path d="M29.2579 35.9835C29.2588 36.1875 29.2185 36.3897 29.1393 36.5785C29.0602 36.7673 28.9437 36.9389 28.7965 37.0835C28.6494 37.2281 28.4745 37.3428 28.2819 37.4211C28.0893 37.4994 27.8828 37.5397 27.6743 37.5397H16.6799H12.6198C11.6471 37.5327 10.6931 37.2771 9.85238 36.7982C9.01171 36.3193 8.31359 35.6338 7.82722 34.8095L0.334859 21.9846C0.230022 21.8087 0.161822 21.6142 0.134193 21.4124C0.106564 21.2105 0.120053 21.0053 0.173882 20.8086C0.227711 20.6119 0.320815 20.4276 0.447822 20.2663C0.57483 20.105 0.733227 19.9698 0.913877 19.8687C1.27896 19.6649 1.71143 19.6101 2.11756 19.7161C2.52368 19.8221 2.87072 20.0805 3.08345 20.4352L10.5688 33.2192C10.7759 33.5728 11.0744 33.8668 11.4344 34.0717C11.7945 34.2766 12.2033 34.3851 12.6198 34.3863H13.8825L4.69494 19.2476C4.20511 18.4175 3.94724 17.4759 3.94724 16.5174C3.94724 15.559 4.20511 14.6174 4.69494 13.7873L12.1454 1.03061C12.2443 0.846428 12.3801 0.683616 12.5447 0.551888C12.7093 0.42016 12.8993 0.322216 13.1035 0.263897C13.3076 0.205578 13.5216 0.188078 13.7328 0.212443C13.944 0.236808 14.148 0.302538 14.3327 0.405712C14.5173 0.508886 14.6788 0.64739 14.8076 0.812963C14.9364 0.978537 15.0297 1.16779 15.0821 1.36943C15.1345 1.57107 15.1449 1.78097 15.1125 1.9866C15.0802 2.19224 15.0059 2.3894 14.894 2.56633L7.41563 15.3503C7.20813 15.7033 7.09893 16.1034 7.09893 16.5106C7.09893 16.9178 7.20813 17.3179 7.41563 17.6709L17.5798 34.4H27.6743C27.885 34.4009 28.0933 34.4427 28.2873 34.523C28.4814 34.6033 28.6571 34.7205 28.8044 34.8678C28.9518 35.0151 29.0677 35.1896 29.1456 35.3811C29.2234 35.5727 29.2616 35.7774 29.2579 35.9835Z" fill="url(#paint1_linear_1218_4415)"/>
<path d="M46.3773 28.8099L38.8361 41.5598C38.6166 41.901 38.2703 42.1456 37.8701 42.2419C37.4699 42.3382 37.0471 42.2789 36.6908 42.0762C36.3345 41.8736 36.0725 41.5436 35.9599 41.1557C35.8474 40.7678 35.8932 40.3523 36.0876 39.9968L43.6357 27.2538C43.8412 26.9001 43.9492 26.5002 43.9492 26.0934C43.9492 25.6866 43.8412 25.2868 43.6357 24.9331L42.7916 23.4998L33.1087 39.9149C32.6218 40.7401 31.9226 41.4263 31.0806 41.9053C30.2386 42.3842 29.2831 42.6393 28.3092 42.645H13.2547C12.852 42.6189 12.4744 42.4439 12.1986 42.1556C11.9229 41.8673 11.7694 41.4871 11.7694 41.0922C11.7694 40.6973 11.9229 40.3172 12.1986 40.0289C12.4744 39.7406 12.852 39.5656 13.2547 39.5395H28.3161C28.7321 39.5396 29.1408 39.4324 29.5009 39.2287C29.861 39.025 30.1598 38.7319 30.3671 38.3791L40.936 20.4352C40.936 20.4352 40.936 20.4352 40.936 20.3942L36.1224 12.1696C36.0185 11.993 35.951 11.7982 35.924 11.5961C35.897 11.394 35.911 11.1887 35.9651 10.9919C36.0192 10.7952 36.1123 10.6107 36.2393 10.4491C36.3662 10.2876 36.5245 10.1521 36.7049 10.0503C36.8854 9.94861 37.0846 9.88265 37.2911 9.85623C37.4977 9.82982 37.7075 9.84346 37.9086 9.89638C38.1098 9.9493 38.2983 10.0405 38.4634 10.1647C38.6285 10.2889 38.767 10.4437 38.871 10.6203L46.3843 23.3837C46.8666 24.2103 47.1197 25.1459 47.1185 26.0978C47.1173 27.0496 46.8618 27.9845 46.3773 28.8099Z" fill="url(#paint2_linear_1218_4415)"/>
<defs>
<linearGradient id="paint0_linear_1218_4415" x1="13.443" y1="24.2097" x2="42.9848" y2="6.77153" gradientUnits="userSpaceOnUse">
<stop stop-color="#5F2CFF"/>
<stop offset="1" stop-color="#7722FC"/>
</linearGradient>
<linearGradient id="paint1_linear_1218_4415" x1="253.911" y1="1845.44" x2="1191.06" y2="1423.32" gradientUnits="userSpaceOnUse">
<stop stop-color="#5F2CFF"/>
<stop offset="1" stop-color="#7722FC"/>
</linearGradient>
<linearGradient id="paint2_linear_1218_4415" x1="690.119" y1="2236.76" x2="2349.62" y2="1204.16" gradientUnits="userSpaceOnUse">
<stop stop-color="#5F2CFF"/>
<stop offset="1" stop-color="#7722FC"/>
</linearGradient>
</defs>
</svg>
