<svg width="264" height="222" viewBox="0 0 264 222" fill="none" xmlns="http://www.w3.org/2000/svg">
<path d="M259 119.441C257.786 120.15 256.406 120.526 255 120.531C253.585 120.536 252.194 120.169 250.965 119.467C249.737 118.765 248.714 117.752 248 116.531L209.32 50.0712C208.254 48.2453 206.729 46.7306 204.895 45.6778C203.062 44.6251 200.984 44.0712 198.87 44.0712L89.66 44.2912C89.425 44.3019 89.1897 44.2817 88.96 44.2312L62.26 90.3312C61.1468 92.1058 59.3887 93.3793 57.3556 93.884C55.3225 94.3886 53.1729 94.0849 51.3591 93.0368C49.5454 91.9887 48.2089 90.2779 47.6309 88.2645C47.0528 86.251 47.2784 84.0918 48.26 82.2412L86.65 15.7212C89.1433 11.4249 92.7195 7.85734 97.022 5.3745C101.324 2.89167 106.203 1.5803 111.17 1.57121H188C190.146 1.57121 192.203 2.42355 193.72 3.94072C195.238 5.45789 196.09 7.51561 196.09 9.66121C196.09 11.8068 195.238 13.8645 193.72 15.3817C192.203 16.8989 190.146 17.7512 188 17.7512H111.16C109.035 17.752 106.947 18.3126 105.108 19.3764C103.268 20.4402 101.741 21.9698 100.68 23.8112L98.24 28.0512L198.79 27.8612H198.87C203.827 27.8767 208.693 29.1903 212.985 31.6711C217.276 34.1519 220.843 37.7135 223.33 42.0012L261.92 108.411C262.992 110.262 263.287 112.462 262.74 114.53C262.192 116.597 260.847 118.364 259 119.441Z" fill="url(#paint0_linear_448_3115)"/>
<path d="M149.31 187.001C149.302 189.142 148.446 191.192 146.93 192.702C145.414 194.213 143.36 195.061 141.22 195.061L85.12 194.901L64.37 194.851C59.4085 194.824 54.5406 193.498 50.2497 191.007C45.9588 188.516 42.3942 184.946 39.91 180.651L1.68004 114.001C0.75125 112.155 0.564345 110.023 1.15768 108.043C1.75101 106.063 3.07958 104.386 4.87075 103.355C6.66192 102.323 8.77985 102.017 10.7899 102.498C12.8 102.979 14.5497 104.211 15.68 105.941L53.89 172.601C54.9475 174.447 56.4734 175.981 58.3134 177.049C60.1535 178.116 62.2427 178.679 64.37 178.681H70.8L24 99.7012C21.4973 95.4014 20.1672 90.52 20.1426 85.5449C20.118 80.5698 21.3999 75.6755 23.86 71.3512L62 4.6712C62.4728 3.6572 63.1508 2.75229 63.9912 2.01366C64.8315 1.27502 65.8159 0.718718 66.8822 0.379896C67.9485 0.0410746 69.0734 -0.0728966 70.186 0.0451832C71.2985 0.163263 72.3745 0.510826 73.3459 1.06591C74.3173 1.621 75.163 2.37154 75.8296 3.27011C76.4962 4.16868 76.9691 5.19574 77.2185 6.28639C77.468 7.37704 77.4885 8.50758 77.2787 9.60656C77.069 10.7055 76.6336 11.7491 76 12.6712L37.85 79.3912C36.7982 81.2381 36.2501 83.3289 36.2607 85.4542C36.2712 87.5796 36.84 89.6649 37.91 91.5012L89.71 178.741L141.22 178.881C143.367 178.894 145.421 179.755 146.937 181.276C148.452 182.797 149.305 184.854 149.31 187.001Z" fill="url(#paint1_linear_448_3115)"/>
<path d="M236.66 149.581L198.19 216.081C197.471 217.298 196.447 218.307 195.22 219.009C193.993 219.71 192.604 220.08 191.19 220.081C189.784 220.076 188.404 219.7 187.19 218.991C185.337 217.927 183.981 216.172 183.419 214.111C182.857 212.049 183.134 209.849 184.19 207.991L222.69 141.491C223.747 139.648 224.303 137.561 224.303 135.436C224.303 133.312 223.747 131.224 222.69 129.381L218.4 121.921L169 207.531C166.515 211.823 162.947 215.388 158.653 217.869C154.359 220.35 149.489 221.661 144.53 221.671L67.69 221.761C65.5923 221.687 63.6051 220.802 62.1472 219.292C60.6893 217.782 59.8745 215.765 59.8745 213.666C59.8745 211.567 60.6893 209.55 62.1472 208.04C63.6051 206.53 65.5923 205.645 67.69 205.571L144.53 205.491C146.654 205.492 148.742 204.934 150.581 203.872C152.421 202.81 153.949 201.281 155.01 199.441L209.01 105.921C209.07 105.841 209.1 105.761 209.15 105.701L184.44 62.7712C183.511 60.9248 183.324 58.793 183.918 56.8132C184.511 54.8334 185.84 53.1558 187.631 52.1246C189.422 51.0934 191.54 50.7868 193.55 51.2678C195.56 51.7488 197.31 52.9809 198.44 54.7112L236.78 121.291C239.238 125.605 240.52 130.488 240.499 135.452C240.478 140.417 239.154 145.289 236.66 149.581Z" fill="url(#paint2_linear_448_3115)"/>
<defs>
<linearGradient id="paint0_linear_448_3115" x1="68.58" y1="125.581" x2="221.04" y2="37.5612" gradientUnits="userSpaceOnUse">
<stop stop-color="#5F2CFF"/>
<stop offset="1" stop-color="#6C1FE5"/>
</linearGradient>
<linearGradient id="paint1_linear_448_3115" x1="8068.44" y1="37601.9" x2="25208.2" y2="30068" gradientUnits="userSpaceOnUse">
<stop stop-color="#5F2CFF"/>
<stop offset="1" stop-color="#6C1FE5"/>
</linearGradient>
<linearGradient id="paint2_linear_448_3115" x1="16610.6" y1="44186.1" x2="47110.4" y2="25555.1" gradientUnits="userSpaceOnUse">
<stop stop-color="#5F2CFF"/>
<stop offset="1" stop-color="#6C1FE5"/>
</linearGradient>
</defs>
</svg>
