<svg width="377" height="63" viewBox="0 0 377 63" fill="none" xmlns="http://www.w3.org/2000/svg">
<path d="M120.12 24.4C120.12 33.4 113.98 39.77 103.88 39.77H92.4V55.42H84.94V9.22H103.88C114 9.22 120.12 15.29 120.12 24.4ZM112.53 24.46C112.53 19.78 109.69 16.35 103.62 16.35H92.4V32.65H103.62C109.69 32.65 112.53 29.15 112.53 24.46Z" fill="#201C33"/>
<path d="M159.31 32.51V55.42H151.85V34C151.85 28.39 149.35 25.42 143.85 25.42C137.51 25.42 134.08 29.58 134.08 36.58V55.42H126.62V4.6H134.08V25.06C135.294 22.9345 137.068 21.1829 139.208 19.9961C141.349 18.8094 143.774 18.2331 146.22 18.33C154.36 18.33 159.31 23.67 159.31 32.51Z" fill="#201C33"/>
<path d="M202.33 19.12V55.42H194.88V49.34C193.547 51.4897 191.676 53.2543 189.452 54.4592C187.229 55.6641 184.729 56.2676 182.2 56.21C172.5 56.21 165.44 48.35 165.44 37.27C165.44 26.19 172.64 18.33 182.14 18.33C184.689 18.2884 187.205 18.9122 189.439 20.1397C191.673 21.3673 193.548 23.1563 194.88 25.33V19.13L202.33 19.12ZM194.94 37.27C194.94 30.34 190.12 25.45 183.79 25.45C177.46 25.45 173 30.34 173 37.27C173 44.2 177.55 49.08 183.82 49.08C190.09 49.08 194.94 44.26 194.94 37.27Z" fill="#201C33"/>
<path d="M242.71 32.51V55.42H235.26V34C235.26 28.39 232.82 25.42 227.34 25.42C220.94 25.42 217.5 29.58 217.5 36.58V55.42H210.05V19.12H217.5V25.12C218.708 22.9833 220.481 21.2198 222.623 20.0223C224.766 18.8248 227.197 18.2394 229.65 18.33C237.83 18.33 242.71 23.67 242.71 32.51Z" fill="#201C33"/>
<path d="M278.16 53.57C274.966 55.27 271.409 56.1756 267.79 56.21C260.34 56.21 254.53 51.52 254.53 41.49V26.11H247.8V19.11H254.53V10.87L262 9.22V19.12H276.9V26.12H262V41.12C262 46.4 264.44 49.31 269.13 49.31C271.782 49.1335 274.388 48.5325 276.85 47.53L278.16 53.57Z" fill="#201C33"/>
<path d="M317.67 37.27C317.67 39.7402 317.183 42.1861 316.238 44.4683C315.293 46.7504 313.907 48.824 312.161 50.5707C310.414 52.3173 308.34 53.7029 306.058 54.6482C303.776 55.5935 301.33 56.08 298.86 56.08C296.39 56.08 293.944 55.5935 291.662 54.6482C289.38 53.7029 287.306 52.3173 285.559 50.5707C283.813 48.824 282.427 46.7504 281.482 44.4683C280.537 42.1861 280.05 39.7402 280.05 37.27C280.05 34.7998 280.537 32.3539 281.482 30.0717C282.427 27.7896 283.813 25.716 285.559 23.9693C287.306 22.2227 289.38 20.8371 291.662 19.8918C293.944 18.9465 296.39 18.46 298.86 18.46C301.33 18.46 303.776 18.9465 306.058 19.8918C308.34 20.8371 310.414 22.2227 312.161 23.9693C313.907 25.716 315.293 27.7896 316.238 30.0717C317.183 32.3539 317.67 34.7998 317.67 37.27ZM287.58 37.27C287.58 44.27 292.53 49.08 298.86 49.08C305.19 49.08 310.15 44.26 310.15 37.27C310.15 30.28 305.15 25.45 298.86 25.45C292.57 25.45 287.58 30.27 287.58 37.27Z" fill="#201C33"/>
<path d="M376.64 32.12V55.42H369.18V33.7C369.18 28.29 367.01 25.45 361.99 25.45C356.12 25.45 353.08 30.01 353.08 36.61L353.15 55.42H345.62V33.7C345.62 28.29 343.45 25.45 338.43 25.45C332.56 25.45 329.59 30.01 329.59 36.61V55.42H322.13V19.12H329.59V24.93C332.1 20.77 335.66 18.33 340.87 18.33C346.42 18.33 350.31 21.03 352.09 25.92C353.18 23.5998 354.921 21.6469 357.102 20.2992C359.282 18.9515 361.807 18.2673 364.37 18.33C372 18.33 376.64 23.47 376.64 32.12Z" fill="#201C33"/>
<path d="M73.0999 34.22C72.7518 34.4156 72.3593 34.5189 71.9599 34.52C71.5558 34.5287 71.1568 34.4283 70.8049 34.2295C70.4529 34.0306 70.1611 33.7406 69.9599 33.39L59.1499 14.73C58.8549 14.2089 58.4279 13.7746 57.9118 13.471C57.3957 13.1673 56.8087 13.0048 56.2099 13L25.5299 13.06C25.4637 13.0703 25.3962 13.0703 25.3299 13.06L17.8499 26C17.6477 26.3504 17.3559 26.6406 17.0044 26.841C16.6529 27.0413 16.2545 27.1445 15.8499 27.14C15.449 27.1435 15.0543 27.0412 14.7055 26.8434C14.3568 26.6456 14.0663 26.3594 13.8635 26.0136C13.6606 25.6677 13.5526 25.2745 13.5502 24.8736C13.5478 24.4727 13.6512 24.0782 13.8499 23.73L24.6899 5.08C25.3888 3.86944 26.3927 2.86313 27.6016 2.16132C28.8105 1.4595 30.1821 1.08669 31.5799 1.08H53.1599C53.7372 1.1183 54.2784 1.37463 54.6737 1.79707C55.0691 2.2195 55.289 2.77643 55.289 3.355C55.289 3.93357 55.0691 4.4905 54.6737 4.91294C54.2784 5.33537 53.7372 5.59171 53.1599 5.63H31.5799C30.9833 5.62772 30.3967 5.7839 29.8801 6.08258C29.3636 6.38127 28.9356 6.81174 28.6399 7.33L27.9999 8.55L56.2399 8.49C57.6361 8.49843 59.0056 8.87207 60.2126 9.5738C61.4196 10.2755 62.4219 11.2809 63.1199 12.49L73.9199 31.11C74.0722 31.3676 74.1718 31.6528 74.213 31.9491C74.2542 32.2455 74.2361 32.547 74.1598 32.8364C74.0835 33.1257 73.9506 33.3969 73.7686 33.6345C73.5867 33.872 73.3594 34.071 73.0999 34.22Z" fill="url(#paint0_linear_448_3152)"/>
<path d="M42.3 53.19C42.2947 53.7956 42.0498 54.3745 41.6187 54.7999C41.1877 55.2253 40.6056 55.4627 40 55.46H24.24H18.43C17.0356 55.4498 15.6681 55.0754 14.463 54.3737C13.2579 53.6721 12.2572 52.6676 11.56 51.46L0.830015 32.68C0.53032 32.1575 0.450454 31.5374 0.607984 30.956C0.765515 30.3747 1.14754 29.8797 1.67002 29.58C2.19249 29.2803 2.81262 29.2004 3.39399 29.358C3.97535 29.5155 4.47032 29.8975 4.77002 30.42L15.5 49.14C15.8026 49.6663 16.2402 50.1022 16.7676 50.4028C17.2949 50.7034 17.893 50.8578 18.5 50.85H20.31L7.08002 28.67C6.37787 27.4538 6.00822 26.0743 6.00822 24.67C6.00822 23.2657 6.37787 21.8862 7.08002 20.67L17.76 2C18.0597 1.47753 18.5547 1.0955 19.136 0.937971C19.7174 0.78044 20.3375 0.860307 20.86 1.16C21.3825 1.4597 21.7645 1.95467 21.922 2.53603C22.0796 3.11739 21.9997 3.73753 21.7 4.26L11 23C10.7026 23.5172 10.546 24.1034 10.546 24.7C10.546 25.2966 10.7026 25.8828 11 26.4L25.56 50.9H40.02C40.6256 50.9026 41.2055 51.1451 41.6328 51.5742C42.0601 52.0034 42.3 52.5844 42.3 53.19Z" fill="url(#paint1_linear_448_3152)"/>
<path d="M66.83 42.68L56 61.36C55.7957 61.7078 55.5031 61.9955 55.1519 62.1939C54.8007 62.3923 54.4033 62.4945 54 62.49C53.599 62.4935 53.2043 62.3912 52.8555 62.1934C52.5068 61.9956 52.2163 61.7094 52.0135 61.3636C51.8107 61.0177 51.7026 60.6245 51.7002 60.2236C51.6979 59.8227 51.8012 59.4282 52 59.08L62.9 40.4C63.1994 39.8835 63.357 39.297 63.357 38.7C63.357 38.103 63.1994 37.5165 62.9 37L61.7 34.9L47.81 59C47.1174 60.2117 46.1177 61.2195 44.9116 61.9217C43.7055 62.6239 42.3356 62.9959 40.94 63H19.36C18.7579 63 18.1805 62.7608 17.7548 62.3351C17.3291 61.9094 17.09 61.332 17.09 60.73C17.09 60.128 17.3291 59.5506 17.7548 59.1249C18.1805 58.6992 18.7579 58.46 19.36 58.46H40.94C41.5458 58.4678 42.1428 58.3145 42.6699 58.0158C43.197 57.7171 43.6353 57.2837 43.94 56.76L59 30.42V30.36L52.13 18.3C51.8303 17.7696 51.7536 17.1418 51.9167 16.5548C52.0799 15.9678 52.4695 15.4697 53 15.17C53.5304 14.8703 54.1582 14.7936 54.7452 14.9568C55.3321 15.1199 55.8303 15.5096 56.13 16.04L66.9 34.74C67.5804 35.9551 67.9319 37.3267 67.9196 38.7193C67.9073 40.1119 67.5317 41.4771 66.83 42.68Z" fill="url(#paint2_linear_448_3152)"/>
<defs>
<linearGradient id="paint0_linear_448_3152" x1="19.6199" y1="35.94" x2="62.4399" y2="11.22" gradientUnits="userSpaceOnUse">
<stop stop-color="#5F2CFF"/>
<stop offset="1" stop-color="#6C1FE5"/>
</linearGradient>
<linearGradient id="paint1_linear_448_3152" x1="838.875" y1="3270.92" x2="2190.85" y2="2673.73" gradientUnits="userSpaceOnUse">
<stop stop-color="#5F2CFF"/>
<stop offset="1" stop-color="#6C1FE5"/>
</linearGradient>
<linearGradient id="paint2_linear_448_3152" x1="1569.44" y1="3786.12" x2="3982.82" y2="2314.68" gradientUnits="userSpaceOnUse">
<stop stop-color="#5F2CFF"/>
<stop offset="1" stop-color="#6C1FE5"/>
</linearGradient>
</defs>
</svg>
