<svg width="50" height="50" viewBox="0 0 50 50" fill="none" xmlns="http://www.w3.org/2000/svg">
<path d="M46.1667 26.3688C45.9643 26.4837 45.7343 26.5447 45.5 26.5456C45.2642 26.5463 45.0323 26.4868 44.8276 26.3729C44.6228 26.2591 44.4524 26.095 44.3333 25.8969L37.8867 15.1196C37.709 14.8235 37.4547 14.5779 37.1492 14.4072C36.8436 14.2365 36.4974 14.1466 36.145 14.1466L17.9433 14.1823C17.9042 14.1841 17.865 14.1808 17.8267 14.1726L13.3767 21.6483C13.1911 21.936 12.8981 22.1426 12.5593 22.2244C12.2204 22.3062 11.8621 22.257 11.5599 22.087C11.2576 21.9171 11.0348 21.6396 10.9385 21.3131C10.8421 20.9866 10.8797 20.6365 11.0433 20.3364L17.4417 9.54935C17.8572 8.85265 18.4533 8.27413 19.1703 7.87151C19.8874 7.46889 20.7004 7.25623 21.5283 7.25476H34.3333C34.6909 7.25476 35.0339 7.39298 35.2867 7.639C35.5396 7.88503 35.6817 8.21872 35.6817 8.56665C35.6817 8.91459 35.5396 9.24827 35.2867 9.4943C35.0339 9.74033 34.6909 9.87854 34.3333 9.87854H21.5267C21.1725 9.87868 20.8246 9.96957 20.5179 10.1421C20.2113 10.3146 19.9568 10.5626 19.78 10.8612L19.3733 11.5488L36.1317 11.518H36.145C36.9711 11.5205 37.7822 11.7335 38.4974 12.1358C39.2127 12.5381 39.8071 13.1157 40.2217 13.811L46.6533 24.5802C46.832 24.8803 46.8812 25.2371 46.7899 25.5723C46.6987 25.9076 46.4746 26.194 46.1667 26.3688Z" fill="url(#paint0_linear_629_250)"/>
<path d="M27.885 37.3245C27.8837 37.6716 27.741 38.004 27.4883 38.249C27.2356 38.494 26.8934 38.6315 26.5367 38.6315L17.1867 38.6056L13.7283 38.5975C12.9014 38.593 12.0901 38.3781 11.3749 37.9742C10.6598 37.5702 10.0657 36.9913 9.65167 36.2948L3.28 25.4867C3.12521 25.1873 3.09406 24.8416 3.19295 24.5205C3.29183 24.1995 3.51326 23.9274 3.81179 23.7602C4.11032 23.593 4.46331 23.5433 4.79832 23.6213C5.13332 23.6993 5.42495 23.8991 5.61334 24.1797L11.9817 34.9894C12.1579 35.2887 12.4122 35.5375 12.7189 35.7106C13.0256 35.8837 13.3738 35.975 13.7283 35.9753H14.8L7 23.1678C6.58288 22.4705 6.36119 21.6789 6.3571 20.8721C6.353 20.0654 6.56665 19.2717 6.97667 18.5705L13.3333 7.75749C13.4121 7.59306 13.5251 7.44632 13.6652 7.32654C13.8052 7.20676 13.9693 7.11655 14.147 7.0616C14.3247 7.00666 14.5122 6.98818 14.6977 7.00733C14.8831 7.02648 15.0624 7.08284 15.2243 7.17285C15.3862 7.26286 15.5272 7.38457 15.6383 7.53029C15.7494 7.676 15.8282 7.84255 15.8698 8.01941C15.9113 8.19628 15.9147 8.37961 15.8798 8.55782C15.8448 8.73603 15.7723 8.90525 15.6667 9.05479L9.30834 19.8742C9.13304 20.1737 9.04169 20.5128 9.04344 20.8574C9.0452 21.2021 9.13999 21.5402 9.31834 21.838L17.9517 35.9851L26.5367 36.0078C26.8945 36.0099 27.2369 36.1495 27.4894 36.3961C27.742 36.6427 27.8841 36.9764 27.885 37.3245Z" fill="url(#paint1_linear_629_250)"/>
<path d="M42.4433 31.2564L36.0317 42.0402C35.9118 42.2375 35.7412 42.4012 35.5367 42.5149C35.3321 42.6286 35.1006 42.6886 34.865 42.6888C34.6307 42.6879 34.4007 42.627 34.1983 42.5121C33.8895 42.3395 33.6635 42.0549 33.5698 41.7206C33.4761 41.3863 33.5223 41.0295 33.6983 40.7283L40.115 29.9445C40.2912 29.6456 40.3839 29.3071 40.3839 28.9626C40.3839 28.6181 40.2912 28.2796 40.115 27.9807L39.4 26.771L31.1667 40.6537C30.7525 41.3497 30.1579 41.9277 29.4422 42.3301C28.7266 42.7325 27.9149 42.9451 27.0883 42.9467L14.2817 42.9613C13.932 42.9493 13.6009 42.8057 13.3579 42.5609C13.1149 42.316 12.9791 41.9889 12.9791 41.6485C12.9791 41.3082 13.1149 40.9811 13.3579 40.7362C13.6009 40.4913 13.932 40.3478 14.2817 40.3358L27.0883 40.3229C27.4424 40.3231 27.7903 40.2325 28.0969 40.0603C28.4035 39.888 28.6581 39.6402 28.835 39.3418L37.835 24.1764C37.845 24.1634 37.85 24.1504 37.8583 24.1407L33.74 17.1791C33.5852 16.8797 33.554 16.534 33.6529 16.2129C33.7518 15.8919 33.9733 15.6198 34.2718 15.4526C34.5703 15.2854 34.9233 15.2357 35.2583 15.3137C35.5933 15.3917 35.8849 15.5915 36.0733 15.8721L42.4633 26.6688C42.873 27.3683 43.0867 28.1601 43.0832 28.9652C43.0797 29.7703 42.8591 30.5603 42.4433 31.2564Z" fill="url(#paint2_linear_629_250)"/>
<defs>
<linearGradient id="paint0_linear_629_250" x1="14.43" y1="27.3645" x2="39.4872" y2="12.4963" gradientUnits="userSpaceOnUse">
<stop stop-color="#5F2CFF"/>
<stop offset="1" stop-color="#6C1FE5"/>
</linearGradient>
<linearGradient id="paint1_linear_629_250" x1="1347.74" y1="6104.61" x2="4178.56" y2="4825.75" gradientUnits="userSpaceOnUse">
<stop stop-color="#5F2CFF"/>
<stop offset="1" stop-color="#6C1FE5"/>
</linearGradient>
<linearGradient id="paint2_linear_629_250" x1="2771.43" y1="7172.32" x2="7778.09" y2="4029.01" gradientUnits="userSpaceOnUse">
<stop stop-color="#5F2CFF"/>
<stop offset="1" stop-color="#6C1FE5"/>
</linearGradient>
</defs>
</svg>
