<svg width="396" height="274" viewBox="0 0 396 274" fill="none" xmlns="http://www.w3.org/2000/svg">
<g clip-path="url(#clip0_1240_5958)">
<path d="M35.79 119.668C28.4587 125.67 40.4553 178.35 40.4553 178.35C40.4553 178.35 43.1212 258.703 48.7863 262.371C54.4514 266.038 67.1145 262.037 72.1131 261.371C77.1117 260.704 72.7796 211.025 65.4483 192.687C58.117 174.349 63.7821 147.675 63.7821 147.675L103.438 155.344C103.438 155.344 79.4444 175.682 80.4441 180.017C81.4439 184.351 107.103 199.022 111.769 199.688C116.434 200.355 125.432 173.015 133.429 154.344C141.427 135.672 78.778 123.669 78.778 123.669L70.1137 107.332C70.1137 107.332 43.1213 113.667 35.79 119.668Z" fill="#2F2E41"/>
<path d="M55.6927 263.754C55.6927 263.754 53.2745 272.223 55.6927 272.223C58.1108 272.223 62.5442 274.642 69.3957 273.835C76.2472 273.029 74.232 264.561 69.3957 263.351C64.5593 262.141 65.7684 252.464 65.7684 252.464C64.1563 249.238 56.4987 253.27 56.4987 253.27L55.6927 263.754Z" fill="#2F2E41"/>
<path d="M90.0239 196.415C90.0239 196.415 85.8753 204.183 88.239 204.693C90.6028 205.203 94.4265 208.504 101.294 209.161C108.161 209.818 107.976 201.115 103.504 198.913C99.0311 196.71 102.253 187.504 102.253 187.504C101.357 184.011 93.0216 186.337 93.0216 186.337L90.0239 196.415Z" fill="#2F2E41"/>
<path d="M40.2885 47.4836C40.955 48.8173 37.9558 65.4881 37.9558 65.4881L40.6217 70.156C40.6217 70.156 55.9508 64.1545 53.6181 63.1542C51.2854 62.154 51.6187 49.8176 51.6187 49.8176C51.6187 49.8176 39.622 46.15 40.2885 47.4836Z" fill="#FFB9B9"/>
<path d="M46.0582 52.6223C57.3426 52.6223 66.4904 43.4696 66.4904 32.1793C66.4904 20.8889 57.3426 11.7362 46.0582 11.7362C34.7738 11.7362 25.626 20.8889 25.626 32.1793C25.626 43.4696 34.7738 52.6223 46.0582 52.6223Z" fill="#2F2E41"/>
<path d="M44.649 21.5004C49.3184 21.5004 53.1038 17.7131 53.1038 13.0412C53.1038 8.36934 49.3184 4.58203 44.649 4.58203C39.9796 4.58203 36.1943 8.36934 36.1943 13.0412C36.1943 17.7131 39.9796 21.5004 44.649 21.5004Z" fill="#2F2E41"/>
<path d="M48.3481 16.8727C48.6407 16.9031 48.9347 16.9183 49.2289 16.9184C50.3391 16.9184 51.4386 16.6996 52.4643 16.2745C53.4901 15.8494 54.4221 15.2263 55.2072 14.4408C55.9923 13.6553 56.6151 12.7227 57.04 11.6964C57.4649 10.6701 57.6836 9.57008 57.6836 8.4592C57.6836 7.34832 57.4649 6.24832 57.04 5.222C56.6151 4.19569 55.9923 3.26315 55.2072 2.47764C54.4221 1.69213 53.4901 1.06903 52.4643 0.643918C51.4386 0.218803 50.3391 -3.31068e-08 49.2289 0C48.9347 7.56919e-05 48.6407 0.0153407 48.3481 0.0457354C50.4266 0.263622 52.3508 1.24398 53.7495 2.79765C55.1482 4.35133 55.9221 6.36822 55.9221 8.4592C55.9221 10.5502 55.1482 12.5671 53.7495 14.1208C52.3508 15.6744 50.4266 16.6548 48.3481 16.8727Z" fill="#2F2E41"/>
<path d="M46.6201 56.1524C54.3499 56.1524 60.6162 49.8828 60.6162 42.1489C60.6162 34.415 54.3499 28.1454 46.6201 28.1454C38.8903 28.1454 32.624 34.415 32.624 42.1489C32.624 49.8828 38.8903 56.1524 46.6201 56.1524Z" fill="#FFB9B9"/>
<path d="M26.4591 63.6543C22.1269 64.6545 14.7957 75.3239 14.7957 75.3239L26.4591 86.9935C26.4591 86.9935 34.7901 118.335 35.7898 119.668C42.3393 128.406 71.7798 108.999 71.7798 108.999C71.7798 108.999 70.6134 99.4966 71.2799 94.8288C71.9209 90.3394 68.7806 81.3254 68.7806 81.3254C68.7806 81.3254 79.7776 76.6576 77.4449 71.9897C75.1122 67.3219 60.7828 56.6525 54.7845 60.3201C48.7862 63.9877 36.7896 60.3201 36.7896 60.3201C36.7896 60.3201 30.7912 62.654 26.4591 63.6543Z" fill="#E6E6E6"/>
<path d="M111.602 130.838C111.602 130.838 130.597 147.175 135.262 143.841C139.927 140.507 117.267 128.837 117.267 128.837L111.602 130.838Z" fill="#FFB9B9"/>
<path d="M26.2925 125.17C28.9585 128.17 41.6216 120.502 39.9981 117.096C38.3747 113.691 28.292 120.502 28.292 120.502C28.292 120.502 23.6266 122.169 26.2925 125.17Z" fill="#FFB9B9"/>
<path d="M26.4591 79.9918L12.463 105.998C12.463 105.998 28.4585 119.335 30.458 119.668C32.4574 120.002 26.4591 128.671 26.4591 128.671C26.4591 128.671 8.46411 116.001 1.46607 109.666C-5.53198 103.331 14.7957 75.324 14.7957 75.324L20.794 71.6564L26.4591 79.9918Z" fill="#E6E6E6"/>
<path d="M67.1145 78.9915L83.4433 104.331C83.4433 104.331 108.436 132.338 111.769 133.672C115.101 135.005 119.1 128.671 119.1 128.671L89.1084 92.3281L77.7782 71.9897L73.4461 70.3226L67.1145 78.9915Z" fill="#E6E6E6"/>
<path d="M46.0582 33.9701C53.8406 33.9701 60.1494 30.1828 60.1494 25.511C60.1494 20.8391 53.8406 17.0518 46.0582 17.0518C38.2759 17.0518 31.967 20.8391 31.967 25.511C31.967 30.1828 38.2759 33.9701 46.0582 33.9701Z" fill="#2F2E41"/>
<path d="M85.5886 208.028C85.1268 208.028 84.6841 208.212 84.3575 208.539C84.0309 208.865 83.8472 209.308 83.8467 209.77V269.215C83.8472 269.677 84.0309 270.12 84.3575 270.446C84.6841 270.773 85.1268 270.957 85.5886 270.958H288.176C288.638 270.957 289.08 270.773 289.407 270.446C289.733 270.12 289.917 269.677 289.918 269.215V209.77C289.917 209.308 289.733 208.865 289.407 208.539C289.08 208.212 288.638 208.028 288.176 208.028L85.5886 208.028Z" fill="white" fill-opacity="0.1"/>
<path d="M88.2122 266.59H285.552V212.395H88.2122V266.59Z" fill="#161429"/>
<path d="M260.643 255.347C260.264 255.346 259.888 255.421 259.538 255.566C259.187 255.711 258.869 255.923 258.601 256.191C258.332 256.459 258.119 256.778 257.974 257.128C257.829 257.479 257.754 257.855 257.754 258.234C257.754 258.613 257.829 258.989 257.974 259.34C258.119 259.69 258.332 260.009 258.601 260.277C258.869 260.545 259.187 260.757 259.538 260.902C259.888 261.047 260.264 261.121 260.643 261.121H272.185C272.95 261.121 273.684 260.817 274.225 260.275C274.767 259.734 275.071 259 275.071 258.234C275.071 257.468 274.767 256.734 274.225 256.193C273.684 255.651 272.95 255.347 272.185 255.347H260.643Z" fill="#FFC768"/>
<path d="M275.071 249.747H141.833V250.507H275.071V249.747Z" fill="white" fill-opacity="0.1"/>
<path d="M113.982 256.308C123.264 256.308 130.788 248.779 130.788 239.492C130.788 230.206 123.264 222.677 113.982 222.677C104.7 222.677 97.1753 230.206 97.1753 239.492C97.1753 248.779 104.7 256.308 113.982 256.308Z" fill="#7722FC"/>
<path d="M142.043 245.506L141.622 244.874L155.468 235.638L164.962 240.198L178.618 231.469L205.783 243.063L227.417 232.43L248.423 240.951L274.819 217.56L275.322 218.129L248.574 241.832L227.446 233.262L205.805 243.898L178.689 232.325L165.015 241.066L155.529 236.511L142.043 245.506Z" fill="#3F3D56"/>
<path d="M144.3 255.744C143.976 255.744 143.655 255.807 143.355 255.931C143.055 256.055 142.783 256.237 142.553 256.466C142.324 256.695 142.142 256.968 142.018 257.267C141.894 257.567 141.83 257.888 141.83 258.213C141.83 258.537 141.894 258.859 142.018 259.158C142.142 259.458 142.324 259.73 142.553 259.96C142.783 260.189 143.055 260.371 143.355 260.494C143.655 260.618 143.976 260.682 144.3 260.681H170.113C170.766 260.681 171.393 260.42 171.855 259.957C172.317 259.494 172.577 258.867 172.577 258.213C172.577 257.559 172.317 256.931 171.855 256.468C171.393 256.005 170.766 255.745 170.113 255.744H144.3Z" fill="white" fill-opacity="0.1"/>
<path d="M120.401 231.97H123.027L117.563 237.38C116.608 238.322 115.322 238.85 113.981 238.85C112.641 238.85 111.354 238.322 110.4 237.38L104.936 231.97H107.562L111.713 236.08C112.318 236.676 113.133 237.011 113.982 237.011C114.83 237.011 115.645 236.676 116.25 236.08L120.401 231.97ZM107.529 247.015H104.903L110.401 241.571C111.355 240.63 112.642 240.102 113.982 240.102C115.322 240.102 116.609 240.63 117.563 241.571L123.061 247.015H120.435L116.25 242.872C115.645 242.275 114.83 241.941 113.982 241.941C113.133 241.941 112.318 242.275 111.713 242.872L107.529 247.015Z" fill="white"/>
<path d="M111.969 17.6222C111.507 17.6227 111.064 17.8065 110.738 18.1333C110.411 18.46 110.228 18.903 110.227 19.3651V78.8093C110.228 79.2714 110.411 79.7144 110.738 80.0411C111.064 80.3678 111.507 80.5516 111.969 80.5522H314.556C315.018 80.5516 315.461 80.3678 315.787 80.0411C316.114 79.7144 316.297 79.2714 316.298 78.8093V19.3651C316.297 18.903 316.114 18.46 315.787 18.1333C315.461 17.8065 315.018 17.6227 314.556 17.6222L111.969 17.6222Z" fill="white" fill-opacity="0.1"/>
<path d="M114.592 76.1846H311.933V21.9899H114.592V76.1846Z" fill="#161429"/>
<path d="M287.023 64.9417C286.258 64.9417 285.524 65.2458 284.983 65.7872C284.442 66.3287 284.138 67.063 284.138 67.8287C284.138 68.5944 284.442 69.3287 284.983 69.8701C285.524 70.4115 286.258 70.7157 287.023 70.7157H298.565C299.331 70.7157 300.065 70.4115 300.606 69.8701C301.147 69.3287 301.451 68.5944 301.451 67.8287C301.451 67.063 301.147 66.3287 300.606 65.7872C300.065 65.2458 299.331 64.9417 298.565 64.9417H287.023Z" fill="#FFC768"/>
<path d="M301.451 59.3418H168.213V60.1014H301.451V59.3418Z" fill="white" fill-opacity="0.1"/>
<path d="M140.362 65.9026C149.644 65.9026 157.169 58.3741 157.169 49.0872C157.169 39.8003 149.644 32.2719 140.362 32.2719C131.08 32.2719 123.556 39.8003 123.556 49.0872C123.556 58.3741 131.08 65.9026 140.362 65.9026Z" fill="#7722FC"/>
<path d="M168.424 55.1L168.003 54.4679L181.848 45.2329L191.342 49.7927L204.998 41.0633L205.183 41.1418L232.164 52.6575L253.797 42.025L274.804 50.5459L301.199 27.1543L301.703 27.723L274.955 51.4267L253.827 42.8567L232.186 53.4928L205.069 41.9194L191.395 50.6605L181.909 46.1048L168.424 55.1Z" fill="#3F3D56"/>
<path d="M170.681 65.3389C170.027 65.3397 169.4 65.6002 168.938 66.0631C168.476 66.5259 168.216 67.1534 168.216 67.8075C168.216 68.4617 168.476 69.0892 168.938 69.552C169.4 70.0149 170.027 70.2754 170.681 70.2762H196.493C197.147 70.2762 197.775 70.0161 198.238 69.5532C198.7 69.0902 198.96 68.4623 198.96 67.8075C198.96 67.1528 198.7 66.5249 198.238 66.0619C197.775 65.599 197.147 65.3389 196.493 65.3389H170.681Z" fill="white" fill-opacity="0.1"/>
<path d="M147.124 47.1246C147.438 45.0203 145.837 43.8891 143.648 43.1345L144.358 40.284L142.623 39.8516L141.932 42.627C141.476 42.5133 141.008 42.406 140.543 42.2998L141.239 39.5061L139.506 39.0737L138.795 41.9232C138.418 41.8372 138.047 41.7522 137.688 41.6628L137.69 41.6539L135.298 41.0564L134.837 42.9096C134.837 42.9096 136.124 43.2047 136.096 43.2229C136.336 43.2517 136.555 43.3735 136.707 43.5622C136.858 43.751 136.929 43.9915 136.904 44.2321L136.095 47.4794C136.157 47.4947 136.217 47.514 136.276 47.5372L136.093 47.4917L134.958 52.0407C134.933 52.1201 134.893 52.1938 134.84 52.2576C134.786 52.3213 134.721 52.3738 134.647 52.4121C134.573 52.4504 134.492 52.4738 134.409 52.4808C134.326 52.4878 134.243 52.4783 134.164 52.4529C134.181 52.4781 132.903 52.1381 132.903 52.1381L132.042 54.1247L134.299 54.6876C134.719 54.7929 135.131 54.9031 135.535 55.0069L134.818 57.8905L136.55 58.3229L137.261 55.4704C137.734 55.5989 138.193 55.7175 138.643 55.8292L137.934 58.6683L139.668 59.1007L140.386 56.2231C143.343 56.783 145.567 56.5571 146.502 53.8816C147.257 51.7269 146.465 50.4841 144.91 49.6731C146.043 49.4107 146.896 48.6649 147.124 47.1246L147.124 47.1246ZM143.162 52.6837C142.625 54.8384 139 53.6741 137.824 53.3815L138.776 49.5619C139.951 49.8555 143.721 50.4366 143.162 52.6837H143.162ZM143.697 47.0934C143.208 49.0534 140.191 48.0576 139.211 47.8135L140.074 44.3492C141.054 44.5933 144.207 45.049 143.697 47.0934Z" fill="white"/>
<path d="M191.671 112.825C191.209 112.826 190.766 113.009 190.44 113.336C190.113 113.663 189.929 114.106 189.929 114.568V174.012C189.929 174.474 190.113 174.917 190.44 175.244C190.766 175.571 191.209 175.754 191.671 175.755H394.258C394.72 175.754 395.163 175.571 395.489 175.244C395.816 174.917 395.999 174.474 396 174.012V114.568C395.999 114.106 395.816 113.663 395.489 113.336C395.163 113.009 394.72 112.825 394.258 112.825L191.671 112.825Z" fill="white" fill-opacity="0.1"/>
<path d="M194.294 171.387H391.635V117.193H194.294V171.387Z" fill="#161429"/>
<path d="M366.725 160.144C365.96 160.144 365.226 160.448 364.685 160.99C364.144 161.531 363.84 162.266 363.84 163.031C363.84 163.797 364.144 164.531 364.685 165.073C365.226 165.614 365.96 165.918 366.725 165.918H378.267C379.033 165.918 379.766 165.614 380.308 165.073C380.849 164.531 381.153 163.797 381.153 163.031C381.153 162.266 380.849 161.531 380.308 160.99C379.766 160.448 379.033 160.144 378.267 160.144H366.725Z" fill="#FFC768"/>
<path d="M381.153 154.544H247.915V155.304H381.153V154.544Z" fill="white" fill-opacity="0.1"/>
<path d="M220.064 161.105C229.346 161.105 236.87 153.577 236.87 144.29C236.87 135.003 229.346 127.474 220.064 127.474C210.782 127.474 203.258 135.003 203.258 144.29C203.258 153.577 210.782 161.105 220.064 161.105Z" fill="#7722FC"/>
<path d="M248.126 150.303L247.704 149.671L261.55 140.436L271.044 144.996L284.7 136.266L284.885 136.345L311.866 147.86L333.499 137.228L354.506 145.748L380.901 122.357L381.405 122.926L354.657 146.63L333.529 138.06L311.888 148.696L284.772 137.122L271.097 145.863L261.611 141.308L248.126 150.303Z" fill="#3F3D56"/>
<path d="M250.382 160.542C249.728 160.542 249.1 160.802 248.638 161.265C248.175 161.728 247.915 162.355 247.915 163.01C247.915 163.665 248.175 164.293 248.638 164.756C249.1 165.219 249.728 165.479 250.382 165.479H276.195C276.849 165.479 277.477 165.219 277.94 164.756C278.402 164.293 278.662 163.665 278.662 163.01C278.662 162.355 278.402 161.728 277.94 161.265C277.477 160.802 276.849 160.542 276.195 160.542H250.382Z" fill="white" fill-opacity="0.1"/>
<path d="M220.062 155.372L226.866 145.786L220.062 149.805L213.263 145.786L220.062 155.372H220.062Z" fill="white"/>
<path d="M220.062 148.517H220.062L226.862 144.496L220.062 133.208H220.062L213.263 144.496L220.062 148.517Z" fill="white"/>
</g>
<defs>
<clipPath id="clip0_1240_5958">
<rect width="396" height="274" fill="white"/>
</clipPath>
</defs>
</svg>
