<svg width="253" height="105" viewBox="0 0 253 105" fill="none" xmlns="http://www.w3.org/2000/svg">
<g opacity="0.5">
<path opacity="0.5" d="M1.03334 113.854C0.287338 109.416 11.4752 10.2143 94.2672 28.1153C177.059 46.0163 210.624 -11.4158 253.885 3.50124C297.146 18.4182 297.892 28.1153 297.892 28.1153" stroke="white"/>
<path opacity="0.5" d="M12.0333 125.42C11.2873 120.982 22.4752 21.7802 105.267 39.6812C188.059 57.5822 221.624 0.150159 264.885 15.0672C308.146 29.9842 308.892 39.6812 308.892 39.6812" stroke="white"/>
<path opacity="0.5" d="M22.0333 137.42C21.2873 132.982 32.4752 33.7802 115.267 51.6812C198.059 69.5822 231.624 12.1502 274.885 27.0672C318.146 41.9842 318.892 51.6812 318.892 51.6812" stroke="white"/>
<path opacity="0.5" d="M33.0333 151.42C32.2873 146.982 43.4752 47.7802 126.267 65.6812C209.059 83.5822 242.624 26.1502 285.885 41.0672C329.146 55.9842 329.892 65.6812 329.892 65.6812" stroke="white"/>
<path opacity="0.5" d="M44.0333 165.42C43.2873 160.982 54.4752 61.7802 137.267 79.6812C220.059 97.5822 253.624 40.1502 296.885 55.0672C340.146 69.9842 340.892 79.6812 340.892 79.6812" stroke="white"/>
<path opacity="0.5" d="M54.0333 179.42C53.2873 174.982 64.4752 75.7802 147.267 93.6812C230.059 111.582 263.624 54.1502 306.885 69.0672C350.146 83.9842 350.892 93.6812 350.892 93.6812" stroke="white"/>
</g>
</svg>
