<svg width="361" height="270" viewBox="0 0 361 270" fill="none" xmlns="http://www.w3.org/2000/svg">
<path d="M164.472 262L171 259.836L165.635 234L156 237.194L164.472 262Z" fill="#FFB6B6"/>
<path d="M162 259.78L163.846 259.18L170.065 254L174.912 255.578L174.913 255.577C177.095 254.867 179.48 255.025 181.542 256.016C183.605 257.006 185.176 258.749 185.91 260.86L186 261.119L164.859 268L162 259.78Z" fill="#2F2E41"/>
<path d="M133 257.44L139.7 259L149 234.302L139.111 232L133 257.44Z" fill="#FFB6B6"/>
<path d="M132.062 254.774L133.957 255.202L142.065 254L145.317 257.766L145.318 257.766C147.558 258.272 149.496 259.607 150.705 261.477C151.915 263.347 152.297 265.599 151.767 267.738L151.702 268L130 263.1L132.062 254.774Z" fill="#2F2E41"/>
<path d="M77 254H89V234H77V254Z" fill="#CACACA"/>
<path d="M88.0919 244.681L86.5914 246.891L114.649 265.919L116.149 263.709L88.0919 244.681Z" fill="#CACACA"/>
<path d="M77.5729 244.681L49.5156 263.709L51.0161 265.919L79.0734 246.891L77.5729 244.681Z" fill="#CACACA"/>
<path d="M115.5 268C117.433 268 119 266.433 119 264.5C119 262.567 117.433 261 115.5 261C113.567 261 112 262.567 112 264.5C112 266.433 113.567 268 115.5 268Z" fill="#CACACA"/>
<path d="M82.5 268C84.433 268 86 266.433 86 264.5C86 262.567 84.433 261 82.5 261C80.567 261 79 262.567 79 264.5C79 266.433 80.567 268 82.5 268Z" fill="#CACACA"/>
<path d="M50.5 268C52.433 268 54 266.433 54 264.5C54 262.567 52.433 261 50.5 261C48.567 261 47 262.567 47 264.5C47 266.433 48.567 268 50.5 268Z" fill="#CACACA"/>
<path d="M84 246H81V265H84V246Z" fill="#CACACA"/>
<path d="M80 243H85V217H80V243Z" fill="#CACACA"/>
<path d="M57 221.64V215.36C57.0013 214.204 57.4472 213.096 58.2399 212.279C59.0327 211.461 60.1076 211.001 61.2287 211H100.771C101.892 211.001 102.967 211.461 103.76 212.279C104.553 213.096 104.999 214.204 105 215.36V221.64C104.999 222.796 104.553 223.904 103.76 224.721C102.967 225.539 101.892 225.999 100.771 226H61.2287C60.1076 225.999 59.0327 225.539 58.2399 224.721C57.4472 223.904 57.0013 222.796 57 221.64Z" fill="#3F3D56"/>
<path d="M34.0399 209.966L8.83289 167.022C8.01309 165.622 7.78735 163.957 8.20518 162.392C8.62302 160.827 9.65032 159.49 11.0617 158.674L12.535 157.825C13.9483 157.013 15.629 156.789 17.2084 157.203C18.7879 157.617 20.1371 158.635 20.9601 160.034L46.1671 202.978C46.9869 204.378 47.2127 206.043 46.7948 207.608C46.377 209.173 45.3497 210.51 43.9383 211.326L42.465 212.175C41.0517 212.987 39.371 213.211 37.7916 212.797C36.2121 212.383 34.8629 211.365 34.0399 209.966V209.966Z" fill="#3F3D56"/>
<path d="M57.304 221C51.9209 220.994 46.76 218.885 42.9536 215.135C39.1472 211.386 37.0061 206.302 37 201H39.195C39.1954 204.268 40.1068 207.472 41.8299 210.264C43.5529 213.057 46.0214 215.329 48.966 216.834C51.9105 218.338 55.2181 219.018 58.5278 218.797C61.8374 218.577 65.0221 217.465 67.7342 215.584L69 217.35C65.5806 219.733 61.4928 221.009 57.304 221V221Z" fill="#3F3D56"/>
<path d="M80.7743 190.158C80.7743 190.158 143.153 171.428 152.621 194.565C162.089 217.702 171 244.144 171 244.144L158.747 248L134.798 208.337C134.798 208.337 77.0731 222.66 65 205.858L80.7743 190.158Z" fill="#2F2E41"/>
<path d="M36.1727 143.106L21.7698 142L19 159.691C19 159.691 36.7266 205.577 67.1942 210L96 184.016L64.0973 172.154L36.1727 143.106Z" fill="#7722FC"/>
<path d="M34.1745 132.375C43.505 127.72 47.2927 116.386 42.6347 107.061C37.9766 97.7358 26.6367 93.9502 17.3062 98.6057C7.97572 103.261 4.18797 114.595 8.84604 123.92C13.5041 133.245 24.8441 137.031 34.1745 132.375Z" fill="#FFB8B8"/>
<path d="M30.9659 134.831C30.0862 135.553 28.7608 135.933 26.948 135.989C21.6128 136.15 16.3709 134.59 12.0265 131.547C7.68202 128.505 4.47494 124.147 2.8972 119.144C2.1033 116.626 1.43089 112.871 2.73578 109.275C3.67419 106.691 5.51663 104.524 7.16996 102.696C8.60109 101.112 10.0946 99.5614 11.6095 98.0865C13.4192 96.3236 15.5765 94.3657 18.2824 93.4461C20.2651 92.7727 22.3902 92.7126 24.4454 92.6546C25.1614 92.6341 25.9023 92.6135 26.622 92.5662C28.4118 92.5065 30.1687 92.0766 31.7775 91.3048C32.1078 91.1311 32.4722 91.0289 32.8462 91.0053C33.2201 90.9817 33.5949 91.0371 33.9452 91.1678C34.3017 91.3002 34.6251 91.5062 34.8936 91.7718C35.1621 92.0374 35.3693 92.3564 35.5013 92.7073C35.7612 93.3972 35.9952 94.0194 36.7903 94.249C37.0769 94.3246 37.378 94.3301 37.6673 94.2651C37.9565 94.2001 38.2251 94.0665 38.4496 93.876C38.5681 93.7755 38.7103 93.7057 38.8633 93.6728C39.0162 93.6399 39.1752 93.6451 39.3256 93.6878C39.4763 93.7289 39.6144 93.8055 39.728 93.911C39.8415 94.0165 39.9271 94.1476 39.9771 94.293L40.0423 94.4824C40.2054 94.3721 40.3934 94.3023 40.5901 94.2791C40.7868 94.2559 40.9863 94.2799 41.1714 94.3491C41.4397 94.4438 41.667 94.6255 41.8158 94.8641C41.9647 95.1027 42.0261 95.384 41.9899 95.6615C41.7239 97.9499 40.8096 100.119 39.3505 101.924C38.3417 103.146 37.0977 104.162 35.6894 104.914L35.4638 105.036L35.3079 104.805C28.9758 107.101 27.0422 113.61 27.3549 118.981L26.801 119.054C26.7581 118.879 26.6796 118.715 26.5704 118.571C26.4611 118.427 26.3232 118.306 26.1651 118.216C25.9821 118.102 25.778 118.024 25.5645 117.988C25.3509 117.952 25.1322 117.957 24.9207 118.003C24.5187 118.128 24.1631 118.366 23.899 118.688C23.6348 119.011 23.4738 119.402 23.4363 119.814C23.4076 120.245 23.4705 120.677 23.6212 121.082C23.7718 121.488 24.0068 121.858 24.3113 122.169C24.9738 122.815 25.7392 123.351 26.5773 123.755C26.9573 123.965 27.3504 124.183 27.7228 124.422C29.8303 125.787 31.351 127.866 31.994 130.262C32.283 131.359 32.449 132.923 31.598 134.149C31.4205 134.404 31.2078 134.633 30.9659 134.831V134.831Z" fill="#2F2E41"/>
<path d="M155 201.419C152.064 226.516 145.784 250 145.784 250L134 248.327L136.684 201" fill="#2F2E41"/>
<path d="M39.8967 119C39.3524 119 38.8225 118.815 38.3844 118.475C37.9463 118.134 37.6229 117.654 37.4615 117.106C30.0676 113.04 33.9766 110.173 34.4858 106.945C34.387 106.608 34.3522 106.253 34.3832 105.902C34.4143 105.55 34.5106 105.209 34.6667 104.897C34.8228 104.585 35.0357 104.308 35.2931 104.083C35.5505 103.858 35.8475 103.688 36.167 103.584L43.7259 101.119C44.3713 100.909 45.0692 100.978 45.6665 101.311C46.2637 101.644 46.7114 102.213 46.9114 102.893L49.8873 113.054C50.0858 113.735 50.0203 114.472 49.7051 115.102C49.3899 115.732 48.8507 116.204 48.2059 116.415L40.647 118.88C40.404 118.959 40.1511 119 39.8967 119V119Z" fill="#3F3D56"/>
<path d="M45.3952 101C45.9337 100.996 46.4591 101.175 46.8935 101.51C47.3279 101.845 47.6483 102.319 47.8071 102.861L50.875 113.011C51.0824 113.691 51.0302 114.429 50.7295 115.07C50.5849 115.383 50.3824 115.664 50.1338 115.894C49.8852 116.125 49.5955 116.301 49.2816 116.412L47.6184 117L43 101.721L44.663 101.133C44.8991 101.049 45.1461 101.004 45.3952 101V101Z" fill="#7722FC"/>
<path d="M4.54934 124C4.18091 124 3.82222 123.883 3.52567 123.666C3.22912 123.45 3.01027 123.145 2.90114 122.796L2.07682 120.153C2.00999 119.939 1.98642 119.713 2.00746 119.49C2.02849 119.267 2.09371 119.049 2.19941 118.851C2.30511 118.653 2.44922 118.477 2.62349 118.334C2.79776 118.19 2.99879 118.083 3.2151 118.016L38.943 107.076C39.1593 107.01 39.3867 106.987 39.6122 107.007C39.8377 107.028 40.0568 107.093 40.2571 107.198C40.4573 107.302 40.6348 107.445 40.7793 107.618C40.9239 107.791 41.0327 107.99 41.0995 108.204L41.9236 110.847C42.0581 111.28 42.0138 111.748 41.8004 112.148C41.587 112.549 41.222 112.849 40.7855 112.983L5.05747 123.924C4.89293 123.974 4.72162 124 4.54934 124V124Z" fill="#3F3D56"/>
<path d="M100.273 206H94.7272C94.0151 206 93.3301 205.743 92.8128 205.282C92.2954 204.82 91.985 204.19 91.9453 203.52L91.0045 187.773C90.983 187.417 91.0391 187.059 91.1692 186.724C91.2993 186.388 91.5008 186.081 91.7612 185.822C92.0217 185.562 92.3356 185.355 92.6839 185.214C93.0321 185.073 93.4073 185 93.7864 185H101.214C101.593 185 101.968 185.073 102.316 185.214C102.664 185.355 102.978 185.562 103.239 185.822C103.499 186.081 103.701 186.388 103.831 186.724C103.961 187.06 104.017 187.417 103.996 187.773L103.055 203.52C103.015 204.19 102.705 204.82 102.187 205.282C101.67 205.743 100.985 206 100.273 206Z" fill="#E4E4E4"/>
<path d="M103 189L102.938 190H92.0625L92 189H103Z" fill="#CACACA"/>
<path d="M103 191L102.939 192H92.0615L92 191H103Z" fill="#CACACA"/>
<path d="M103 194L102.934 195H92.0658L92 194H103Z" fill="#CACACA"/>
<path d="M103 196L102.933 198H92.0676L92 196H103Z" fill="#CACACA"/>
<path d="M103 199L102.934 200H92.066L92 199H103Z" fill="#CACACA"/>
<path d="M103 202L102.929 203H92.0714L92 202H103Z" fill="#CACACA"/>
<path d="M98 186C99.1046 186 100 185.776 100 185.5C100 185.224 99.1046 185 98 185C96.8954 185 96 185.224 96 185.5C96 185.776 96.8954 186 98 186Z" fill="#CACACA"/>
<path d="M97.571 186C97.5147 186 97.4589 185.988 97.4069 185.965C97.3548 185.942 97.3075 185.909 97.2677 185.866C97.2278 185.824 97.1962 185.774 97.1747 185.719C97.1531 185.663 97.142 185.604 97.142 185.544V176.912H94.4274C94.3139 176.911 94.2052 176.863 94.1251 176.778C94.045 176.692 94 176.576 94 176.456C94 176.335 94.045 176.219 94.1251 176.134C94.2052 176.049 94.3139 176 94.4274 176H97.571C97.6274 176 97.6831 176.012 97.7352 176.035C97.7872 176.058 97.8345 176.091 97.8744 176.133C97.9142 176.176 97.9458 176.226 97.9674 176.281C97.9889 176.337 98 176.396 98 176.456V185.544C98 185.604 97.9889 185.663 97.9674 185.719C97.9458 185.774 97.9142 185.824 97.8744 185.867C97.8345 185.909 97.7872 185.942 97.7352 185.965C97.6831 185.988 97.6274 186 97.571 186V186Z" fill="#CACACA"/>
<path d="M95.9197 192.911C95.2891 192.387 94.5529 192.01 93.7627 191.806C92.9726 191.602 92.1478 191.575 91.3466 191.729C90.5453 191.882 89.787 192.211 89.125 192.693C88.4631 193.175 87.9136 193.799 87.5153 194.519L68 191L72.0748 200.576L89.9821 202.449C91.2219 203.046 92.635 203.162 93.9536 202.775C95.2723 202.388 96.4048 201.525 97.1367 200.349C97.8686 199.174 98.1489 197.767 97.9246 196.396C97.7003 195.025 96.987 193.785 95.9197 192.911H95.9197Z" fill="#FFB6B6"/>
<path d="M84 203L47.8542 200.185L47.7821 200.05C47.644 199.792 33.9486 174.095 31.9334 168.199C30.6795 164.65 30.6892 160.782 31.9608 157.238L31.9973 157.152L32.0788 157.106C33.7448 156.161 35.6861 155.806 37.5827 156.101C39.4793 156.396 41.218 157.322 42.512 158.726C48.7231 165.541 53.25 173.692 55.7356 182.536L57.1435 187.569L83.0042 193.306L84 203Z" fill="#7722FC"/>
<path d="M172.732 28.0224L361 0.5V181.049L172.732 153.527V28.0224Z" fill="white" fill-opacity="0.1"/>
<path d="M261.748 64.117C261.47 63.4772 261.18 62.8275 260.869 62.2022C260.571 61.592 260.236 61.0011 259.866 60.4328C259.531 59.9134 259.137 59.4359 258.691 59.0104C258.289 58.6252 257.815 58.3268 257.295 58.1336C256.73 57.9356 256.122 57.8946 255.536 58.0151C254.923 58.1461 254.338 58.3818 253.804 58.7122C253.214 59.0716 252.658 59.4829 252.139 59.9411C251.601 60.4072 251.079 60.916 250.579 61.4202C249.094 62.9228 247.632 64.4453 246.192 65.9878C244.761 67.521 243.352 69.0736 241.962 70.6455C240.583 72.2082 239.226 73.7897 237.889 75.3901C236.559 76.9817 235.251 78.5918 233.965 80.2203L233.97 80.3164L236.986 79.9373L240.042 79.5535L243.134 79.1651L246.265 78.7702C247.024 78.6747 247.794 78.576 248.563 78.4477C249.339 78.3233 250.109 78.156 250.867 77.9467C251.643 77.731 252.399 77.4469 253.126 77.0976C253.892 76.727 254.615 76.2706 255.281 75.737C255.545 75.525 255.808 75.2966 256.072 75.0702C256.336 74.8438 256.602 74.62 256.873 74.4192C257.133 74.2213 257.411 74.0489 257.703 73.9045C257.979 73.7678 258.276 73.6807 258.581 73.6471C258.954 73.614 259.329 73.6718 259.675 73.8156C260.044 73.971 260.387 74.1837 260.692 74.4462C261.029 74.7342 261.341 75.0523 261.623 75.3967C261.92 75.7577 262.199 76.1338 262.459 76.5236C264.04 78.9644 265.38 81.5573 266.458 84.2645C267.628 87.07 268.668 90.0275 269.743 92.9606C270.82 95.9062 271.926 98.8275 273.217 101.553C274.431 104.23 275.983 106.738 277.833 109.012C276.674 105.024 275.465 101.087 274.205 97.201C272.952 93.3345 271.652 89.5224 270.305 85.7647C268.962 82.0276 267.575 78.3491 266.145 74.7292C264.721 71.1308 263.255 67.5934 261.747 64.117H261.748Z" fill="white" fill-opacity="0.4"/>
<path d="M221.17 64.9235L221.125 64.9754L221.081 65.0273L221.036 65.0786L220.991 65.1299C220.882 65.2207 220.774 65.3128 220.665 65.4061C220.557 65.4994 220.449 65.5933 220.341 65.6879C220.234 65.7829 220.127 65.8783 220.02 65.9741L219.701 66.2629C219.501 66.444 219.303 66.6266 219.105 66.8107C218.907 66.9948 218.71 67.1805 218.515 67.368C218.319 67.5555 218.124 67.7454 217.93 67.938C217.736 68.1305 217.543 68.3228 217.35 68.5149C216.968 68.9004 216.589 69.2919 216.214 69.6897C215.839 70.0874 215.468 70.4899 215.101 70.8974C214.734 71.306 214.371 71.7211 214.011 72.1424C213.652 72.5638 213.296 72.9906 212.945 73.4229C212.762 73.6471 212.581 73.873 212.401 74.1006C212.222 74.3281 212.043 74.557 211.865 74.7871C211.687 75.0172 211.511 75.2494 211.335 75.4837C211.16 75.718 210.986 75.9517 210.812 76.1847L210.774 76.1214L210.737 76.0581L210.701 75.9948L210.667 75.9226L210.659 75.9061L210.65 75.8896L210.642 75.8732L210.633 75.856C210.263 75.1298 209.972 74.3655 209.764 73.5762C209.544 72.7469 209.401 71.8989 209.335 71.043C209.267 70.1655 209.274 69.2835 209.357 68.4072C209.439 67.5286 209.601 66.6595 209.84 65.8107C210.065 65.0079 210.371 64.2307 210.754 63.4916C211.096 62.8296 211.517 62.2127 212.009 61.655C212.446 61.1571 212.959 60.7318 213.528 60.3948C214.052 60.0848 214.632 59.8837 215.234 59.8033C215.818 59.7293 216.411 59.7835 216.972 59.9622C217.558 60.1535 218.103 60.4543 218.579 60.8489C219.114 61.2913 219.58 61.8119 219.963 62.3935C220.404 63.0599 220.763 63.7776 221.034 64.5308L221.039 64.5441L221.044 64.5581L221.049 64.572L221.053 64.5853L221.083 64.6695L221.113 64.7544L221.141 64.8399L221.17 64.9235Z" fill="#FFC768"/>
<path d="M221.334 124.122C222.026 124.2 222.72 124.296 223.414 124.409C224.109 124.523 224.806 124.653 225.505 124.802C226.205 124.952 226.907 125.12 227.609 125.307C228.312 125.493 229.017 125.698 229.725 125.922C231.906 126.619 234.04 127.458 236.111 128.435C238.303 129.468 240.431 130.632 242.483 131.922C244.666 133.293 246.771 134.785 248.789 136.39C250.94 138.102 253.003 139.922 254.969 141.844C255.645 142.503 256.317 143.18 256.983 143.874C257.648 144.567 258.31 145.279 258.968 146.009C259.625 146.74 260.277 147.487 260.922 148.25C261.567 149.013 262.207 149.795 262.842 150.594L263.075 150.889L263.307 151.185L263.539 151.483L263.77 151.782C263.787 151.809 263.81 151.83 263.838 151.846C263.865 151.861 263.895 151.869 263.927 151.869C263.954 151.867 263.98 151.859 264.003 151.845C264.027 151.832 264.047 151.814 264.062 151.792C264.101 151.741 264.122 151.681 264.124 151.617C264.126 151.544 264.103 151.472 264.059 151.414C263.427 150.595 262.788 149.791 262.143 149.004C261.497 148.216 260.845 147.447 260.188 146.698C259.535 145.947 258.873 145.212 258.204 144.494C257.535 143.776 256.863 143.078 256.19 142.399C255.515 141.72 254.835 141.058 254.151 140.413C253.466 139.767 252.779 139.141 252.09 138.533C251.4 137.926 250.707 137.337 250.008 136.766C249.31 136.195 248.611 135.641 247.91 135.104C247.207 134.568 246.502 134.05 245.794 133.549C245.086 133.049 244.377 132.566 243.667 132.102C242.957 131.639 242.246 131.194 241.531 130.767C240.817 130.339 240.103 129.93 239.39 129.539C238.677 129.15 237.963 128.779 237.248 128.426C236.532 128.073 235.818 127.739 235.106 127.424C234.394 127.109 233.681 126.811 232.965 126.532C232.25 126.253 231.537 125.993 230.828 125.751C230.119 125.509 229.41 125.286 228.702 125.081C227.994 124.876 227.289 124.689 226.586 124.522C225.883 124.354 225.181 124.204 224.48 124.072C223.778 123.941 223.081 123.827 222.386 123.731L222.125 123.696L221.863 123.663L221.597 123.631L221.334 123.602C221.311 123.601 221.288 123.608 221.269 123.62C221.248 123.634 221.23 123.652 221.217 123.673C221.201 123.698 221.19 123.724 221.183 123.752C221.174 123.785 221.169 123.818 221.17 123.852C221.17 123.885 221.174 123.918 221.183 123.95C221.19 123.98 221.202 124.008 221.217 124.035C221.231 124.058 221.249 124.078 221.27 124.095C221.288 124.11 221.311 124.119 221.335 124.122H221.334Z" fill="white" fill-opacity="0.4"/>
<path d="M220.42 107.712C221.664 107.89 222.915 108.072 224.173 108.258C225.43 108.443 226.701 108.639 227.985 108.846C229.269 109.054 230.558 109.274 231.853 109.508C233.155 109.746 234.463 110.003 235.776 110.28C237.099 110.545 238.427 110.845 239.759 111.182C241.098 111.518 242.44 111.889 243.787 112.296C245.14 112.704 246.496 113.147 247.856 113.626C249.222 114.112 250.59 114.632 251.961 115.186C253.18 115.68 254.396 116.219 255.609 116.803C256.823 117.387 258.038 118.016 259.254 118.691C260.47 119.371 261.681 120.094 262.887 120.863C264.092 121.631 265.298 122.448 266.502 123.313C267.629 124.125 268.743 124.985 269.844 125.893C270.945 126.801 272.036 127.76 273.117 128.77C274.198 129.78 275.262 130.837 276.311 131.94C277.359 133.044 278.393 134.196 279.412 135.398C280.42 136.585 281.398 137.822 282.344 139.111C283.291 140.399 284.211 141.74 285.105 143.132C285.995 144.525 286.851 145.962 287.673 147.445C288.495 148.927 289.281 150.455 290.033 152.029C290.126 152.228 290.219 152.426 290.311 152.624C290.403 152.823 290.494 153.023 290.585 153.226C290.675 153.427 290.766 153.629 290.855 153.831C290.944 154.033 291.032 154.236 291.118 154.44C291.13 154.475 291.149 154.507 291.175 154.533C291.2 154.56 291.23 154.581 291.264 154.596C291.291 154.605 291.32 154.607 291.348 154.603C291.376 154.599 291.403 154.589 291.426 154.572C291.479 154.536 291.517 154.481 291.532 154.418C291.551 154.339 291.542 154.255 291.508 154.181C290.797 152.556 290.046 150.972 289.255 149.426C288.463 147.881 287.635 146.387 286.771 144.943C285.91 143.496 285.014 142.095 284.083 140.74C283.152 139.385 282.192 138.087 281.204 136.844C280.209 135.592 279.193 134.386 278.157 133.226C277.12 132.065 276.07 130.956 275.005 129.898C273.941 128.84 272.86 127.829 271.762 126.867C270.665 125.904 269.558 124.994 268.443 124.137C267.28 123.244 266.108 122.394 264.929 121.588C263.749 120.783 262.568 120.025 261.386 119.316C260.203 118.605 259.016 117.939 257.825 117.318C256.635 116.696 255.444 116.121 254.253 115.593C252.875 114.988 251.499 114.422 250.123 113.895C248.756 113.37 247.39 112.885 246.027 112.44C244.668 111.992 243.314 111.584 241.966 111.214C240.623 110.846 239.283 110.516 237.947 110.222C236.609 109.913 235.276 109.63 233.948 109.371C232.628 109.111 231.313 108.871 230.004 108.649C228.702 108.429 227.407 108.22 226.118 108.022C224.84 107.827 223.565 107.638 222.294 107.457L221.824 107.391L221.355 107.325L220.887 107.255L220.42 107.189C220.395 107.186 220.37 107.19 220.348 107.202C220.325 107.214 220.308 107.233 220.297 107.255C220.268 107.308 220.254 107.368 220.256 107.428C220.255 107.493 220.269 107.557 220.297 107.615C220.308 107.64 220.325 107.661 220.347 107.678C220.368 107.695 220.393 107.707 220.42 107.712V107.712Z" fill="white" fill-opacity="0.4"/>
<path d="M303.953 148.104C303.752 147.755 303.551 147.404 303.352 147.052C303.152 146.7 302.953 146.349 302.754 146C302.556 145.651 302.358 145.3 302.16 144.949C301.963 144.597 301.766 144.246 301.571 143.897C299.975 141.048 298.412 138.195 296.882 135.338C295.361 132.496 293.871 129.649 292.412 126.796C290.961 123.959 289.542 121.115 288.154 118.265C286.771 115.428 285.417 112.585 284.092 109.737C283.196 107.809 282.315 105.879 281.447 103.947C280.58 102.015 279.728 100.086 278.892 98.1609C278.057 96.2352 277.236 94.3067 276.428 92.3753C275.62 90.444 274.827 88.5153 274.049 86.5892C273.679 85.6726 273.312 84.756 272.947 83.8395C272.583 82.9229 272.222 82.0063 271.865 81.0897C271.508 80.1732 271.154 79.2566 270.803 78.34C270.451 77.4235 270.104 76.5069 269.759 75.5903C269.492 74.8798 269.226 74.1688 268.962 73.4573C268.698 72.7459 268.436 72.0347 268.176 71.3237C267.916 70.6127 267.658 69.9015 267.402 69.19C267.146 68.4786 266.892 67.7672 266.64 67.0557C266.568 66.8523 266.496 66.649 266.425 66.4456C266.354 66.2422 266.283 66.0386 266.213 65.8347C266.142 65.6309 266.072 65.4271 266.002 65.2232L265.793 64.6111C265.63 64.131 265.466 63.6509 265.303 63.1708C265.14 62.6907 264.977 62.2119 264.813 61.7344C264.649 61.2569 264.484 60.7809 264.317 60.3065C264.15 59.8321 263.981 59.3602 263.81 58.8911C263.614 58.3568 263.409 57.8167 263.188 57.2857C262.966 56.7548 262.729 56.2343 262.474 55.7374C262.228 55.2528 261.949 54.7848 261.642 54.3363C261.354 53.9162 261.025 53.5258 260.659 53.171C260.503 53.0139 260.333 52.87 260.153 52.7409C259.982 52.6182 259.8 52.5113 259.609 52.4214C259.426 52.3348 259.234 52.2662 259.037 52.2164C258.843 52.1676 258.644 52.1384 258.444 52.1294C258.159 52.1262 257.876 52.1659 257.603 52.2472C257.323 52.3312 257.053 52.4444 256.796 52.585C256.527 52.7321 256.268 52.8961 256.02 53.0761C255.766 53.2574 255.517 53.4538 255.272 53.6528C253.483 55.1215 251.736 56.6518 250.031 58.2436C248.339 59.824 246.69 61.4633 245.084 63.1616C243.489 64.8481 241.937 66.5907 240.428 68.3893C238.929 70.1762 237.473 72.0168 236.061 73.911C234.655 75.7878 233.295 77.7096 231.98 79.6763C230.672 81.6333 229.409 83.6345 228.192 85.6798C226.982 87.7142 225.816 89.7906 224.696 91.9092C223.584 94.0143 222.517 96.1606 221.495 98.3481C221.486 98.3745 221.471 98.3983 221.45 98.4176C221.43 98.4368 221.406 98.4509 221.379 98.4588C221.356 98.4624 221.333 98.4606 221.311 98.4536C221.29 98.4465 221.27 98.4344 221.254 98.4182C221.213 98.3802 221.186 98.3305 221.176 98.2761C221.162 98.2097 221.171 98.1407 221.201 98.0797C221.325 97.8139 221.449 97.5485 221.575 97.2836C221.7 97.0187 221.826 96.7553 221.954 96.4934C222.081 96.2315 222.209 95.9683 222.337 95.7038C222.465 95.4393 222.594 95.1774 222.724 94.9182C224.343 91.6561 226.064 88.4889 227.888 85.4166C229.723 82.3234 231.661 79.3321 233.703 76.4427C235.758 73.5315 237.915 70.7297 240.173 68.0371C242.45 65.3228 244.829 62.7258 247.309 60.2463C247.728 59.8277 248.15 59.4131 248.575 59.0023C249 58.5916 249.428 58.1838 249.86 57.7787C250.291 57.3741 250.726 56.9732 251.163 56.576C251.6 56.1789 252.04 55.785 252.484 55.3943C252.707 55.1975 252.931 55.0011 253.156 54.8051C253.381 54.6091 253.607 54.4145 253.834 54.2211C254.06 54.0273 254.288 53.8353 254.516 53.645C254.745 53.4547 254.975 53.2666 255.206 53.0806C255.422 52.8827 255.651 52.6986 255.89 52.5294C256.12 52.3678 256.361 52.2222 256.611 52.0934C256.852 51.9688 257.102 51.862 257.358 51.7739C257.609 51.6886 257.866 51.6229 258.127 51.5775C258.985 51.5008 259.838 51.7636 260.504 52.3094C261.259 52.9336 261.888 53.6952 262.358 54.5537C262.911 55.5262 263.388 56.54 263.784 57.5862C264.2 58.6482 264.561 59.7173 264.886 60.6725C264.988 60.9732 265.091 61.2737 265.193 61.574C265.296 61.8743 265.399 62.1748 265.503 62.4755C265.607 62.7758 265.711 63.0761 265.815 63.3763C265.919 63.6766 266.024 63.9767 266.129 64.2766C266.527 65.4166 266.929 66.5558 267.336 67.6941C267.742 68.8323 268.154 69.9711 268.57 71.1103C268.987 72.2499 269.408 73.3886 269.834 74.5264C270.26 75.6643 270.691 76.8028 271.128 77.942C271.397 78.6456 271.668 79.3485 271.941 80.0507C272.213 80.753 272.488 81.4562 272.765 82.1602C273.042 82.8637 273.32 83.5669 273.601 84.2696C273.881 84.9723 274.163 85.6748 274.445 86.3771C275.332 88.5711 276.236 90.7613 277.157 92.9475C278.081 95.1416 279.023 97.3322 279.982 99.5194C280.943 101.715 281.923 103.907 282.923 106.096C283.925 108.294 284.945 110.489 285.983 112.681C287.365 115.599 288.779 118.509 290.224 121.414C291.677 124.334 293.162 127.248 294.679 130.156C296.208 133.081 297.769 136.001 299.363 138.918C300.967 141.85 302.607 144.779 304.282 147.704C304.325 147.778 304.343 147.864 304.335 147.95C304.328 148.021 304.3 148.09 304.255 148.146C304.238 148.17 304.216 148.189 304.19 148.202C304.164 148.215 304.136 148.222 304.107 148.222C304.073 148.217 304.042 148.203 304.015 148.182C303.988 148.162 303.967 148.135 303.953 148.104V148.104Z" fill="white" fill-opacity="0.4"/>
<path d="M235.483 71.5869L235.339 71.3635L235.196 71.1402L235.052 70.9168L234.908 70.6935C234.528 70.1079 234.141 69.5255 233.744 68.9616C233.346 68.3978 232.937 67.85 232.511 67.3418C232.1 66.8426 231.656 66.3697 231.181 65.9262C230.733 65.5075 230.243 65.1322 229.719 64.8056C229.48 64.6536 229.231 64.5184 228.973 64.4011C228.724 64.2883 228.467 64.1942 228.203 64.1195C227.945 64.0466 227.682 63.9937 227.416 63.9614C227.151 63.9295 226.885 63.9186 226.618 63.9288C226.342 63.9548 226.068 63.9993 225.798 64.0619C225.524 64.1255 225.254 64.2065 224.992 64.3044C224.722 64.405 224.459 64.5217 224.204 64.6539C223.94 64.7906 223.685 64.9421 223.44 65.1076C223.321 65.1831 223.203 65.261 223.086 65.3412C222.968 65.4214 222.851 65.5032 222.735 65.5864C222.619 65.6717 222.504 65.757 222.389 65.8423C222.274 65.9277 222.16 66.0158 222.046 66.1067C221.916 66.2091 221.787 66.3129 221.658 66.4183C221.529 66.5237 221.4 66.6304 221.273 66.7383C221.145 66.8454 221.018 66.9532 220.891 67.0615L220.511 67.3873C220.274 67.5916 220.038 67.7977 219.803 68.0055C219.568 68.2133 219.334 68.423 219.102 68.6346C218.869 68.848 218.638 69.0613 218.407 69.2746C218.177 69.4879 217.947 69.7047 217.719 69.9248C217.265 70.3592 216.816 70.8006 216.371 71.249C215.926 71.6974 215.486 72.1518 215.051 72.6122C214.617 73.0725 214.186 73.5399 213.76 74.0144C213.333 74.4888 212.912 74.9692 212.497 75.4556C212.281 75.7082 212.066 75.9623 211.853 76.2179C211.64 76.4734 211.428 76.7307 211.218 76.9897C211.007 77.2487 210.798 77.5093 210.591 77.7717C210.383 78.0341 210.177 78.298 209.972 78.5634C209.781 78.81 209.592 79.0579 209.404 79.3071C209.215 79.5563 209.028 79.8069 208.842 80.0591C208.657 80.3108 208.472 80.564 208.289 80.8187C208.105 81.0735 207.923 81.3294 207.742 81.5867C207.73 81.6083 207.712 81.6262 207.691 81.6385C207.669 81.6507 207.644 81.6567 207.619 81.6558C207.596 81.6512 207.574 81.6419 207.556 81.6285C207.537 81.6151 207.522 81.598 207.51 81.5784C207.479 81.53 207.462 81.4746 207.461 81.4178C207.458 81.3549 207.476 81.2927 207.512 81.2405L207.656 81.0338L207.8 80.8303L207.945 80.6274L208.09 80.4258C208.226 80.2363 208.364 80.0478 208.501 79.86C208.639 79.6723 208.778 79.485 208.917 79.2981C209.056 79.1117 209.196 78.9259 209.337 78.7407C209.478 78.5555 209.619 78.3712 209.761 78.1877C210.02 77.852 210.281 77.5192 210.544 77.1893C210.808 76.8595 211.073 76.5319 211.342 76.2063C211.608 75.8834 211.876 75.5619 212.148 75.2419C212.419 74.9219 212.693 74.6046 212.969 74.2902C213.399 73.8 213.833 73.3168 214.272 72.8406C214.71 72.3645 215.154 71.8951 215.601 71.4326C216.05 70.9689 216.504 70.5123 216.963 70.0631C217.421 69.6138 217.885 69.1707 218.355 68.7338C218.589 68.5158 218.825 68.2997 219.061 68.0855C219.298 67.8713 219.536 67.658 219.775 67.4455C220.014 67.2348 220.255 67.0259 220.496 66.819C220.737 66.612 220.979 66.4068 221.224 66.2033L221.445 66.0203C221.519 65.9597 221.594 65.8995 221.668 65.8398C221.743 65.7801 221.818 65.7207 221.893 65.6619C221.968 65.603 222.044 65.545 222.119 65.4878C222.291 65.3521 222.464 65.2213 222.639 65.0955C222.814 64.9696 222.991 64.8489 223.171 64.7332C223.348 64.6172 223.528 64.5065 223.711 64.4011C223.894 64.2957 224.077 64.1952 224.261 64.0997C224.518 63.9642 224.784 63.8468 225.059 63.7483C225.324 63.653 225.597 63.5775 225.875 63.5224C226.147 63.4681 226.424 63.435 226.702 63.4232C226.979 63.4117 227.257 63.422 227.533 63.4539C227.803 63.4958 228.069 63.5559 228.331 63.6337C228.596 63.7131 228.856 63.8096 229.108 63.9224C229.369 64.0387 229.621 64.1708 229.864 64.3179C230.116 64.471 230.359 64.6383 230.591 64.819C231.106 65.2128 231.587 65.6471 232.028 66.1175C232.494 66.6139 232.932 67.1339 233.341 67.6753C233.762 68.2282 234.169 68.8087 234.567 69.4032C234.965 69.9978 235.355 70.6032 235.743 71.2067C235.78 71.2662 235.797 71.3354 235.791 71.4045C235.787 71.4675 235.767 71.5284 235.731 71.5818C235.719 71.6032 235.702 71.622 235.682 71.6366C235.661 71.6513 235.638 71.6616 235.613 71.6669C235.586 71.6677 235.558 71.6605 235.535 71.6463C235.512 71.632 235.494 71.6113 235.483 71.5869V71.5869Z" fill="white" fill-opacity="0.4"/>
<path d="M280.84 97.2424L286.687 94.4027L289.638 92.9697C289.878 92.8414 290.119 92.7172 290.361 92.5972C290.603 92.4771 290.847 92.3609 291.093 92.2483C291.339 92.1357 291.586 92.0275 291.835 91.9237C292.084 91.8199 292.333 91.7198 292.584 91.6234C292.8 91.5412 293.023 91.4797 293.251 91.4395C293.701 91.3605 294.162 91.3692 294.609 91.4651C294.837 91.5143 295.061 91.5847 295.277 91.6753C295.475 91.7733 295.667 91.883 295.853 92.0039C296.043 92.1277 296.226 92.2622 296.401 92.4066C296.581 92.5555 296.753 92.7139 296.916 92.881C297.085 93.0535 297.245 93.2344 297.396 93.4231C297.553 93.6149 297.707 93.8105 297.858 94.0098C298.009 94.2091 298.158 94.4121 298.304 94.6189C298.451 94.8256 298.594 95.0361 298.734 95.2503C298.874 95.4645 299.011 95.6822 299.146 95.9034C299.313 96.1697 299.48 96.4369 299.647 96.7049C299.813 96.973 299.98 97.2417 300.146 97.5111L300.644 98.3199L301.143 99.13C301.831 100.247 302.52 101.367 303.21 102.491C303.899 103.616 304.591 104.747 305.286 105.885C305.98 107.024 306.675 108.166 307.37 109.311C308.066 110.456 308.764 111.608 309.465 112.769C310.163 113.928 310.864 115.092 311.567 116.26C312.27 117.427 312.974 118.602 313.678 119.783C314.384 120.966 315.09 122.152 315.797 123.34C316.504 124.529 317.213 125.726 317.925 126.931C318.638 128.138 319.352 129.349 320.066 130.564C320.78 131.78 321.497 133.002 322.216 134.231C322.935 135.461 323.655 136.695 324.376 137.932C325.097 139.17 325.819 140.416 326.543 141.668L326.81 142.128L327.076 142.588L327.343 143.048L327.609 143.508C327.627 143.544 327.653 143.575 327.683 143.601C327.714 143.626 327.75 143.645 327.788 143.656C327.82 143.664 327.854 143.665 327.886 143.659C327.919 143.654 327.95 143.642 327.977 143.624C328.035 143.587 328.076 143.529 328.092 143.463C328.109 143.381 328.094 143.295 328.049 143.225C327.317 141.958 326.585 140.695 325.854 139.436C325.123 138.178 324.395 136.927 323.668 135.683C322.942 134.439 322.217 133.2 321.491 131.965C320.766 130.729 320.044 129.503 319.323 128.285C318.601 127.062 317.88 125.842 317.159 124.627C316.438 123.411 315.72 122.204 315.004 121.004C314.288 119.803 313.572 118.607 312.857 117.415C312.142 116.222 311.428 115.037 310.717 113.859C310.006 112.682 309.297 111.508 308.588 110.338C307.879 109.168 307.172 108.005 306.468 106.85C305.764 105.694 305.06 104.542 304.356 103.395C303.653 102.247 302.952 101.107 302.254 99.9737L301.731 99.1268L301.207 98.2818L300.684 97.4388L300.16 96.5978C300.014 96.3617 299.868 96.1254 299.721 95.8889C299.575 95.6524 299.428 95.4178 299.28 95.1852C299.131 94.9526 298.98 94.7227 298.828 94.4953C298.676 94.268 298.52 94.0451 298.36 93.8265C298.071 93.4265 297.76 93.0429 297.429 92.6773C297.112 92.326 296.765 92.0031 296.392 91.7121C296.045 91.4392 295.664 91.2136 295.258 91.0413C294.864 90.8766 294.442 90.7862 294.015 90.7746C293.763 90.7862 293.511 90.8129 293.262 90.8547C293.012 90.8966 292.765 90.9532 292.521 91.0242C292.275 91.0961 292.034 91.1821 291.798 91.2818C291.557 91.3834 291.322 91.4984 291.095 91.6261L290.343 91.9901L289.593 92.3547L288.847 92.7194L288.104 93.0827L282.184 95.9638L280.724 96.6747C280.693 96.6907 280.665 96.7132 280.642 96.7407C280.62 96.7682 280.603 96.8001 280.593 96.8344C280.572 96.9054 280.569 96.9805 280.584 97.0532C280.594 97.1183 280.625 97.1784 280.671 97.2247C280.694 97.2454 280.722 97.2584 280.753 97.2616C280.783 97.2648 280.813 97.258 280.84 97.2424Z" fill="white" fill-opacity="0.4"/>
<path d="M222.084 61.9248L221.817 62.2616C221.33 61.2254 220.685 60.2809 219.908 59.4659C219.252 58.7765 218.464 58.2421 217.598 57.8982C216.798 57.5884 215.938 57.4935 215.095 57.622C214.196 57.7708 213.341 58.137 212.599 58.6918C211.756 59.3201 211.023 60.0992 210.435 60.9938C209.78 61.9802 209.25 63.0522 208.857 64.1829C208.426 65.409 208.124 66.681 207.954 67.9763C207.773 69.3437 207.728 70.7274 207.821 72.1046C207.866 72.7914 207.946 73.4751 208.062 74.1525C208.174 74.8058 208.322 75.4516 208.505 76.0866C208.68 76.6943 208.892 77.2894 209.14 77.8685C209.374 78.4193 209.647 78.9513 209.955 79.4603L209.729 79.8322C209.409 79.302 209.125 78.7479 208.881 78.1743C208.624 77.5716 208.403 76.9522 208.221 76.3197C208.03 75.6588 207.876 74.9866 207.76 74.3068C207.639 73.6017 207.556 72.8901 207.509 72.1753C207.413 70.7421 207.46 69.3022 207.649 67.8793C207.825 66.5312 208.139 65.2072 208.587 63.9309C208.995 62.7538 209.547 61.6377 210.228 60.6104C210.84 59.6787 211.603 58.867 212.48 58.2122C213.253 57.6333 214.143 57.2508 215.079 57.0946C215.957 56.9595 216.853 57.0572 217.686 57.3789C218.589 57.7359 219.409 58.2917 220.093 59.0091C220.904 59.8589 221.576 60.844 222.084 61.9248Z" fill="white" fill-opacity="0.4"/>
<path d="M249.959 96.045C249.901 95.9928 249.849 95.934 249.803 95.8699C249.755 95.8017 249.713 95.7291 249.679 95.6529C249.642 95.572 249.611 95.4881 249.588 95.402C249.564 95.3114 249.547 95.2189 249.537 95.1255C249.527 95.0308 249.524 94.9354 249.528 94.8402C249.532 94.7468 249.543 94.6539 249.561 94.5623C249.578 94.4734 249.603 94.3861 249.635 94.3013C249.665 94.22 249.702 94.1417 249.747 94.0674L248.587 77.0966L250.524 77.2319L251.064 93.9998C251.146 94.122 251.209 94.2563 251.251 94.398C251.296 94.5458 251.321 94.6987 251.327 94.853C251.334 95.0086 251.321 95.1645 251.289 95.3168C251.259 95.4656 251.207 95.6091 251.136 95.7428C251.073 95.8626 250.989 95.9696 250.887 96.0586C250.802 96.1362 250.701 96.1931 250.591 96.2249C250.486 96.2527 250.375 96.2527 250.27 96.2249C250.154 96.1906 250.047 96.129 249.959 96.045V96.045Z" fill="#9E616A"/>
<path d="M251.329 76.6115L250.752 81.8308L250.832 85.0211L248.422 85.3034L247.941 82.6664L247.675 75.6812C247.665 75.4173 247.698 75.1535 247.772 74.8967C247.839 74.6611 247.947 74.4347 248.092 74.2244C248.22 74.0347 248.389 73.8658 248.59 73.7259C248.773 73.599 248.991 73.5111 249.224 73.4698V73.4698C249.454 73.4308 249.694 73.4473 249.913 73.5171C250.141 73.5922 250.345 73.7102 250.509 73.8617C250.697 74.0344 250.846 74.2331 250.95 74.4487C251.072 74.6962 251.148 74.9572 251.177 75.2232L251.329 76.6115Z" fill="#2F2E41"/>
<path d="M243.104 124.514L241.864 124.427L241.276 117.219L243.104 117.319V124.514Z" fill="#9E616A"/>
<path d="M243.103 126.337L239.448 126.03V125.95C239.447 125.63 239.484 125.311 239.559 125.003C239.624 124.732 239.726 124.477 239.862 124.246C239.979 124.044 240.133 123.877 240.312 123.754C240.48 123.642 240.672 123.59 240.864 123.604V123.604L243.104 123.779L243.103 126.337Z" fill="#2F2E41"/>
<path d="M253.157 124.514L251.917 124.436L251.329 118.13L253.157 118.221V124.514Z" fill="#9E616A"/>
<path d="M254.071 126.337L249.501 126.129V126.075C249.5 125.862 249.546 125.65 249.64 125.445C249.721 125.265 249.849 125.094 250.018 124.941C250.166 124.807 250.358 124.695 250.581 124.615C250.792 124.54 251.032 124.505 251.272 124.515V124.515L254.071 124.635V126.337Z" fill="#2F2E41"/>
<path d="M248.574 62.5095C248.948 62.4894 249.319 62.5804 249.644 62.7716C249.992 62.9792 250.291 63.2636 250.521 63.6045C250.785 63.9935 250.985 64.4253 251.111 64.8821C251.258 65.3998 251.331 65.9367 251.329 66.4761C251.33 67.0224 251.257 67.5661 251.111 68.0912C250.983 68.5654 250.784 69.0161 250.521 69.4272C250.291 69.7909 249.993 70.1032 249.644 70.3457C249.326 70.5661 248.956 70.6928 248.574 70.7123C248.201 70.726 247.831 70.6294 247.509 70.4339C247.165 70.2223 246.869 69.9358 246.642 69.5942C246.382 69.2064 246.184 68.7768 246.059 68.3227C245.915 67.8098 245.843 67.2783 245.846 66.7443C245.844 66.2037 245.916 65.6656 246.059 65.1455C246.186 64.6742 246.383 64.226 246.642 63.8163C246.869 63.4532 247.164 63.1401 247.509 62.8951C247.824 62.6695 248.192 62.5363 248.574 62.5095Z" fill="#9E616A"/>
<path d="M247.943 72.5373L249.866 72.7823C250.108 73.2666 250.302 73.7727 250.447 74.2938C250.596 74.8341 250.698 75.3861 250.753 75.9438C250.809 76.5145 250.819 77.0888 250.78 77.6611C250.743 78.2366 250.656 78.8081 250.521 79.3692L249.069 85.3908C249.069 85.3908 249.195 85.7496 249.384 86.371C249.573 86.9924 249.825 87.8805 250.078 88.9358C250.33 89.9912 250.584 91.2171 250.773 92.5142C250.975 93.8416 251.081 95.1815 251.09 96.5238C251.168 98.572 251.37 100.614 251.695 102.638C252.058 105.204 252.543 108.127 253.03 110.885C253.516 113.642 254.005 116.25 254.372 118.161C254.739 120.072 254.985 121.298 254.985 121.298L249.519 121.778L247.169 101.372L243.968 121.359L240.362 120.297L242.342 94.2014L243.658 85.5601L243.714 81.3407C243.714 81.3407 243.679 81.1447 243.648 80.8179C243.608 80.3835 243.595 79.947 243.609 79.511C243.625 78.9399 243.7 78.3719 243.833 77.8159C243.973 77.2155 244.219 76.6441 244.559 76.1281L246.286 72.6111L247.943 72.5373Z" fill="#CACACA"/>
<path d="M244.932 65.2424L249.501 65.0713V62.9126C249.259 62.8147 249.009 62.7267 248.754 62.6491C248.53 62.5778 248.293 62.5314 248.051 62.5115C247.836 62.494 247.618 62.5252 247.427 62.6012C247.206 62.7005 247.028 62.8456 246.915 63.019C246.637 63.0329 246.37 63.1026 246.141 63.2207C245.89 63.3499 245.676 63.5148 245.511 63.7059C245.323 63.9208 245.18 64.1558 245.087 64.4028C244.983 64.6759 244.931 64.9585 244.932 65.2424Z" fill="#2F2E41"/>
<path d="M249.943 62.5092C250.236 62.4947 250.527 62.5454 250.797 62.6576C251.066 62.7697 251.306 62.9404 251.499 63.1567C251.949 63.6661 252.286 64.2625 252.487 64.9073C252.734 65.6394 252.908 66.3931 253.006 67.158C253.104 67.8679 253.154 68.5833 253.157 69.2997C253.161 69.5998 253.134 69.8996 253.075 70.1943C253.033 70.4107 252.955 70.6188 252.843 70.8099C252.751 70.9637 252.627 71.0966 252.479 71.1997C252.333 71.2978 252.171 71.3708 252 71.4156L251.751 69.5561L251.169 71.5291L251.019 71.5344L250.865 71.5384H250.549L250.352 70.9739L249.915 71.5524C249.477 71.5696 249.061 71.6088 248.683 71.6188C248.345 71.6417 248.007 71.6051 247.682 71.5105C247.536 71.4623 247.401 71.3857 247.286 71.2853C247.171 71.1849 247.077 71.0628 247.011 70.9261C246.824 70.4975 246.739 70.0324 246.764 69.5667C246.765 68.8552 246.81 68.1444 246.899 67.4382C246.99 66.6669 247.153 65.9054 247.387 65.1636C247.584 64.4945 247.913 63.8699 248.356 63.3254C248.548 63.0885 248.789 62.8935 249.062 62.753C249.335 62.6125 249.635 62.5294 249.943 62.5092V62.5092Z" fill="#2F2E41"/>
<path opacity="0.2" d="M245.846 86.2153L245.756 79.8964L245.518 77.0966L244.932 79.8906L245.846 86.2153Z" fill="black"/>
<path d="M250.845 85.2737L247.673 85.3034V72.644L250.845 72.538C251.159 72.5292 251.47 72.6045 251.742 72.7551C252.033 72.9182 252.284 73.1386 252.477 73.4013C252.698 73.7004 252.866 74.0321 252.974 74.3828C253.097 74.7784 253.158 75.1886 253.157 75.6009V82.1119C253.158 82.526 253.096 82.9381 252.974 83.3358C252.865 83.6928 252.698 84.0314 252.477 84.3386C252.284 84.6105 252.034 84.8419 251.742 85.0184C251.474 85.1809 251.163 85.2703 250.845 85.2769V85.2737Z" fill="#7722FC"/>
<path d="M250.872 78.9203C250.81 78.9212 250.748 78.9071 250.695 78.8795C250.637 78.8495 250.588 78.8094 250.55 78.7618C250.506 78.7077 250.473 78.6478 250.452 78.5845C250.427 78.5133 250.415 78.4394 250.415 78.3651V73.4759L251.329 73.4492V78.3457C251.329 78.4204 251.317 78.4947 251.293 78.5664C251.271 78.631 251.238 78.6922 251.194 78.7477C251.155 78.797 251.106 78.8391 251.048 78.8715C250.995 78.9011 250.934 78.9178 250.871 78.9196L250.872 78.9203Z" fill="#3F3D56"/>
<path d="M251.686 84.3696L249.138 84.3915C249.063 84.3919 248.988 84.3771 248.924 84.3487C248.854 84.3179 248.795 84.2769 248.749 84.2284C248.696 84.1736 248.656 84.1131 248.631 84.0492C248.602 83.9774 248.587 83.903 248.587 83.8283V82.2647C248.587 82.1898 248.602 82.1152 248.631 82.0432C248.657 81.9789 248.697 81.9179 248.749 81.8624C248.795 81.8126 248.854 81.77 248.924 81.7373C248.988 81.7076 249.062 81.6912 249.138 81.6897L251.686 81.656C251.762 81.6553 251.837 81.6699 251.903 81.6982C251.973 81.7288 252.033 81.7696 252.079 81.818C252.133 81.8731 252.173 81.934 252.199 81.9983C252.228 82.0704 252.243 82.1452 252.243 82.2203V83.7935C252.243 83.8688 252.228 83.9437 252.199 84.016C252.173 84.081 252.132 84.1425 252.079 84.1984C252.033 84.2482 251.973 84.2906 251.903 84.3231C251.838 84.3525 251.763 84.3686 251.686 84.3696V84.3696Z" fill="#3F3D56"/>
<path d="M244.909 80.7441C244.757 80.4637 244.626 80.1728 244.515 79.8735C244.401 79.5631 244.307 79.2456 244.233 78.9229C244.157 78.5899 244.101 78.2526 244.066 77.9128C244.029 77.5652 244.014 77.2158 244.019 76.8663C244.017 76.1922 244.085 75.5199 244.222 74.86C244.337 74.2882 244.522 73.7331 244.773 73.2073C244.97 72.7784 245.248 72.392 245.592 72.0697C245.865 71.8081 246.221 71.6511 246.597 71.6254C246.806 71.6333 247.012 71.6801 247.204 71.7636C247.405 71.8521 247.591 71.9724 247.754 72.1199C247.934 72.2819 248.092 72.4673 248.224 72.6712C248.372 72.8978 248.494 73.1404 248.587 73.3944L248.371 73.5993C248.289 73.3714 248.181 73.1534 248.051 72.9495C247.933 72.7661 247.793 72.5989 247.632 72.4524C247.487 72.3177 247.32 72.2072 247.14 72.1252C246.969 72.0478 246.785 72.003 246.597 71.993C246.256 72.017 245.934 72.1628 245.689 72.4042C245.378 72.7048 245.127 73.063 244.95 73.4592C244.723 73.9493 244.555 74.4654 244.452 74.9962C244.329 75.6096 244.268 76.2339 244.27 76.8597C244.264 77.1877 244.279 77.5157 244.312 77.842C244.345 78.1609 244.397 78.4775 244.468 78.79C244.536 79.0931 244.623 79.3914 244.73 79.6831C244.833 79.9644 244.956 80.2379 245.098 80.5015L244.909 80.7441Z" fill="#7722FC"/>
<path d="M246.43 95.9994C246.381 95.9406 246.337 95.8756 246.299 95.8056C246.259 95.7296 246.225 95.6494 246.197 95.5659C246.167 95.479 246.143 95.3893 246.126 95.2978C246.107 95.2019 246.095 95.1045 246.089 95.0064C246.083 94.9075 246.083 94.8082 246.089 94.7092C246.096 94.6128 246.109 94.5171 246.127 94.4231C246.146 94.3325 246.17 94.2439 246.201 94.1582C246.23 94.0763 246.267 93.9979 246.309 93.9243L245.846 76.1848L247.544 76.4806L247.467 93.9708C247.536 94.1043 247.587 94.2491 247.619 94.4004C247.689 94.7138 247.691 95.0433 247.625 95.3579C247.592 95.5096 247.541 95.6547 247.472 95.7881C247.413 95.9069 247.335 96.0111 247.243 96.095C247.163 96.1673 247.071 96.2159 246.972 96.2365C246.878 96.2555 246.781 96.2452 246.691 96.2068C246.591 96.1625 246.5 96.0918 246.426 96L246.43 95.9994Z" fill="#9E616A"/>
<path d="M248.587 75.435L247.772 81.4493L247.706 85.1554L245.29 85.3034L244.932 82.2126L244.985 74.0884C244.986 73.7828 245.03 73.4788 245.116 73.1844C245.192 72.9171 245.31 72.662 245.464 72.4272C245.6 72.2173 245.777 72.0338 245.985 71.8862C246.174 71.7517 246.396 71.6651 246.629 71.6347V71.6347C246.863 71.6065 247.101 71.6429 247.315 71.7396C247.54 71.844 247.738 71.9955 247.894 72.1829C248.073 72.3968 248.213 72.6383 248.308 72.8971C248.417 73.192 248.48 73.5005 248.496 73.8129L248.587 75.435Z" fill="#CACACA"/>
<path d="M248.607 129.482C248.63 129.406 248.673 129.337 248.734 129.279C248.794 129.221 248.87 129.176 248.955 129.148C249.175 129.078 249.412 129.057 249.645 129.085C249.966 129.118 250.281 129.186 250.582 129.288C250.959 129.413 251.323 129.566 251.668 129.747C252.033 129.936 252.379 130.15 252.703 130.388C252.993 130.598 253.259 130.831 253.498 131.083C253.693 131.286 253.853 131.512 253.973 131.754C254.067 131.929 254.094 132.125 254.051 132.314C254.027 132.39 253.983 132.46 253.921 132.518C253.86 132.576 253.783 132.621 253.697 132.649C253.472 132.717 253.232 132.737 252.996 132.707C252.673 132.672 252.355 132.602 252.052 132.498C251.674 132.372 251.31 132.216 250.965 132.034C250.602 131.845 250.258 131.631 249.936 131.394C249.649 131.184 249.386 130.951 249.151 130.699C248.958 130.498 248.801 130.275 248.683 130.036C248.591 129.862 248.564 129.669 248.607 129.482V129.482Z" fill="white" fill-opacity="0.4"/>
<path d="M257.772 129.341C257.802 129.27 257.85 129.208 257.911 129.163C257.973 129.117 258.045 129.088 258.121 129.08C258.332 129.058 258.544 129.088 258.741 129.166C259.024 129.269 259.294 129.405 259.546 129.571C259.867 129.778 260.171 130.011 260.455 130.267C260.755 130.536 261.036 130.826 261.294 131.135C261.523 131.409 261.73 131.701 261.911 132.009C262.058 132.252 262.172 132.513 262.25 132.786C262.312 132.974 262.312 133.178 262.25 133.366C262.219 133.437 262.17 133.499 262.108 133.545C262.046 133.591 261.972 133.619 261.895 133.626C261.682 133.646 261.467 133.615 261.268 133.534C260.983 133.428 260.711 133.29 260.457 133.121C260.136 132.911 259.833 132.676 259.55 132.417C259.252 132.149 258.974 131.86 258.718 131.552C258.491 131.281 258.286 130.991 258.107 130.685C257.962 130.445 257.849 130.186 257.772 129.915C257.711 129.729 257.711 129.528 257.772 129.341Z" fill="white" fill-opacity="0.4"/>
<path d="M261.426 137.583C261.458 137.508 261.512 137.442 261.582 137.391C261.652 137.34 261.736 137.307 261.825 137.295C262.07 137.262 262.32 137.282 262.554 137.354C262.889 137.447 263.21 137.574 263.512 137.734C263.895 137.933 264.259 138.159 264.6 138.411C264.962 138.675 265.302 138.963 265.617 139.271C265.896 139.544 266.15 139.836 266.374 140.147C266.555 140.392 266.699 140.657 266.8 140.936C266.88 141.13 266.887 141.341 266.821 141.538C266.788 141.614 266.733 141.68 266.662 141.731C266.59 141.781 266.505 141.814 266.415 141.826C266.167 141.856 265.915 141.834 265.678 141.76C265.341 141.664 265.017 141.534 264.712 141.371C264.329 141.171 263.965 140.943 263.622 140.69C263.263 140.426 262.926 140.139 262.614 139.831C262.337 139.56 262.087 139.269 261.866 138.961C261.687 138.718 261.546 138.455 261.447 138.179C261.369 137.988 261.361 137.779 261.426 137.583V137.583Z" fill="white" fill-opacity="0.4"/>
<path d="M270.558 142.137C270.585 142.062 270.63 141.996 270.688 141.946C270.747 141.896 270.816 141.864 270.89 141.852C271.094 141.822 271.302 141.844 271.497 141.917C271.776 142.012 272.044 142.141 272.296 142.303C272.615 142.502 272.918 142.728 273.203 142.98C273.504 143.244 273.787 143.531 274.049 143.84C274.282 144.112 274.493 144.406 274.68 144.717C274.831 144.961 274.951 145.226 275.036 145.505C275.103 145.696 275.109 145.907 275.054 146.103C275.026 146.178 274.98 146.244 274.921 146.294C274.861 146.344 274.79 146.376 274.716 146.386C274.508 146.415 274.298 146.392 274.1 146.317C273.819 146.219 273.549 146.088 273.295 145.924C272.976 145.723 272.672 145.493 272.387 145.239C272.088 144.975 271.807 144.687 271.547 144.378C271.318 144.108 271.11 143.817 270.926 143.509C270.777 143.267 270.659 143.005 270.575 142.729C270.51 142.539 270.504 142.331 270.558 142.137V142.137Z" fill="white" fill-opacity="0.4"/>
<path d="M228.976 67.2314C228.379 66.7996 227.708 66.4851 226.998 66.3038C226.333 66.1383 225.643 66.1098 224.967 66.2201C224.269 66.3375 223.599 66.5853 222.989 66.9511C222.31 67.3596 221.697 67.8725 221.17 68.4719C222.224 68.7068 223.281 68.9668 224.339 69.252C225.397 69.5372 226.46 69.8492 227.529 70.1879C228.598 70.5271 229.668 70.8919 230.738 71.2823C231.809 71.6727 232.884 72.091 233.965 72.5373C233.509 72.1396 233.082 71.7098 232.685 71.2511C232.276 70.7874 231.874 70.2973 231.479 69.8134C231.084 69.3295 230.682 68.8526 230.269 68.4117C229.873 67.9797 229.44 67.5847 228.976 67.2314V67.2314Z" fill="white" fill-opacity="0.4"/>
<path d="M297.281 97.7191C297.15 97.4631 297.004 97.2154 296.842 96.9776C296.685 96.7493 296.514 96.5317 296.329 96.3261C296.15 96.129 295.957 95.945 295.751 95.7756C295.553 95.6122 295.343 95.4645 295.122 95.3339L294.284 95.3704C295.881 99.0975 297.628 102.728 299.522 106.262C301.428 109.817 303.481 113.267 305.681 116.611C307.897 119.978 310.258 123.228 312.765 126.363C315.293 129.522 317.967 132.553 320.787 135.456L314.727 125.725L308.791 116.196L302.976 106.862L297.281 97.7191Z" fill="white" fill-opacity="0.4"/>
<path d="M43.8067 108C43.5561 108 43.3119 107.906 43.1084 107.733C42.905 107.559 42.7526 107.314 42.6726 107.032L42.0644 104.879C42.0134 104.702 41.9923 104.515 42.0025 104.328C42.0126 104.141 42.0537 103.959 42.1235 103.791C42.1932 103.623 42.2902 103.473 42.4088 103.35C42.5275 103.227 42.6655 103.133 42.8149 103.074C42.9642 103.014 43.122 102.99 43.2792 103.004C43.4363 103.017 43.5897 103.067 43.7306 103.151C43.8714 103.234 43.9969 103.351 44.0998 103.492C44.2027 103.634 44.281 103.799 44.3301 103.976L44.9383 106.129C45.0387 106.486 45.0159 106.875 44.8748 107.212C44.7337 107.549 44.4859 107.806 44.1857 107.926H44.1854C44.0634 107.975 43.9354 108 43.8067 108V108Z" fill="#3F3D56"/>
<path d="M45.3562 113C44.9996 112.999 44.653 112.899 44.3687 112.713C44.0844 112.528 43.8778 112.268 43.7801 111.973L43.0621 109.798C42.9436 109.438 42.9961 109.052 43.208 108.725C43.42 108.397 43.7741 108.156 44.1925 108.054C44.6109 107.951 45.0594 107.996 45.4395 108.178C45.8195 108.361 46.1001 108.665 46.2195 109.025L46.9375 111.2C46.9964 111.379 47.0139 111.565 46.989 111.75C46.9641 111.934 46.8973 112.112 46.7923 112.274C46.6874 112.437 46.5463 112.579 46.3773 112.694C46.2083 112.81 46.0146 112.895 45.8072 112.946C45.6605 112.982 45.5088 113 45.3562 113V113Z" fill="#3F3D56"/>
</svg>
