<svg width="37" height="37" viewBox="0 0 37 37" fill="none" xmlns="http://www.w3.org/2000/svg">
<path d="M6.16797 8.223L6.21397 8.237C6.20865 8.23024 6.2014 8.22527 6.19317 8.22277C6.18494 8.22026 6.17615 8.22035 6.16797 8.223" fill="#BCBCBC"/>
<path d="M36.1262 0.481959C36.1262 0.124959 36.0492 0.032959 35.6812 0.032959C23.9685 0.0442923 12.2562 0.0442923 0.544191 0.032959C0.181191 0.032959 0.0961914 0.116959 0.0961914 0.479959C0.106858 12.1913 0.106858 23.9026 0.0961914 35.614C0.0961914 35.971 0.173191 36.064 0.541191 36.063C6.38386 36.0496 12.2265 36.0463 18.0692 36.053C23.9359 36.053 29.8055 36.056 35.6782 36.062C36.0412 36.062 36.1262 35.978 36.1262 35.616C36.1155 23.9046 36.1155 12.1933 36.1262 0.481959V0.481959ZM29.8962 8.00296L29.8792 8.04396H23.4622V8.00296H29.8962ZM6.26119 7.98496H13.0872V8.02596H6.24519L6.26119 7.98496ZM27.8672 24.47C27.8613 24.6046 27.8858 24.7388 27.9388 24.8628C27.9917 24.9867 28.0718 25.0971 28.1732 25.186C28.7202 25.699 29.2432 26.237 29.7892 26.751C29.8673 26.8056 29.927 26.8826 29.9604 26.9719C29.9938 27.0612 29.9993 27.1585 29.9762 27.251C29.9062 27.471 29.6942 27.357 29.5522 27.358C26.6749 27.3653 23.7972 27.3653 20.9192 27.358C20.7802 27.358 20.5702 27.476 20.4992 27.248C20.4352 27.043 20.5572 26.897 20.7062 26.755C21.2512 26.24 21.7852 25.713 22.3222 25.189C22.4683 25.0867 22.576 24.9385 22.6282 24.768C22.6222 23.407 22.6132 22.046 22.6122 20.686C22.6122 18.508 22.6122 16.33 22.6122 14.151C22.6122 14.009 22.6712 13.851 22.5512 13.723C21.4985 16.4096 20.4455 19.096 19.3922 21.782C18.7209 23.4926 18.0472 25.2023 17.3712 26.911C17.2902 27.116 17.2712 27.349 16.9232 27.326C16.6232 27.306 16.4472 27.269 16.3052 26.958C14.3492 22.658 12.3825 18.363 10.4052 14.073C10.3499 13.9347 10.266 13.8097 10.1592 13.706C10.1592 13.8506 10.1592 13.9953 10.1592 14.14C10.1592 17.06 10.1555 19.9796 10.1482 22.899C10.1484 23.2423 10.2747 23.5737 10.5032 23.83C11.2702 24.753 12.0302 25.682 12.7932 26.609C12.8582 26.6787 12.9184 26.7529 12.9732 26.831C13.1542 27.131 13.0562 27.312 12.7192 27.313C10.5359 27.313 8.35252 27.313 6.16919 27.313C6.05819 27.313 5.89319 27.386 5.84319 27.244C5.81322 27.1742 5.80306 27.0975 5.81382 27.0224C5.82458 26.9472 5.85585 26.8765 5.90419 26.818C5.96819 26.747 6.02519 26.671 6.08619 26.597C6.84019 25.681 7.59119 24.762 8.35119 23.851C8.57926 23.5946 8.70461 23.2631 8.70319 22.92C8.69453 19.3573 8.69219 15.795 8.69619 12.233C8.71012 11.8658 8.58148 11.5074 8.33719 11.233C7.63719 10.428 6.97819 9.59596 6.29419 8.78096C6.22072 8.7106 6.16974 8.62005 6.14767 8.52074C6.1256 8.42143 6.13344 8.31782 6.17019 8.22296C6.22019 8.12296 6.31219 8.16496 6.38519 8.16496C8.55186 8.16496 10.7185 8.16496 12.8852 8.16496C12.9592 8.16496 13.0502 8.12696 13.1042 8.21996C13.1169 8.22491 13.1273 8.23441 13.1334 8.2466C13.1395 8.2588 13.1409 8.27282 13.1372 8.28596V8.28596C13.2962 8.35596 13.3082 8.52196 13.3672 8.65296C15.0339 12.303 16.6979 15.9536 18.3592 19.605C18.4202 19.739 18.4862 19.87 18.5722 20.047C19.2192 18.438 19.8482 16.875 20.4722 15.311C21.3789 13.0516 22.2855 10.7926 23.1922 8.53396C23.2352 8.42696 23.2352 8.28896 23.3612 8.22496C23.4232 8.14596 23.5102 8.17796 23.5872 8.17796C25.6385 8.17796 27.6899 8.17796 29.7412 8.17796C29.8182 8.17796 29.9052 8.14696 29.9672 8.22396C30.0151 8.31373 30.0279 8.4181 30.0032 8.5168C29.9784 8.61549 29.9178 8.70145 29.8332 8.75796C29.2852 9.26996 28.7562 9.80296 28.2042 10.31C28.0913 10.406 28.0018 10.5265 27.9425 10.6624C27.8833 10.7983 27.8558 10.9459 27.8622 11.094C27.8715 15.5533 27.8715 20.0123 27.8622 24.471" fill="#BCBCBC"/>
</svg>
