<svg width="39" height="32" viewBox="0 0 39 32" fill="none" xmlns="http://www.w3.org/2000/svg">
<path d="M38.9 3.98498C37.4352 4.62384 35.8859 5.04821 34.3 5.24498C35.9697 4.25463 37.2182 2.68626 37.809 0.836979C36.2458 1.76427 34.5354 2.41735 32.752 2.76798C31.6587 1.59883 30.2389 0.78573 28.6773 0.43443C27.1156 0.0831293 25.4844 0.209889 23.9958 0.798222C22.5071 1.38656 21.23 2.40923 20.3304 3.73324C19.4309 5.05724 18.9506 6.6213 18.952 8.22198C18.9458 8.83331 19.0078 9.44342 19.137 10.041C15.9659 9.8836 12.8637 9.05909 10.033 7.62131C7.20221 6.18353 4.70656 4.16481 2.709 1.69698C1.68252 3.45164 1.36457 5.53197 1.82009 7.51313C2.27561 9.4943 3.47023 11.2268 5.16 12.357C3.89866 12.3227 2.66401 11.986 1.56 11.375V11.463C1.56209 13.3047 2.19864 15.0895 3.36248 16.5169C4.52632 17.9443 6.1464 18.9271 7.95 19.3C7.26774 19.4799 6.56458 19.5684 5.859 19.563C5.35224 19.572 4.84598 19.5264 4.349 19.427C4.86462 21.0093 5.85793 22.393 7.19224 23.3876C8.52656 24.3822 10.1363 24.9388 11.8 24.981C8.97658 27.1882 5.49478 28.3853 1.911 28.381C1.27235 28.3859 0.634036 28.3498 0 28.273C3.64691 30.623 7.89654 31.8661 12.235 31.852C26.911 31.852 34.935 19.695 34.935 9.15198C34.935 8.79898 34.923 8.45898 34.906 8.12098C36.4775 6.99629 37.8309 5.59475 38.9 3.98498Z" fill="#BCBCBC"/>
</svg>
