<svg width="32" height="37" viewBox="0 0 32 37" fill="none" xmlns="http://www.w3.org/2000/svg">
<path d="M21.15 17.3429C21.1195 17.6995 20.9859 18.0394 20.7655 18.3213C20.545 18.6031 20.2473 18.8147 19.9086 18.9303C19.57 19.0458 19.205 19.0602 18.8582 18.9718C18.5115 18.8833 18.198 18.6959 17.956 18.4323C17.714 18.1687 17.554 17.8403 17.4955 17.4873C17.437 17.1343 17.4825 16.7719 17.6265 16.4443C17.7705 16.1167 18.0068 15.8381 18.3064 15.6425C18.6061 15.447 18.9562 15.3429 19.314 15.3429C19.566 15.3535 19.8134 15.4136 20.042 15.5198C20.2707 15.6261 20.4762 15.7764 20.6468 15.9622C20.8173 16.1479 20.9495 16.3655 21.0359 16.6024C21.1222 16.8394 21.161 17.091 21.15 17.3429ZM12.744 15.3429C12.238 15.3787 11.7644 15.605 11.4186 15.9761C11.0728 16.3472 10.8805 16.8357 10.8805 17.3429C10.8805 17.8502 11.0728 18.3386 11.4186 18.7097C11.7644 19.0809 12.238 19.3071 12.744 19.3429C12.996 19.3324 13.2434 19.2723 13.472 19.166C13.7007 19.0597 13.9062 18.9094 14.0768 18.7237C14.2473 18.5379 14.3795 18.3203 14.4659 18.0834C14.5522 17.8465 14.591 17.5949 14.58 17.3429C14.5926 17.0905 14.5549 16.838 14.469 16.6002C14.3831 16.3625 14.2508 16.1442 14.0798 15.9581C13.9087 15.772 13.7024 15.6217 13.4727 15.5161C13.243 15.4105 12.9946 15.3516 12.742 15.3429H12.744ZM31.75 3.95092V36.2429C27.215 32.2359 28.666 33.5619 23.398 28.6649L24.352 31.9949H3.94001C2.95905 31.9923 2.0193 31.6002 1.32735 30.9049C0.635395 30.2095 0.247884 29.2679 0.250009 28.2869V3.95092C0.247884 2.96996 0.635395 2.02831 1.32735 1.33298C2.0193 0.637657 2.95905 0.245569 3.94001 0.24292L28.06 0.24292C29.041 0.245569 29.9807 0.637657 30.6727 1.33298C31.3646 2.02831 31.7521 2.96996 31.75 3.95092ZM26.62 21.0149C26.5617 17.3658 25.6754 13.7775 24.028 10.5209C22.5784 9.38234 20.811 8.72194 18.97 8.63092L18.718 8.91892C20.357 9.35504 21.8847 10.1342 23.2 11.2049C21.1464 10.0978 18.8668 9.4752 16.5355 9.38473C14.2043 9.29425 11.8832 9.73831 9.75001 10.6829C9.08401 10.9889 8.68801 11.2049 8.68801 11.2049C10.0744 10.0787 11.6922 9.2722 13.426 8.84292L13.25 8.63092C11.409 8.72194 9.64161 9.38234 8.19201 10.5209C6.54318 13.7772 5.65552 17.3655 5.59601 21.0149C6.21681 21.886 7.04219 22.591 7.99952 23.0681C8.95685 23.5452 10.0168 23.7797 11.086 23.7509C11.086 23.7509 11.752 22.9409 12.292 22.2569C11.0266 21.9376 9.91243 21.1863 9.14201 20.1329C9.40701 20.3179 9.84201 20.5589 9.88001 20.5829C11.5884 21.5141 13.4824 22.0538 15.4251 22.1627C17.3677 22.2717 19.3102 21.9473 21.112 21.2129C21.8399 20.9382 22.5343 20.582 23.182 20.1509C22.3828 21.227 21.2287 21.9857 19.924 22.2929C20.464 22.9769 21.112 23.7509 21.112 23.7509C22.1835 23.778 23.2454 23.5429 24.2053 23.066C25.1653 22.5892 25.9942 21.8851 26.62 21.0149Z" fill="#BCBCBC"/>
</svg>
